<?xml version="1.0" encoding="utf-8"?>
<!-- Generator: Adobe Illustrator 22.1.0, SVG Export Plug-In . SVG Version: 6.00 Build 0)  -->
<svg version="1.1" xmlns="http://www.w3.org/2000/svg" xmlns:xlink="http://www.w3.org/1999/xlink" x="0px" y="0px"
	 viewBox="0 0 500 500" style="enable-background:new 0 0 500 500;" xml:space="preserve">
<style type="text/css">
	.st0{fill:none;}
	.st1{fill:#231F20;}
	.st2{fill:none;stroke:#231F20;stroke-width:0.72;}
	.st3{fill:none;stroke:#231F20;stroke-width:0.3;stroke-linejoin:round;}
	.st4{display:none;}
	.st5{display:inline;fill:#FFFFFF;}
	.st6{display:inline;}
	.st7{fill:url(#SVGID_1_);}
	.st8{fill:url(#SVGID_2_);}
	.st9{fill:url(#SVGID_3_);}
	.st10{fill:url(#SVGID_4_);}
	.st11{fill:url(#SVGID_5_);}
	.st12{fill:#FFFFFF;}
	.st13{fill:url(#SVGID_6_);}
	.st14{fill:url(#SVGID_7_);}
	.st15{fill:url(#SVGID_8_);}
	.st16{fill:url(#SVGID_9_);}
	.st17{fill:url(#SVGID_10_);}
	.st18{fill:url(#SVGID_11_);}
	.st19{fill:url(#SVGID_12_);}
	.st20{fill:url(#SVGID_13_);}
	.st21{fill:url(#SVGID_14_);}
	.st22{fill:url(#SVGID_15_);}
	.st23{fill:url(#SVGID_16_);}
	.st24{fill:url(#SVGID_17_);}
	.st25{fill:url(#SVGID_18_);}
	.st26{fill:url(#SVGID_19_);}
	.st27{fill:url(#SVGID_20_);}
	.st28{fill:url(#SVGID_21_);}
	.st29{fill:url(#SVGID_22_);}
	.st30{fill:url(#SVGID_23_);}
	.st31{fill:url(#SVGID_24_);}
	.st32{fill:url(#SVGID_25_);}
	.st33{fill:url(#SVGID_26_);}
	.st34{fill:url(#SVGID_27_);}
	.st35{fill:url(#SVGID_28_);}
	.st36{fill:url(#SVGID_29_);}
	.st37{fill:url(#SVGID_30_);}
	.st38{fill:url(#SVGID_31_);}
	.st39{fill:url(#SVGID_32_);}
	.st40{fill:url(#SVGID_33_);}
	.st41{fill:url(#SVGID_34_);}
	.st42{fill:url(#SVGID_35_);}
	.st43{fill:url(#SVGID_36_);}
	.st44{fill:url(#SVGID_37_);}
	.st45{fill:url(#SVGID_38_);}
	.st46{fill:url(#SVGID_39_);}
	.st47{fill:url(#SVGID_40_);}
	.st48{fill:url(#SVGID_41_);}
	.st49{fill:url(#SVGID_42_);}
	.st50{fill:url(#SVGID_43_);}
	.st51{fill:url(#SVGID_44_);}
	.st52{fill:url(#SVGID_45_);}
	.st53{fill:url(#SVGID_46_);}
	.st54{fill:url(#SVGID_47_);}
	.st55{fill:url(#SVGID_48_);}
	.st56{fill:url(#SVGID_49_);}
	.st57{fill:url(#SVGID_50_);}
	.st58{fill:url(#SVGID_51_);}
	.st59{fill:url(#SVGID_52_);}
	.st60{fill:url(#SVGID_53_);}
	.st61{fill:url(#SVGID_54_);}
</style>
<pattern  x="-1.5" y="-150" width="28.8" height="28.8" patternUnits="userSpaceOnUse" id="_x31_0_dpi_20_x25_" viewBox="1.4 -30.2 28.8 28.8" style="overflow:visible;">
	<g>
		<rect id="XMLID_186_" x="1.4" y="-30.2" class="st0" width="28.8" height="28.8"/>
		<g id="XMLID_177_">
			<path id="XMLID_185_" class="st1" d="M30.2,0c0.8,0,1.4-0.6,1.4-1.4c0-0.8-0.6-1.4-1.4-1.4c-0.8,0-1.4,0.6-1.4,1.4
				C28.8-0.6,29.4,0,30.2,0z"/>
			<path id="XMLID_184_" class="st1" d="M15.8,0c0.8,0,1.4-0.6,1.4-1.4c0-0.8-0.6-1.4-1.4-1.4c-0.8,0-1.4,0.6-1.4,1.4
				C14.4-0.6,15,0,15.8,0z"/>
			<path id="XMLID_183_" class="st1" d="M30.2-14.4c0.8,0,1.4-0.6,1.4-1.4c0-0.8-0.6-1.4-1.4-1.4c-0.8,0-1.4,0.6-1.4,1.4
				C28.8-15,29.4-14.4,30.2-14.4z"/>
			<path id="XMLID_182_" class="st1" d="M15.8-14.4c0.8,0,1.4-0.6,1.4-1.4c0-0.8-0.6-1.4-1.4-1.4c-0.8,0-1.4,0.6-1.4,1.4
				C14.4-15,15-14.4,15.8-14.4z"/>
			<path id="XMLID_181_" class="st1" d="M8.6-7.2c0.8,0,1.4-0.6,1.4-1.4c0-0.8-0.6-1.4-1.4-1.4c-0.8,0-1.4,0.6-1.4,1.4
				C7.2-7.8,7.8-7.2,8.6-7.2z"/>
			<path id="XMLID_180_" class="st1" d="M23-7.2c0.8,0,1.4-0.6,1.4-1.4c0-0.8-0.6-1.4-1.4-1.4c-0.8,0-1.4,0.6-1.4,1.4
				C21.6-7.8,22.2-7.2,23-7.2z"/>
			<path id="XMLID_179_" class="st1" d="M8.6-21.6c0.8,0,1.4-0.6,1.4-1.4c0-0.8-0.6-1.4-1.4-1.4c-0.8,0-1.4,0.6-1.4,1.4
				C7.2-22.2,7.8-21.6,8.6-21.6z"/>
			<path id="XMLID_178_" class="st1" d="M23-21.6c0.8,0,1.4-0.6,1.4-1.4c0-0.8-0.6-1.4-1.4-1.4c-0.8,0-1.4,0.6-1.4,1.4
				C21.6-22.2,22.2-21.6,23-21.6z"/>
		</g>
		<g id="XMLID_174_">
			<path id="XMLID_176_" class="st1" d="M1.4,0c0.8,0,1.4-0.6,1.4-1.4c0-0.8-0.6-1.4-1.4-1.4C0.6-2.9,0-2.2,0-1.4C0-0.6,0.6,0,1.4,0
				z"/>
			<path id="XMLID_175_" class="st1" d="M1.4-14.4c0.8,0,1.4-0.6,1.4-1.4c0-0.8-0.6-1.4-1.4-1.4c-0.8,0-1.4,0.6-1.4,1.4
				C0-15,0.6-14.4,1.4-14.4z"/>
		</g>
		<g id="XMLID_171_">
			<path id="XMLID_173_" class="st1" d="M30.2-28.8c0.8,0,1.4-0.6,1.4-1.4c0-0.8-0.6-1.4-1.4-1.4c-0.8,0-1.4,0.6-1.4,1.4
				C28.8-29.4,29.4-28.8,30.2-28.8z"/>
			<path id="XMLID_172_" class="st1" d="M15.8-28.8c0.8,0,1.4-0.6,1.4-1.4c0-0.8-0.6-1.4-1.4-1.4c-0.8,0-1.4,0.6-1.4,1.4
				C14.4-29.4,15-28.8,15.8-28.8z"/>
		</g>
		<g id="XMLID_169_">
			<path id="XMLID_170_" class="st1" d="M1.4-28.8c0.8,0,1.4-0.6,1.4-1.4c0-0.8-0.6-1.4-1.4-1.4C0.6-31.7,0-31,0-30.2
				C0-29.4,0.6-28.8,1.4-28.8z"/>
		</g>
	</g>
</pattern>
<pattern  x="-1.5" y="-150" width="72" height="72" patternUnits="userSpaceOnUse" id="_x31_0_lpi_10_x25_" viewBox="72.3 -72 72 72" style="overflow:visible;">
	<g>
		<rect id="XMLID_221_" x="72.3" y="-72" class="st0" width="72" height="72"/>
		<g id="XMLID_210_">
			<line id="XMLID_220_" class="st2" x1="144" y1="-3.6" x2="216.5" y2="-3.6"/>
			<line id="XMLID_219_" class="st2" x1="144" y1="-18" x2="216.5" y2="-18"/>
			<line id="XMLID_218_" class="st2" x1="144" y1="-32.4" x2="216.5" y2="-32.4"/>
			<line id="XMLID_217_" class="st2" x1="144" y1="-46.8" x2="216.5" y2="-46.8"/>
			<line id="XMLID_216_" class="st2" x1="144" y1="-61.2" x2="216.5" y2="-61.2"/>
			<line id="XMLID_215_" class="st2" x1="144" y1="-10.8" x2="216.5" y2="-10.8"/>
			<line id="XMLID_214_" class="st2" x1="144" y1="-25.2" x2="216.5" y2="-25.2"/>
			<line id="XMLID_213_" class="st2" x1="144" y1="-39.6" x2="216.5" y2="-39.6"/>
			<line id="XMLID_212_" class="st2" x1="144" y1="-54" x2="216.5" y2="-54"/>
			<line id="XMLID_211_" class="st2" x1="144" y1="-68.4" x2="216.5" y2="-68.4"/>
		</g>
		<g id="XMLID_199_">
			<line id="XMLID_209_" class="st2" x1="72" y1="-3.6" x2="144.5" y2="-3.6"/>
			<line id="XMLID_208_" class="st2" x1="72" y1="-18" x2="144.5" y2="-18"/>
			<line id="XMLID_207_" class="st2" x1="72" y1="-32.4" x2="144.5" y2="-32.4"/>
			<line id="XMLID_206_" class="st2" x1="72" y1="-46.8" x2="144.5" y2="-46.8"/>
			<line id="XMLID_205_" class="st2" x1="72" y1="-61.2" x2="144.5" y2="-61.2"/>
			<line id="XMLID_204_" class="st2" x1="72" y1="-10.8" x2="144.5" y2="-10.8"/>
			<line id="XMLID_203_" class="st2" x1="72" y1="-25.2" x2="144.5" y2="-25.2"/>
			<line id="XMLID_202_" class="st2" x1="72" y1="-39.6" x2="144.5" y2="-39.6"/>
			<line id="XMLID_201_" class="st2" x1="72" y1="-54" x2="144.5" y2="-54"/>
			<line id="XMLID_200_" class="st2" x1="72" y1="-68.4" x2="144.5" y2="-68.4"/>
		</g>
		<g id="XMLID_188_">
			<line id="XMLID_198_" class="st2" x1="0" y1="-3.6" x2="72.5" y2="-3.6"/>
			<line id="XMLID_197_" class="st2" x1="0" y1="-18" x2="72.5" y2="-18"/>
			<line id="XMLID_196_" class="st2" x1="0" y1="-32.4" x2="72.5" y2="-32.4"/>
			<line id="XMLID_195_" class="st2" x1="0" y1="-46.8" x2="72.5" y2="-46.8"/>
			<line id="XMLID_194_" class="st2" x1="0" y1="-61.2" x2="72.5" y2="-61.2"/>
			<line id="XMLID_193_" class="st2" x1="0" y1="-10.8" x2="72.5" y2="-10.8"/>
			<line id="XMLID_192_" class="st2" x1="0" y1="-25.2" x2="72.5" y2="-25.2"/>
			<line id="XMLID_191_" class="st2" x1="0" y1="-39.6" x2="72.5" y2="-39.6"/>
			<line id="XMLID_190_" class="st2" x1="0" y1="-54" x2="72.5" y2="-54"/>
			<line id="XMLID_189_" class="st2" x1="0" y1="-68.4" x2="72.5" y2="-68.4"/>
		</g>
	</g>
</pattern>
<pattern  x="-1.5" y="-150" width="72" height="72" patternUnits="userSpaceOnUse" id="Diagonal_Lines" viewBox="79.6 -148.6 72 72" style="overflow:visible;">
	<g>
		<rect x="79.6" y="-148.6" class="st0" width="72" height="72"/>
		<g>
			<line class="st3" x1="144.1" y1="-66.1" x2="162.1" y2="-84.1"/>
			<line class="st3" x1="144.1" y1="-60.1" x2="168.1" y2="-84.1"/>
			<line class="st3" x1="144.1" y1="-54.1" x2="174.1" y2="-84.1"/>
			<line class="st3" x1="144.1" y1="-48.1" x2="180.1" y2="-84.1"/>
			<line class="st3" x1="144.1" y1="-42.1" x2="186.1" y2="-84.1"/>
			<line class="st3" x1="144.1" y1="-36.1" x2="192.1" y2="-84.1"/>
			<line class="st3" x1="144.1" y1="-30.1" x2="198.1" y2="-84.1"/>
			<line class="st3" x1="144.1" y1="-24.1" x2="204.1" y2="-84.1"/>
			<line class="st3" x1="144.1" y1="-18.1" x2="210.1" y2="-84.1"/>
			<line class="st3" x1="144.1" y1="-12.1" x2="216.1" y2="-84.1"/>
			<line class="st3" x1="144.1" y1="-6.1" x2="222.1" y2="-84.1"/>
			<line class="st3" x1="144.1" y1="-0.1" x2="228.1" y2="-84.1"/>
			<line class="st3" x1="150.1" y1="-0.1" x2="228.1" y2="-78.1"/>
		</g>
		<g>
			<line class="st3" x1="72.1" y1="-66.1" x2="90.1" y2="-84.1"/>
			<line class="st3" x1="72.1" y1="-60.1" x2="96.1" y2="-84.1"/>
			<line class="st3" x1="72.1" y1="-54.1" x2="102.1" y2="-84.1"/>
			<line class="st3" x1="72.1" y1="-48.1" x2="108.1" y2="-84.1"/>
			<line class="st3" x1="72.1" y1="-42.1" x2="114.1" y2="-84.1"/>
			<line class="st3" x1="72.1" y1="-36.1" x2="120.1" y2="-84.1"/>
			<line class="st3" x1="72.1" y1="-30.1" x2="126.1" y2="-84.1"/>
			<line class="st3" x1="72.1" y1="-24.1" x2="132.1" y2="-84.1"/>
			<line class="st3" x1="72.1" y1="-18.1" x2="138.1" y2="-84.1"/>
			<line class="st3" x1="72.1" y1="-12.1" x2="144.1" y2="-84.1"/>
			<line class="st3" x1="72.1" y1="-6.1" x2="150.1" y2="-84.1"/>
			<line class="st3" x1="72.1" y1="-0.1" x2="156.1" y2="-84.1"/>
			<line class="st3" x1="78.1" y1="-0.1" x2="156.1" y2="-78.1"/>
		</g>
		<g>
			<line class="st3" x1="0.1" y1="-0.1" x2="84.1" y2="-84.1"/>
			<line class="st3" x1="6.1" y1="-0.1" x2="84.1" y2="-78.1"/>
		</g>
		<g>
			<line class="st3" x1="144.1" y1="-138.1" x2="162.1" y2="-156.1"/>
			<line class="st3" x1="144.1" y1="-132.1" x2="168.1" y2="-156.1"/>
			<line class="st3" x1="144.1" y1="-126.1" x2="174.1" y2="-156.1"/>
			<line class="st3" x1="144.1" y1="-120.1" x2="180.1" y2="-156.1"/>
			<line class="st3" x1="144.1" y1="-114.1" x2="186.1" y2="-156.1"/>
			<line class="st3" x1="144.1" y1="-108.1" x2="192.1" y2="-156.1"/>
			<line class="st3" x1="144.1" y1="-102.1" x2="198.1" y2="-156.1"/>
			<line class="st3" x1="144.1" y1="-96.1" x2="204.1" y2="-156.1"/>
			<line class="st3" x1="144.1" y1="-90.1" x2="210.1" y2="-156.1"/>
			<line class="st3" x1="144.1" y1="-84.1" x2="216.1" y2="-156.1"/>
			<line class="st3" x1="144.1" y1="-78.1" x2="222.1" y2="-156.1"/>
			<line class="st3" x1="144.1" y1="-72.1" x2="228.1" y2="-156.1"/>
			<line class="st3" x1="150.1" y1="-72.1" x2="228.1" y2="-150.1"/>
		</g>
		<g>
			<line class="st3" x1="72.1" y1="-138.1" x2="90.1" y2="-156.1"/>
			<line class="st3" x1="72.1" y1="-132.1" x2="96.1" y2="-156.1"/>
			<line class="st3" x1="72.1" y1="-126.1" x2="102.1" y2="-156.1"/>
			<line class="st3" x1="72.1" y1="-120.1" x2="108.1" y2="-156.1"/>
			<line class="st3" x1="72.1" y1="-114.1" x2="114.1" y2="-156.1"/>
			<line class="st3" x1="72.1" y1="-108.1" x2="120.1" y2="-156.1"/>
			<line class="st3" x1="72.1" y1="-102.1" x2="126.1" y2="-156.1"/>
			<line class="st3" x1="72.1" y1="-96.1" x2="132.1" y2="-156.1"/>
			<line class="st3" x1="72.1" y1="-90.1" x2="138.1" y2="-156.1"/>
			<line class="st3" x1="72.1" y1="-84.1" x2="144.1" y2="-156.1"/>
			<line class="st3" x1="72.1" y1="-78.1" x2="150.1" y2="-156.1"/>
			<line class="st3" x1="72.1" y1="-72.1" x2="156.1" y2="-156.1"/>
			<line class="st3" x1="78.1" y1="-72.1" x2="156.1" y2="-150.1"/>
			<line class="st3" x1="84.1" y1="-72.1" x2="156.1" y2="-144.1"/>
			<line class="st3" x1="90.1" y1="-72.1" x2="156.1" y2="-138.1"/>
			<line class="st3" x1="96.1" y1="-72.1" x2="156.1" y2="-132.1"/>
			<line class="st3" x1="102.1" y1="-72.1" x2="156.1" y2="-126.1"/>
			<line class="st3" x1="108.1" y1="-72.1" x2="156.1" y2="-120.1"/>
			<line class="st3" x1="114.1" y1="-72.1" x2="156.1" y2="-114.1"/>
			<line class="st3" x1="120.1" y1="-72.1" x2="156.1" y2="-108.1"/>
			<line class="st3" x1="126.1" y1="-72.1" x2="156.1" y2="-102.1"/>
			<line class="st3" x1="132.1" y1="-72.1" x2="156.1" y2="-96.1"/>
			<line class="st3" x1="138.1" y1="-72.1" x2="156.1" y2="-90.1"/>
			<line class="st3" x1="144.1" y1="-72.1" x2="156.1" y2="-84.1"/>
		</g>
		<g>
			<line class="st3" x1="0.1" y1="-72.1" x2="84.1" y2="-156.1"/>
			<line class="st3" x1="6.1" y1="-72.1" x2="84.1" y2="-150.1"/>
			<line class="st3" x1="12.1" y1="-72.1" x2="84.1" y2="-144.1"/>
			<line class="st3" x1="18.1" y1="-72.1" x2="84.1" y2="-138.1"/>
			<line class="st3" x1="24.1" y1="-72.1" x2="84.1" y2="-132.1"/>
			<line class="st3" x1="30.1" y1="-72.1" x2="84.1" y2="-126.1"/>
			<line class="st3" x1="36.1" y1="-72.1" x2="84.1" y2="-120.1"/>
			<line class="st3" x1="42.1" y1="-72.1" x2="84.1" y2="-114.1"/>
			<line class="st3" x1="48.1" y1="-72.1" x2="84.1" y2="-108.1"/>
			<line class="st3" x1="54.1" y1="-72.1" x2="84.1" y2="-102.1"/>
			<line class="st3" x1="60.1" y1="-72.1" x2="84.1" y2="-96.1"/>
			<line class="st3" x1="66.1" y1="-72.1" x2="84.1" y2="-90.1"/>
			<line class="st3" x1="72.1" y1="-72.1" x2="84.1" y2="-84.1"/>
		</g>
		<g>
			<line class="st3" x1="144.1" y1="-144.1" x2="228.1" y2="-228.1"/>
			<line class="st3" x1="150.1" y1="-144.1" x2="228.1" y2="-222.1"/>
		</g>
		<g>
			<line class="st3" x1="72.1" y1="-144.1" x2="156.1" y2="-228.1"/>
			<line class="st3" x1="78.1" y1="-144.1" x2="156.1" y2="-222.1"/>
			<line class="st3" x1="84.1" y1="-144.1" x2="156.1" y2="-216.1"/>
			<line class="st3" x1="90.1" y1="-144.1" x2="156.1" y2="-210.1"/>
			<line class="st3" x1="96.1" y1="-144.1" x2="156.1" y2="-204.1"/>
			<line class="st3" x1="102.1" y1="-144.1" x2="156.1" y2="-198.1"/>
			<line class="st3" x1="108.1" y1="-144.1" x2="156.1" y2="-192.1"/>
			<line class="st3" x1="114.1" y1="-144.1" x2="156.1" y2="-186.1"/>
			<line class="st3" x1="120.1" y1="-144.1" x2="156.1" y2="-180.1"/>
			<line class="st3" x1="126.1" y1="-144.1" x2="156.1" y2="-174.1"/>
			<line class="st3" x1="132.1" y1="-144.1" x2="156.1" y2="-168.1"/>
			<line class="st3" x1="138.1" y1="-144.1" x2="156.1" y2="-162.1"/>
			<line class="st3" x1="144.1" y1="-144.1" x2="156.1" y2="-156.1"/>
		</g>
		<g>
			<line class="st3" x1="0.1" y1="-144.1" x2="84.1" y2="-228.1"/>
			<line class="st3" x1="6.1" y1="-144.1" x2="84.1" y2="-222.1"/>
			<line class="st3" x1="12.1" y1="-144.1" x2="84.1" y2="-216.1"/>
			<line class="st3" x1="18.1" y1="-144.1" x2="84.1" y2="-210.1"/>
			<line class="st3" x1="24.1" y1="-144.1" x2="84.1" y2="-204.1"/>
			<line class="st3" x1="30.1" y1="-144.1" x2="84.1" y2="-198.1"/>
			<line class="st3" x1="36.1" y1="-144.1" x2="84.1" y2="-192.1"/>
			<line class="st3" x1="42.1" y1="-144.1" x2="84.1" y2="-186.1"/>
			<line class="st3" x1="48.1" y1="-144.1" x2="84.1" y2="-180.1"/>
			<line class="st3" x1="54.1" y1="-144.1" x2="84.1" y2="-174.1"/>
			<line class="st3" x1="60.1" y1="-144.1" x2="84.1" y2="-168.1"/>
			<line class="st3" x1="66.1" y1="-144.1" x2="84.1" y2="-162.1"/>
			<line class="st3" x1="72.1" y1="-144.1" x2="84.1" y2="-156.1"/>
		</g>
	</g>
</pattern>
<pattern  x="-1.5" y="-150" width="37.3" height="32.5" patternUnits="userSpaceOnUse" id="New_Pattern_Swatch_4" viewBox="0 -32.5 37.3 32.5" style="overflow:visible;">
	<g>
		<rect id="XMLID_236_" x="0" y="-32.5" class="st0" width="37.3" height="32.5"/>
		<g id="XMLID_228_">
			<path id="XMLID_235_" class="st1" d="M32.7-15.3c-1.1,0-1.6-0.5-2.2-1.1c-0.6-0.6-1.2-1.2-2.5-1.2c-1.3,0-1.9,0.6-2.5,1.2
				c-0.6,0.5-1.1,1.1-2.2,1.1c-1.1,0-1.6-0.5-2.2-1.1c-0.6-0.6-1.2-1.2-2.5-1.2c-1.3,0-1.9,0.6-2.5,1.2c-0.6,0.5-1.1,1.1-2.2,1.1
				c-1.1,0-1.6-0.5-2.2-1.1c-0.6-0.6-1.2-1.2-2.5-1.2c-1.3,0-1.9,0.6-2.5,1.2c-0.6,0.5-1.1,1.1-2.2,1.1c-1.1,0-1.6-0.5-2.2-1.1
				c-0.6-0.6-1.2-1.2-2.5-1.2c0,0,0,0,0,0v0.5c0,0,0,0,0,0c1.1,0,1.6,0.5,2.2,1.1c0.6,0.6,1.2,1.2,2.5,1.2c1.3,0,1.9-0.6,2.5-1.2
				C7.7-16.5,8.3-17,9.3-17s1.6,0.5,2.2,1.1c0.6,0.6,1.2,1.2,2.5,1.2c1.3,0,1.9-0.6,2.5-1.2c0.6-0.5,1.1-1.1,2.2-1.1
				c1.1,0,1.6,0.5,2.2,1.1c0.6,0.6,1.2,1.2,2.5,1.2c1.3,0,1.9-0.6,2.5-1.2c0.6-0.5,1.1-1.1,2.2-1.1c1.1,0,1.6,0.5,2.2,1.1
				c0.6,0.6,1.2,1.2,2.5,1.2c1.3,0,1.9-0.6,2.5-1.2c0.6-0.5,1.1-1.1,2.2-1.1v-0.5c-1.3,0-1.9,0.6-2.5,1.2
				C34.3-15.8,33.7-15.3,32.7-15.3z"/>
			<path id="XMLID_234_" class="st1" d="M32.7-24.4c-1.1,0-1.6-0.5-2.2-1.1c-0.6-0.6-1.2-1.2-2.5-1.2c-1.3,0-1.9,0.6-2.5,1.2
				c-0.6,0.5-1.1,1.1-2.2,1.1c-1.1,0-1.6-0.5-2.2-1.1c-0.6-0.6-1.2-1.2-2.5-1.2c-1.3,0-1.9,0.6-2.5,1.2c-0.6,0.5-1.1,1.1-2.2,1.1
				c-1.1,0-1.6-0.5-2.2-1.1c-0.6-0.6-1.2-1.2-2.5-1.2c-1.3,0-1.9,0.6-2.5,1.2c-0.6,0.5-1.1,1.1-2.2,1.1c-1.1,0-1.6-0.5-2.2-1.1
				C1.9-26,1.3-26.6,0-26.6c0,0,0,0,0,0v0.5c0,0,0,0,0,0c1.1,0,1.6,0.5,2.2,1.1c0.6,0.6,1.2,1.2,2.5,1.2c1.3,0,1.9-0.6,2.5-1.2
				c0.6-0.5,1.1-1.1,2.2-1.1s1.6,0.5,2.2,1.1c0.6,0.6,1.2,1.2,2.5,1.2c1.3,0,1.9-0.6,2.5-1.2c0.6-0.5,1.1-1.1,2.2-1.1
				c1.1,0,1.6,0.5,2.2,1.1c0.6,0.6,1.2,1.2,2.5,1.2c1.3,0,1.9-0.6,2.5-1.2c0.6-0.5,1.1-1.1,2.2-1.1c1.1,0,1.6,0.5,2.2,1.1
				c0.6,0.6,1.2,1.2,2.5,1.2c1.3,0,1.9-0.6,2.5-1.2c0.6-0.5,1.1-1.1,2.2-1.1v-0.5c-1.3,0-1.9,0.6-2.5,1.2
				C34.3-24.9,33.7-24.4,32.7-24.4z"/>
			<path id="XMLID_233_" class="st1" d="M32.7-10.7c-1.1,0-1.6-0.5-2.2-1.1C29.9-12.3,29.3-13,28-13c-1.3,0-1.9,0.6-2.5,1.2
				c-0.6,0.5-1.1,1.1-2.2,1.1c-1.1,0-1.6-0.5-2.2-1.1c-0.6-0.6-1.2-1.2-2.5-1.2c-1.3,0-1.9,0.6-2.5,1.2c-0.6,0.5-1.1,1.1-2.2,1.1
				c-1.1,0-1.6-0.5-2.2-1.1c-0.6-0.6-1.2-1.2-2.5-1.2c-1.3,0-1.9,0.6-2.5,1.2c-0.6,0.5-1.1,1.1-2.2,1.1c-1.1,0-1.6-0.5-2.2-1.1
				C1.9-12.3,1.3-13,0-13c0,0,0,0,0,0v0.5c0,0,0,0,0,0c1.1,0,1.6,0.5,2.2,1.1c0.6,0.6,1.2,1.2,2.5,1.2c1.3,0,1.9-0.6,2.5-1.2
				c0.6-0.5,1.1-1.1,2.2-1.1s1.6,0.5,2.2,1.1c0.6,0.6,1.2,1.2,2.5,1.2c1.3,0,1.9-0.6,2.5-1.2c0.6-0.5,1.1-1.1,2.2-1.1
				c1.1,0,1.6,0.5,2.2,1.1c0.6,0.6,1.2,1.2,2.5,1.2c1.3,0,1.9-0.6,2.5-1.2c0.6-0.5,1.1-1.1,2.2-1.1c1.1,0,1.6,0.5,2.2,1.1
				c0.6,0.6,1.2,1.2,2.5,1.2c1.3,0,1.9-0.6,2.5-1.2c0.6-0.5,1.1-1.1,2.2-1.1V-13c-1.3,0-1.9,0.6-2.5,1.2
				C34.3-11.2,33.7-10.7,32.7-10.7z"/>
			<path id="XMLID_232_" class="st1" d="M32.7-19.8c-1.1,0-1.6-0.5-2.2-1.1c-0.6-0.6-1.2-1.2-2.5-1.2c-1.3,0-1.9,0.6-2.5,1.2
				c-0.6,0.5-1.1,1.1-2.2,1.1c-1.1,0-1.6-0.5-2.2-1.1c-0.6-0.6-1.2-1.2-2.5-1.2c-1.3,0-1.9,0.6-2.5,1.2c-0.6,0.5-1.1,1.1-2.2,1.1
				c-1.1,0-1.6-0.5-2.2-1.1c-0.6-0.6-1.2-1.2-2.5-1.2c-1.3,0-1.9,0.6-2.5,1.2c-0.6,0.5-1.1,1.1-2.2,1.1c-1.1,0-1.6-0.5-2.2-1.1
				c-0.6-0.6-1.2-1.2-2.5-1.2c0,0,0,0,0,0v0.5c0,0,0,0,0,0c1.1,0,1.6,0.5,2.2,1.1c0.6,0.6,1.2,1.2,2.5,1.2c1.3,0,1.9-0.6,2.5-1.2
				c0.6-0.5,1.1-1.1,2.2-1.1s1.6,0.5,2.2,1.1c0.6,0.6,1.2,1.2,2.5,1.2c1.3,0,1.9-0.6,2.5-1.2c0.6-0.5,1.1-1.1,2.2-1.1
				c1.1,0,1.6,0.5,2.2,1.1c0.6,0.6,1.2,1.2,2.5,1.2c1.3,0,1.9-0.6,2.5-1.2c0.6-0.5,1.1-1.1,2.2-1.1c1.1,0,1.6,0.5,2.2,1.1
				c0.6,0.6,1.2,1.2,2.5,1.2c1.3,0,1.9-0.6,2.5-1.2c0.6-0.5,1.1-1.1,2.2-1.1v-0.5c-1.3,0-1.9,0.6-2.5,1.2
				C34.3-20.3,33.7-19.8,32.7-19.8z"/>
			<path id="XMLID_231_" class="st1" d="M2.2-6.9c0.6,0.6,1.2,1.2,2.5,1.2c1.3,0,1.9-0.6,2.5-1.2c0.6-0.5,1.1-1.1,2.2-1.1
				s1.6,0.5,2.2,1.1c0.6,0.6,1.2,1.2,2.5,1.2c1.3,0,1.9-0.6,2.5-1.2c0.6-0.5,1.1-1.1,2.2-1.1c1.1,0,1.6,0.5,2.2,1.1
				c0.6,0.6,1.2,1.2,2.5,1.2c1.3,0,1.9-0.6,2.5-1.2c0.6-0.5,1.1-1.1,2.2-1.1c1.1,0,1.6,0.5,2.2,1.1c0.6,0.6,1.2,1.2,2.5,1.2
				c1.3,0,1.9-0.6,2.5-1.2c0.6-0.5,1.1-1.1,2.2-1.1v-0.5c-1.3,0-1.9,0.6-2.5,1.2c-0.6,0.5-1.1,1.1-2.2,1.1c-1.1,0-1.6-0.5-2.2-1.1
				c-0.6-0.6-1.2-1.2-2.5-1.2c-1.3,0-1.9,0.6-2.5,1.2c-0.6,0.5-1.1,1.1-2.2,1.1c-1.1,0-1.6-0.5-2.2-1.1c-0.6-0.6-1.2-1.2-2.5-1.2
				c-1.3,0-1.9,0.6-2.5,1.2c-0.6,0.5-1.1,1.1-2.2,1.1c-1.1,0-1.6-0.5-2.2-1.1c-0.6-0.6-1.2-1.2-2.5-1.2c-1.3,0-1.9,0.6-2.5,1.2
				C6.3-6.7,5.7-6.2,4.7-6.2c-1.1,0-1.6-0.5-2.2-1.1C1.9-7.8,1.3-8.4,0-8.4c0,0,0,0,0,0v0.5c0,0,0,0,0,0C1.1-7.9,1.6-7.4,2.2-6.9z"
				/>
			<path id="XMLID_230_" class="st1" d="M34.8-2.7c-0.6,0.5-1.1,1.1-2.2,1.1c-1.1,0-1.6-0.5-2.2-1.1c-0.6-0.6-1.2-1.2-2.5-1.2
				c-1.3,0-1.9,0.6-2.5,1.2c-0.6,0.5-1.1,1.1-2.2,1.1c-1.1,0-1.6-0.5-2.2-1.1c-0.6-0.6-1.2-1.2-2.5-1.2c-1.3,0-1.9,0.6-2.5,1.2
				c-0.6,0.5-1.1,1.1-2.2,1.1c-1.1,0-1.6-0.5-2.2-1.1c-0.6-0.6-1.2-1.2-2.5-1.2c-1.3,0-1.9,0.6-2.5,1.2C6.3-2.1,5.7-1.6,4.7-1.6
				c-1.1,0-1.6-0.5-2.2-1.1C1.9-3.2,1.3-3.9,0-3.9c0,0,0,0,0,0v0.5c0,0,0,0,0,0c1.1,0,1.6,0.5,2.2,1.1c0.6,0.6,1.2,1.2,2.5,1.2
				c1.3,0,1.9-0.6,2.5-1.2c0.6-0.5,1.1-1.1,2.2-1.1s1.6,0.5,2.2,1.1c0.6,0.6,1.2,1.2,2.5,1.2c1.3,0,1.9-0.6,2.5-1.2
				c0.6-0.5,1.1-1.1,2.2-1.1c1.1,0,1.6,0.5,2.2,1.1c0.6,0.6,1.2,1.2,2.5,1.2c1.3,0,1.9-0.6,2.5-1.2c0.6-0.5,1.1-1.1,2.2-1.1
				c1.1,0,1.6,0.5,2.2,1.1c0.6,0.6,1.2,1.2,2.5,1.2c1.3,0,1.9-0.6,2.5-1.2c0.6-0.5,1.1-1.1,2.2-1.1v-0.5C36.1-3.9,35.4-3.2,34.8-2.7
				z"/>
			<path id="XMLID_229_" class="st1" d="M0-30.7c1.1,0,1.6,0.5,2.2,1.1c0.6,0.6,1.2,1.2,2.5,1.2c1.3,0,1.9-0.6,2.5-1.2
				c0.6-0.5,1.1-1.1,2.2-1.1s1.6,0.5,2.2,1.1c0.6,0.6,1.2,1.2,2.5,1.2c1.3,0,1.9-0.6,2.5-1.2c0.6-0.5,1.1-1.1,2.2-1.1
				c1.1,0,1.6,0.5,2.2,1.1c0.6,0.6,1.2,1.2,2.5,1.2c1.3,0,1.9-0.6,2.5-1.2c0.6-0.5,1.1-1.1,2.2-1.1c1.1,0,1.6,0.5,2.2,1.1
				c0.6,0.6,1.2,1.2,2.5,1.2c1.3,0,1.9-0.6,2.5-1.2c0.6-0.5,1.1-1.1,2.2-1.1v-0.5c-1.3,0-1.9,0.6-2.5,1.2c-0.6,0.5-1.1,1.1-2.2,1.1
				c-1.1,0-1.6-0.5-2.2-1.1c-0.6-0.6-1.2-1.2-2.5-1.2c-1.3,0-1.9,0.6-2.5,1.2c-0.6,0.5-1.1,1.1-2.2,1.1c-1.1,0-1.6-0.5-2.2-1.1
				c-0.6-0.6-1.2-1.2-2.5-1.2c-1.3,0-1.9,0.6-2.5,1.2c-0.6,0.5-1.1,1.1-2.2,1.1c-1.1,0-1.6-0.5-2.2-1.1c-0.6-0.6-1.2-1.2-2.5-1.2
				c-1.3,0-1.9,0.6-2.5,1.2c-0.6,0.5-1.1,1.1-2.2,1.1c-1.1,0-1.6-0.5-2.2-1.1c-0.6-0.6-1.2-1.2-2.5-1.2c0,0,0,0,0,0L0-30.7
				C0-30.7,0-30.7,0-30.7z"/>
		</g>
		<rect id="XMLID_227_" x="0" y="-32.5" class="st0" width="37.3" height="32.5"/>
	</g>
</pattern>
<g id="BACKGROUND" class="st4">
	<rect x="0" class="st5" width="500" height="500"/>
</g>
<g id="OBJECTS">
	<g>
		<g class="st4">
			<g class="st6">
				<radialGradient id="SVGID_1_" cx="423.156" cy="181.7596" r="40.893" gradientUnits="userSpaceOnUse">
					<stop  offset="0" style="stop-color:#D4D2D8"/>
					<stop  offset="3.305880e-02" style="stop-color:#CAC8D0"/>
					<stop  offset="1" style="stop-color:#FFFFFF"/>
				</radialGradient>
				<circle class="st7" cx="423.2" cy="181.8" r="40.9"/>
			</g>
			<g class="st6">
				<radialGradient id="SVGID_2_" cx="325.2087" cy="109.1173" r="33.6176" gradientUnits="userSpaceOnUse">
					<stop  offset="0" style="stop-color:#D4D2D8"/>
					<stop  offset="3.305880e-02" style="stop-color:#CAC8D0"/>
					<stop  offset="1" style="stop-color:#FFFFFF"/>
				</radialGradient>
				<circle class="st8" cx="325.2" cy="109.1" r="33.6"/>
			</g>
			<g class="st6">
				<radialGradient id="SVGID_3_" cx="325.2088" cy="176.347" r="46.3058" gradientUnits="userSpaceOnUse">
					<stop  offset="0" style="stop-color:#D4D2D8"/>
					<stop  offset="3.305880e-02" style="stop-color:#CAC8D0"/>
					<stop  offset="1" style="stop-color:#FFFFFF"/>
				</radialGradient>
				<circle class="st9" cx="325.2" cy="176.3" r="46.3"/>
			</g>
			<g class="st6">
				<radialGradient id="SVGID_4_" cx="391.7444" cy="104.6008" r="46.3057" gradientUnits="userSpaceOnUse">
					<stop  offset="0" style="stop-color:#D4D2D8"/>
					<stop  offset="3.305880e-02" style="stop-color:#CAC8D0"/>
					<stop  offset="1" style="stop-color:#FFFFFF"/>
				</radialGradient>
				<circle class="st10" cx="391.7" cy="104.6" r="46.3"/>
			</g>
		</g>
		<g>
			<radialGradient id="SVGID_5_" cx="395.1369" cy="165.5797" r="74.7276" gradientUnits="userSpaceOnUse">
				<stop  offset="0" style="stop-color:#FEB19B"/>
				<stop  offset="0.5098" style="stop-color:#FD6585"/>
				<stop  offset="1" style="stop-color:#EE2B75"/>
			</radialGradient>
			<path class="st11" d="M387.3,195.6c-9.9,0-18.9-5-24-13.5c-8.1-13.2-3.9-30.6,9.4-38.7c4-2.4,8.6-3.8,13.2-4.1
				c13.5-0.9,15-6.3,14.7-12l-0.1-2l0.2,0.1c0.4-3.7,2.5-7.1,5.7-9.1c1.9-1.2,4.1-1.8,6.3-1.8c4.3,0,8.1,2.2,10.3,5.8
				c0.2,0.3,0.3,0.6,0.5,0.8l0.1,0l0.5,1.2c1.2,3.1,1.9,4.9,11.6,5.6l3,0.2l-0.2,0.1c9.1,1.6,17.2,7,22.1,14.9
				c9.2,15.1,4.4,34.9-10.7,44.2c-5,3.1-10.8,4.7-16.7,4.7c0,0,0,0,0,0c-3.4,0-6.7-0.5-10-1.6l0,0l-1.6-0.6
				c-4.1-1.6-7.1-2.5-9.7-2.5c-2.9,0-5.2,1.2-9.8,4C397.5,194.2,392.4,195.6,387.3,195.6z"/>
			<path class="st12" d="M412.6,115.6c3.7,0,7.4,1.9,9.5,5.3c0.4,0.6,0.6,1.2,0.9,1.8l0,0c1.3,3.4,2.2,5.5,12.5,6.3l0,0
				c9.6,0.8,18.7,6,24.1,14.8c8.9,14.7,4.3,33.8-10.4,42.8c-5.1,3.1-10.6,4.5-16.2,4.5c-3.8,0-7.6-0.7-11.1-2.1l0,0
				c-4.5-1.7-7.4-2.6-10-2.6c-3.2,0-5.8,1.4-10.3,4.1l0,0c0,0,0,0-0.1,0c-4.4,2.7-9.3,4-14.1,4c-9.1,0-18.1-4.6-23.2-13
				c-7.8-12.8-3.8-29.5,9-37.3c4-2.4,8.4-3.7,12.8-3.9c14.3-0.9,16-7.2,15.6-13.1l0,0c-0.2-4,1.7-7.9,5.3-10.1
				C408.6,116.1,410.6,115.6,412.6,115.6 M412.6,113.6L412.6,113.6c-2.4,0-4.7,0.7-6.8,1.9c-3.1,1.9-5.2,5-6,8.4l-0.5-0.3l0.2,3.8
				c0.3,4.8-0.5,10.1-13.8,11c-4.8,0.2-9.5,1.7-13.7,4.2c-6.6,4.1-11.3,10.4-13.1,18c-1.8,7.6-0.6,15.4,3.4,22
				c5.3,8.7,14.6,14,24.9,14c4.4,0,8.7-1,12.6-2.9l0,0.2l2.5-1.5l0,0l0,0l0,0c4.4-2.7,6.7-3.8,9.3-3.8c2.4,0,5.3,0.9,9.3,2.5
				l3.3,1.2l0-0.2c2.8,0.8,5.7,1.1,8.6,1.1c6.1,0,12-1.7,17.2-4.8c7.6-4.6,12.9-11.9,15-20.5c2.1-8.6,0.7-17.5-3.9-25.1
				c-4.5-7.4-11.9-12.8-20.2-14.9l0.7-0.4l-6.1-0.5c-9.1-0.7-9.7-2.2-10.7-5l-0.9-2.2l-0.2,0.1c0,0,0,0,0,0
				C421.3,115.9,417.2,113.6,412.6,113.6L412.6,113.6z"/>
		</g>
		<g>
			<radialGradient id="SVGID_6_" cx="349.0497" cy="138.4522" r="86.6639" gradientUnits="userSpaceOnUse">
				<stop  offset="0" style="stop-color:#FEB19B"/>
				<stop  offset="0.5098" style="stop-color:#FD6585"/>
				<stop  offset="1" style="stop-color:#CD3176"/>
			</radialGradient>
			<path class="st13" d="M341.4,229.1c-20.2,0-36.7-16.5-36.7-36.7c0-1.5,0.1-3,0.3-4.5l-0.1,0l0.4-2.1c2.2-12.2,0-16.6-11.6-22.2
				c-13.6-6.5-22.3-20.3-22.3-35.4c0-21.6,17.6-39.2,39.2-39.2c6.4,0,12.7,1.6,18.3,4.6c11.3,5.9,20.8,8.8,29.1,8.8c0,0,0,0,0,0
				c14.1,0,24.6-8.2,34.3-26.4c5.2-9.9,15.4-16,26.6-16c16.6,0,30,13.5,30,30c0,12.1-7.2,23-18.4,27.7c-23.9,10.5-31,27.6-20.9,50.8
				l0.9,2.1l-0.1,0c0.9,2.6,1.3,5.2,1.3,8c0,13-9.8,23.6-22.6,24.8l0,0l-1.3,0.1c-7.8,0.4-9.7,0.4-16.7,10.2l-1.2,1.7l0-0.1
				C363.1,224,352.5,229.1,341.4,229.1z"/>
			<path class="st12" d="M418.9,61.1c16,0,29,13,29,29c0,12-7.3,22.4-17.7,26.8c-26.4,11.6-30.9,30.3-21.4,52.1l0,0
				c1.3,2.9,2,6.2,2,9.6c0,12.9-10.2,23.4-22.9,23.9l0,0c-8.2,0.4-10.3,0.7-17.5,10.7l0,0c-6.5,9-17.1,14.9-29,14.9
				c-19.7,0-35.7-16-35.7-35.7c0-2.2,0.2-4.3,0.6-6.4l0,0c2.3-12.5,0-17.4-12.1-23.3c-12.9-6.1-21.8-19.3-21.8-34.5
				c0-21.1,17.1-38.2,38.2-38.2c6.5,0,12.5,1.6,17.9,4.4c11.6,6.1,21.3,9,29.6,9c15.7,0,26.3-10.2,35.2-27
				C398.1,67.3,407.7,61.1,418.9,61.1 M418.9,59.1c-11.5,0-22,6.3-27.4,16.5c-9.5,17.9-19.8,25.9-33.4,25.9
				c-8.2,0-17.5-2.9-28.7-8.7c-5.8-3.1-12.3-4.7-18.8-4.7c-22.1,0-40.2,18-40.2,40.2c0,15.4,9,29.6,22.9,36.3
				c11.1,5.4,13.1,9.4,11,21.1l-0.7,3.8l0.2-0.1c-0.1,1-0.1,2-0.1,3c0,20.8,16.9,37.7,37.7,37.7c10.8,0,21.1-4.7,28.2-12.7l0.1,0.2
				l2.4-3.3c6.7-9.4,8.3-9.5,15.9-9.8l2.6-0.1l0-0.1c12.7-1.8,22.3-12.6,22.3-25.7c0-2.1-0.3-4.2-0.8-6.3l0.5,0.2l-1.9-4.3
				c-4.7-10.9-5.7-20.4-2.7-28.4c3.2-8.6,10.9-15.7,23.1-21.1c11.5-4.9,18.9-16.1,18.9-28.6C449.9,73,436,59.1,418.9,59.1
				L418.9,59.1z"/>
		</g>
		<radialGradient id="SVGID_7_" cx="395.4543" cy="165.3213" r="73.2621" gradientUnits="userSpaceOnUse">
			<stop  offset="0" style="stop-color:#FEB19B"/>
			<stop  offset="0.5098" style="stop-color:#FD6585"/>
			<stop  offset="1" style="stop-color:#CD3176"/>
		</radialGradient>
		<path class="st14" d="M435.4,129L435.4,129c-10.3-0.8-11.1-2.9-12.5-6.3l0,0c-0.2-0.6-0.5-1.2-0.9-1.8c-3.2-5.2-10-6.9-15.2-3.7
			c-3.6,2.2-5.5,6.2-5.3,10.1l0,0c0.4,5.9-1.3,12.1-15.6,13.1c-4.4,0.2-8.8,1.5-12.8,3.9c-12.8,7.8-16.8,24.5-9,37.3
			c7.8,12.8,24.5,16.8,37.3,9c0,0,0,0,0.1,0l0,0c8.1-5,10.2-5.4,20.3-1.5l0,0c8.7,3.3,18.8,2.7,27.3-2.5
			c14.7-8.9,19.3-28.1,10.4-42.8C454.1,135,445,129.8,435.4,129z"/>
		<pattern  id="SVGID_8_" xlink:href="#_x31_0_dpi_20_x25_" patternTransform="matrix(1.1347 0 0 1.1347 963.9047 930.9227)">
		</pattern>
		<rect x="287.6" y="150.9" class="st15" width="42.3" height="41.1"/>
		<pattern  id="SVGID_9_" xlink:href="#Diagonal_Lines" patternTransform="matrix(1.1347 0 0 1.1347 839.0154 881.4802)">
		</pattern>
		<rect x="423.2" y="138" class="st16" width="41.4" height="61.6"/>
		<pattern  id="SVGID_10_" xlink:href="#New_Pattern_Swatch_4" patternTransform="matrix(1.1347 0 0 1.1347 967.587 918.159)">
		</pattern>
		<polygon class="st17" points="358,87 358,112.8 329.9,112.8 329.9,87 		"/>
		<g>
			<path class="st12" d="M329.9,217c-2.6,0-4.8-2.2-4.8-4.8c0-2.6,2.2-4.8,4.8-4.8c2.6,0,4.8,2.2,4.8,4.8
				C334.7,214.8,332.5,217,329.9,217z M329.9,209.4c-1.5,0-2.8,1.3-2.8,2.8c0,1.5,1.3,2.8,2.8,2.8c1.5,0,2.8-1.3,2.8-2.8
				C332.7,210.6,331.4,209.4,329.9,209.4z"/>
		</g>
		<g>
			<path class="st12" d="M440.1,86.9c-2.6,0-4.8-2.2-4.8-4.8c0-2.6,2.2-4.8,4.8-4.8c2.6,0,4.8,2.2,4.8,4.8
				C444.8,84.8,442.7,86.9,440.1,86.9z M440.1,79.3c-1.5,0-2.8,1.3-2.8,2.8c0,1.5,1.3,2.8,2.8,2.8c1.5,0,2.8-1.3,2.8-2.8
				C442.8,80.6,441.6,79.3,440.1,79.3z"/>
		</g>
		<radialGradient id="SVGID_11_" cx="326.097" cy="198.4388" r="13.2192" gradientUnits="userSpaceOnUse">
			<stop  offset="0" style="stop-color:#FEB19B"/>
			<stop  offset="0.5098" style="stop-color:#FD6585"/>
			<stop  offset="1" style="stop-color:#CD3176"/>
		</radialGradient>
		<circle class="st18" cx="328.9" cy="196.1" r="8.9"/>
		<radialGradient id="SVGID_12_" cx="421.9088" cy="73.1279" r="4.9866" gradientUnits="userSpaceOnUse">
			<stop  offset="0" style="stop-color:#FEB19B"/>
			<stop  offset="0.5098" style="stop-color:#FD6585"/>
			<stop  offset="1" style="stop-color:#CD3176"/>
		</radialGradient>
		<path class="st19" d="M419.6,72.3c0,1.9,1.5,3.4,3.4,3.4c1.9,0,3.4-1.5,3.4-3.4s-1.5-3.4-3.4-3.4
			C421.1,68.9,419.6,70.4,419.6,72.3z"/>
		<radialGradient id="SVGID_13_" cx="364.6186" cy="205.8968" r="4.9866" gradientUnits="userSpaceOnUse">
			<stop  offset="0" style="stop-color:#FEB19B"/>
			<stop  offset="0.5098" style="stop-color:#FD6585"/>
			<stop  offset="1" style="stop-color:#CD3176"/>
		</radialGradient>
		<path class="st20" d="M362.3,205c0,1.9,1.5,3.4,3.4,3.4c1.9,0,3.4-1.5,3.4-3.4s-1.5-3.4-3.4-3.4
			C363.8,201.7,362.3,203.2,362.3,205z"/>
		<radialGradient id="SVGID_14_" cx="414.101" cy="100.7381" r="13.7818" gradientUnits="userSpaceOnUse">
			<stop  offset="0" style="stop-color:#FEB19B"/>
			<stop  offset="0.5098" style="stop-color:#FD6585"/>
			<stop  offset="1" style="stop-color:#CD3176"/>
		</radialGradient>
		<circle class="st21" cx="417.1" cy="98.3" r="9.3"/>
		<g>
			<path class="st12" d="M299,111.9h-7.9l-3.9-6.8l3.9-6.8h7.9l3.9,6.8L299,111.9z M292.3,109.9h5.6l2.8-4.8l-2.8-4.8h-5.6l-2.8,4.8
				L292.3,109.9z"/>
		</g>
		<g>
			<path class="st12" d="M361.7,229.1h-7.9l-3.9-6.8l3.9-6.8h7.9l3.9,6.8L361.7,229.1z M355,227.1h5.6l2.8-4.8l-2.8-4.8H355
				l-2.8,4.8L355,227.1z"/>
		</g>
		<g>
			<path class="st12" d="M401,97h-14.7l7.3-12.7L401,97z M389.8,95h7.8l-3.9-6.7L389.8,95z"/>
		</g>
		<g>
			<path class="st1" d="M351,183.2l-7.3-12.7h14.7L351,183.2z M347.2,172.5l3.9,6.7l3.9-6.7H347.2z"/>
		</g>
	</g>
	<g>
		<g class="st4">
			<g class="st6">
				<radialGradient id="SVGID_15_" cx="199.8445" cy="157.5885" r="40.893" gradientUnits="userSpaceOnUse">
					<stop  offset="0" style="stop-color:#D4D2D8"/>
					<stop  offset="3.305880e-02" style="stop-color:#CAC8D0"/>
					<stop  offset="1" style="stop-color:#FFFFFF"/>
				</radialGradient>
				<circle class="st22" cx="199.8" cy="157.6" r="40.9"/>
			</g>
			<g class="st6">
				<radialGradient id="SVGID_16_" cx="92.4159" cy="102.5264" r="33.6175" gradientUnits="userSpaceOnUse">
					<stop  offset="0" style="stop-color:#D4D2D8"/>
					<stop  offset="3.305880e-02" style="stop-color:#CAC8D0"/>
					<stop  offset="1" style="stop-color:#FFFFFF"/>
				</radialGradient>
				<circle class="st23" cx="92.4" cy="102.5" r="33.6"/>
			</g>
			<g class="st6">
				<radialGradient id="SVGID_17_" cx="92.4159" cy="169.7561" r="46.3057" gradientUnits="userSpaceOnUse">
					<stop  offset="0" style="stop-color:#D4D2D8"/>
					<stop  offset="3.305880e-02" style="stop-color:#CAC8D0"/>
					<stop  offset="1" style="stop-color:#FFFFFF"/>
				</radialGradient>
				<circle class="st24" cx="92.4" cy="169.8" r="46.3"/>
			</g>
			<g class="st6">
				<radialGradient id="SVGID_18_" cx="158.9516" cy="98.0099" r="46.3057" gradientUnits="userSpaceOnUse">
					<stop  offset="0" style="stop-color:#D4D2D8"/>
					<stop  offset="3.305880e-02" style="stop-color:#CAC8D0"/>
					<stop  offset="1" style="stop-color:#FFFFFF"/>
				</radialGradient>
				<circle class="st25" cx="159" cy="98" r="46.3"/>
			</g>
		</g>
		<g>
			<radialGradient id="SVGID_19_" cx="146.6023" cy="179.028" r="77.2333" gradientUnits="userSpaceOnUse">
				<stop  offset="0" style="stop-color:#65FDF0"/>
				<stop  offset="1" style="stop-color:#1D6FA3"/>
			</radialGradient>
			<path class="st26" d="M140.1,214.6c1.6,0,3.1-0.1,4.6-0.3l0,0c12.6-1.6,14.9,0.3,19.6,6.9l0,0c4.1,5.7,10.8,9.5,18.3,9.5
				c12.4,0,22.5-10.1,22.5-22.5c0-2.6-0.4-5-1.2-7.3l0,0c-3.3-9.6-0.4-13.8,6.4-16.1l0,0c6.3-2.2,10.9-8.2,10.9-15.3
				c0-8.9-7.2-16.1-16.1-16.1c-4.5,0-8.5,1.8-11.4,4.7l0,0c-6.4,6.4-14.6,10.2-28.7-3.8l0,0c-6.4-6.4-15.2-10.3-24.9-10.3
				c-19.5,0-35.3,15.8-35.3,35.3C104.8,198.7,120.6,214.6,140.1,214.6z"/>
			<g>
				<path class="st12" d="M140.1,143.9c9.7,0,18.5,3.9,24.9,10.3l0,0c7,7,12.6,9.6,17.2,9.6c4.6,0,8.3-2.6,11.5-5.8l0,0
					c2.9-2.9,7-4.7,11.4-4.7c8.9,0,16.1,7.2,16.1,16.1c0,7.1-4.6,13.1-10.9,15.3l0,0c-6.8,2.3-9.7,6.5-6.4,16.1l0,0
					c0.8,2.3,1.2,4.7,1.2,7.3c0,12.4-10.1,22.5-22.5,22.5c-7.6,0-14.3-3.7-18.3-9.5l0,0c-3.7-5.1-5.9-7.4-12.6-7.4
					c-1.9,0-4.2,0.2-7,0.6l0,0c-1.5,0.2-3,0.3-4.6,0.3c-19.5,0-35.3-15.8-35.3-35.3C104.8,159.7,120.6,143.9,140.1,143.9
					 M140.1,141.9c-20.6,0-37.3,16.7-37.3,37.3s16.7,37.3,37.3,37.3c0.2,0,0.4,0,0.6,0l-0.2,0.3l4.4-0.6c2.8-0.4,5-0.5,6.8-0.5
					c5.8,0,7.5,1.7,11,6.6l1.7,2.3l0.1-0.1c4.6,5.1,11.2,8.1,18.2,8.1c13.5,0,24.5-11,24.5-24.5c0-2.7-0.4-5.4-1.3-7.9
					c-3-8.8-0.4-11.7,5.2-13.6l4.1-1.4l-0.5-0.3c5.3-3.2,8.6-9.1,8.6-15.4c0-10-8.1-18.1-18.1-18.1c-3.6,0-7.1,1.1-10,3l-0.1-0.4
					l-2.7,2.7c-3.6,3.6-6.7,5.2-10,5.2c-4.5,0-9.8-3-15.8-9l-4.3-4.3l0.1,0.7C155.9,144.5,148.2,141.9,140.1,141.9L140.1,141.9z"/>
			</g>
		</g>
		<g>
			<radialGradient id="SVGID_20_" cx="134.4708" cy="130.6487" r="83.2952" gradientUnits="userSpaceOnUse">
				<stop  offset="0" style="stop-color:#50D3D9"/>
				<stop  offset="1" style="stop-color:#1D6FA3"/>
			</radialGradient>
			<path class="st27" d="M165.3,202c-12.9,0-25.5-4.2-35.9-12v0l-1.6-1.3c-10-8.1-15.2-10.8-20.7-10.8c-3.3,0-6.8,0.9-11.3,2.3
				l-0.1,0.1l-0.3,0l-1.2,0.3v0c-3.3,0.8-6.6,1.3-10,1.3c0,0,0,0,0,0c-17.6,0-33.3-11.8-38.2-28.7c-0.7-2.4-1.2-4.9-1.4-7.4
				c0-0.5-0.1-1.1-0.1-1.6c-0.1-1.3-0.1-2.5,0-3.8c0-0.6,0.1-1.1,0.1-1.7c0.1-1.4,0.3-2.8,0.6-4.1l0,0c0.1-0.6,0.2-1.2,0.4-1.9
				c0.3-1.4,0.8-2.9,1.3-4.3l0.1-0.2c0.2-0.6,0.5-1.3,0.8-1.9l0.1-0.2c0.7-1.7,1.6-3.4,2.6-5.1c0.6-0.9,1.1-1.7,1.6-2.5
				c1.8-2.5,4-4.9,6.3-6.9c4.3-3.7,9.3-6.4,14.8-8.1c0.1,0,0.3-0.1,0.4-0.1c1.5-0.4,3.1-0.8,4.8-1c18.8-2.9,20.1-11.8,18.7-21
				c-2-13.3,6.1-26.1,19-29.9c2.5-0.7,5-1.1,7.6-1.1c11.1,0,21.1,6.9,25.1,17.2h0l0.2,0.7c2.7,7.7,4.1,11.6,23.2,14.2
				c24,2.7,43.8,19.5,50.6,42.6c4.5,15.3,2.7,31.5-4.9,45.5c-7.7,14-20.3,24.2-35.6,28.7C176.6,201.2,170.9,202,165.3,202z"/>
			<path class="st12" d="M123.6,51.7c10.7,0,20.6,6.7,24.4,17.2h0c2.9,8.2,4.8,12.3,24,14.9c22.8,2.6,42.9,18.5,49.8,41.9
				c9.1,31.1-8.7,63.8-39.9,72.9c-5.5,1.6-11.1,2.4-16.5,2.4c-13.6,0-26.6-4.7-36.9-13v0c-10.1-8.2-15.5-11-21.3-11
				c-3.4,0-7,1-11.8,2.4v0c0,0,0,0,0,0c-3.6,1.1-7.3,1.6-10.9,1.6c-16.8,0-32.3-11-37.3-27.9c-0.7-2.4-1.2-4.8-1.4-7.2
				c0-0.5-0.1-1-0.1-1.5c-0.1-1.2-0.1-2.5,0-3.7v0c0-0.6,0.1-1.1,0.1-1.6c0.1-1.3,0.3-2.7,0.6-4v0c0.1-0.6,0.2-1.2,0.4-1.8
				c0.4-1.5,0.8-2.9,1.3-4.4v0c0.2-0.7,0.5-1.3,0.8-2v0c0.7-1.7,1.6-3.4,2.6-5c0.5-0.8,1-1.6,1.6-2.4c1.8-2.5,3.8-4.7,6.2-6.7
				c4.1-3.5,9-6.3,14.5-7.9c0.1,0,0.2-0.1,0.3-0.1c1.6-0.4,3.1-0.8,4.7-1C95.9,101,99.7,93.2,98,81.5c-2-12.6,5.7-25.1,18.3-28.8
				C118.7,52,121.2,51.7,123.6,51.7 M123.6,49.7c-2.6,0-5.3,0.4-7.9,1.1c-13.4,3.9-21.9,17.2-19.7,31c1.5,10-0.9,17.2-17.9,19.8
				c-1.6,0.2-3.3,0.6-4.9,1.1c-0.1,0-0.3,0.1-0.4,0.1c-5.7,1.7-10.8,4.4-15.2,8.3c-2.4,2.1-4.6,4.4-6.5,7.1
				c-0.5,0.7-1.1,1.6-1.7,2.5c-1.1,1.7-2,3.5-2.7,5.2l-0.2,0.4v0c-0.2,0.5-0.4,1-0.7,1.7l-0.1,0.3v0c-0.5,1.4-0.9,2.8-1.3,4.2
				c-0.2,0.6-0.3,1.3-0.4,1.9l0,0.1c-0.3,1.3-0.4,2.7-0.6,4.1c0,0.6-0.1,1.2-0.1,1.7l0,0v0c0,1.3,0,2.6,0,3.8c0,0.5,0.1,1,0.1,1.6
				c0.3,2.6,0.8,5.2,1.5,7.6c2.5,8.6,7.7,16,14.9,21.4c7,5.2,15.6,8,24.3,8c3,0,6-0.3,9-1v0.1l2.3-0.7H96l0.2-0.2
				c4.3-1.3,7.7-2.2,10.8-2.2c5.2,0,10.3,2.7,20.1,10.6l3.3,2.6v-0.2c10.2,7.1,22.4,11,34.9,11c5.8,0,11.5-0.8,17.1-2.5
				c15.6-4.6,28.4-14.9,36.2-29.1c7.8-14.2,9.6-30.7,5-46.2c-6.9-23.5-27.1-40.5-51.4-43.3c-18.4-2.5-19.6-6-22.3-13.6l-0.5-1.3
				h-0.1C145,56.6,134.9,49.7,123.6,49.7L123.6,49.7z"/>
		</g>
		<radialGradient id="SVGID_21_" cx="146.6023" cy="179.028" r="77.2333" gradientUnits="userSpaceOnUse">
			<stop  offset="0" style="stop-color:#65FDF0"/>
			<stop  offset="1" style="stop-color:#1D6FA3"/>
		</radialGradient>
		<path class="st28" d="M140.1,214.6c1.6,0,3.1-0.1,4.6-0.3l0,0c12.6-1.6,14.9,0.3,19.6,6.9l0,0c4.1,5.7,10.8,9.5,18.3,9.5
			c12.4,0,22.5-10.1,22.5-22.5c0-2.6-0.4-5-1.2-7.3l0,0c-3.3-9.6-0.4-13.8,6.4-16.1l0,0c6.3-2.2,10.9-8.2,10.9-15.3
			c0-8.9-7.2-16.1-16.1-16.1c-4.5,0-8.5,1.8-11.4,4.7l0,0c-6.4,6.4-14.6,10.2-28.7-3.8l0,0c-6.4-6.4-15.2-10.3-24.9-10.3
			c-19.5,0-35.3,15.8-35.3,35.3C104.8,198.7,120.6,214.6,140.1,214.6z"/>
		<pattern  id="SVGID_22_" xlink:href="#_x31_0_dpi_20_x25_" patternTransform="matrix(1.1347 0 0 1.1347 994.2932 930.9227)">
		</pattern>
		<rect x="187" y="109.1" class="st29" width="42.3" height="41.1"/>
		<pattern  id="SVGID_23_" xlink:href="#_x31_0_lpi_10_x25_" patternTransform="matrix(1.1347 0 0 1.1347 870.3924 871.1625)">
		</pattern>
		<rect x="44.2" y="87.1" class="st30" width="27.6" height="42.5"/>
		<pattern  id="SVGID_24_" xlink:href="#Diagonal_Lines" patternTransform="matrix(1.1347 0 0 1.1347 869.404 881.4802)">
		</pattern>
		<rect x="159" y="172.9" class="st31" width="52.9" height="51.4"/>
		<radialGradient id="SVGID_25_" cx="126.1797" cy="71.5835" r="8.6544" gradientUnits="userSpaceOnUse">
			<stop  offset="0" style="stop-color:#65FDF0"/>
			<stop  offset="1" style="stop-color:#1D6FA3"/>
		</radialGradient>
		<path class="st32" d="M133.6,72.7c0,3.2-2.6,5.8-5.8,5.8c-3.2,0-5.8-2.6-5.8-5.8s2.6-5.8,5.8-5.8C131,66.9,133.6,69.5,133.6,72.7z
			"/>
		<radialGradient id="SVGID_26_" cx="82.3265" cy="169.3846" r="6.6073" gradientUnits="userSpaceOnUse">
			<stop  offset="0" style="stop-color:#65FDF0"/>
			<stop  offset="1" style="stop-color:#1D6FA3"/>
		</radialGradient>
		<circle class="st33" cx="83.6" cy="170.2" r="4.4"/>
		<radialGradient id="SVGID_27_" cx="142.8685" cy="92.2758" r="18.6649" gradientUnits="userSpaceOnUse">
			<stop  offset="0" style="stop-color:#65FDF0"/>
			<stop  offset="1" style="stop-color:#1D6FA3"/>
		</radialGradient>
		<circle class="st34" cx="146.4" cy="94.7" r="12.5"/>
		<g>
			<path class="st1" d="M121.2,193.4c-6.1,0-11.1-5-11.1-11.1c0-6.1,5-11.1,11.1-11.1c6.1,0,11.1,5,11.1,11.1
				C132.4,188.4,127.4,193.4,121.2,193.4z M121.2,173.1c-5,0-9.1,4.1-9.1,9.1c0,5,4.1,9.1,9.1,9.1c5,0,9.1-4.1,9.1-9.1
				C130.4,177.2,126.3,173.1,121.2,173.1z"/>
		</g>
		<g>
			<path class="st12" d="M142.3,219.5c-4.7,0-8.6-3.9-8.6-8.6c0-4.7,3.9-8.6,8.6-8.6c4.7,0,8.6,3.9,8.6,8.6
				C150.9,215.7,147.1,219.5,142.3,219.5z M142.3,204.4c-3.6,0-6.6,3-6.6,6.6s3,6.6,6.6,6.6s6.6-3,6.6-6.6S146,204.4,142.3,204.4z"
				/>
		</g>
		<g>
			<path class="st12" d="M145.7,185.4c-2.9,0-5.2-2.3-5.2-5.2c0-2.9,2.3-5.2,5.2-5.2c2.9,0,5.2,2.3,5.2,5.2
				C150.9,183.1,148.6,185.4,145.7,185.4z M145.7,177c-1.8,0-3.2,1.4-3.2,3.2c0,1.8,1.4,3.2,3.2,3.2c1.8,0,3.2-1.4,3.2-3.2
				C148.9,178.4,147.5,177,145.7,177z"/>
		</g>
		<g>
			<path class="st12" d="M102.7,76.6c-4.7,0-8.6-3.9-8.6-8.6c0-4.7,3.9-8.6,8.6-8.6c4.7,0,8.6,3.9,8.6,8.6
				C111.3,72.8,107.4,76.6,102.7,76.6z M102.7,61.4c-3.6,0-6.6,3-6.6,6.6c0,3.6,3,6.6,6.6,6.6c3.6,0,6.6-3,6.6-6.6
				C109.3,64.4,106.3,61.4,102.7,61.4z"/>
		</g>
		<g>
			<path class="st12" d="M124,95.7c-2.6,0-4.8-2.2-4.8-4.8c0-2.6,2.2-4.8,4.8-4.8c2.6,0,4.8,2.2,4.8,4.8
				C128.8,93.5,126.7,95.7,124,95.7z M124,88.1c-1.5,0-2.8,1.3-2.8,2.8c0,1.5,1.3,2.8,2.8,2.8c1.5,0,2.8-1.3,2.8-2.8
				C126.8,89.3,125.6,88.1,124,88.1z"/>
		</g>
		<g>
			<path class="st12" d="M68.6,168.6H49l9.8-17L68.6,168.6z M52.4,166.6h12.7l-6.4-11L52.4,166.6z"/>
		</g>
	</g>
	<g>
		<g class="st4">
			<g class="st6">
				<radialGradient id="SVGID_28_" cx="208.7163" cy="394.5468" r="42.4836" gradientUnits="userSpaceOnUse">
					<stop  offset="0" style="stop-color:#D4D2D8"/>
					<stop  offset="3.305880e-02" style="stop-color:#CAC8D0"/>
					<stop  offset="1" style="stop-color:#FFFFFF"/>
				</radialGradient>
				<circle class="st35" cx="208.7" cy="394.5" r="42.5"/>
			</g>
			<g class="st6">
				<radialGradient id="SVGID_29_" cx="106.9593" cy="319.0789" r="34.9251" gradientUnits="userSpaceOnUse">
					<stop  offset="0" style="stop-color:#D4D2D8"/>
					<stop  offset="3.305880e-02" style="stop-color:#CAC8D0"/>
					<stop  offset="1" style="stop-color:#FFFFFF"/>
				</radialGradient>
				<circle class="st36" cx="107" cy="319.1" r="34.9"/>
			</g>
			<g class="st6">
				
					<radialGradient id="SVGID_30_" cx="110.4431" cy="384.0642" r="56.8487" gradientTransform="matrix(1.388 0 0 1 -39.4108 0)" gradientUnits="userSpaceOnUse">
					<stop  offset="0" style="stop-color:#D4D2D8"/>
					<stop  offset="3.305880e-02" style="stop-color:#CAC8D0"/>
					<stop  offset="1" style="stop-color:#FFFFFF"/>
				</radialGradient>
				<ellipse class="st37" cx="113.9" cy="384.1" rx="78.9" ry="56.8"/>
			</g>
			<g class="st6">
				<radialGradient id="SVGID_31_" cx="176.0829" cy="314.3867" r="48.1068" gradientUnits="userSpaceOnUse">
					<stop  offset="0" style="stop-color:#D4D2D8"/>
					<stop  offset="3.305880e-02" style="stop-color:#CAC8D0"/>
					<stop  offset="1" style="stop-color:#FFFFFF"/>
				</radialGradient>
				<circle class="st38" cx="176.1" cy="314.4" r="48.1"/>
			</g>
		</g>
		<radialGradient id="SVGID_32_" cx="81.1789" cy="349.4735" r="124.6424" gradientUnits="userSpaceOnUse">
			<stop  offset="0" style="stop-color:#F99D3C"/>
			<stop  offset="1" style="stop-color:#E74D51"/>
		</radialGradient>
		<path class="st39" d="M214.6,334.3L214.6,334.3c-15.7-4.1-23.1-12.5-17.8-33.1c0.7-2.5,1-5,1-7.7c0-16.5-13.4-29.9-29.9-29.9
			c-14.1,0-26,9.8-29.1,23l0,0c-6.1,25.3-19.1,38.5-53.6,30.3l0,0c-3-0.7-6.2-1.1-9.5-1.1c-22.5,0-40.8,18.2-40.8,40.8
			c0,22.5,18.2,40.8,40.8,40.8c8.7,0,16.8-2.7,23.4-7.4l0,0c33.4-23.4,48.2-7.5,56.7,4.6l0,0c2.7,3.8,7.1,6.3,12.1,6.3
			c6.9,0,12.7-4.8,14.3-11.2l0,0c2.2-9,7.1-14.2,21.1-10.8l0,0c1.8,0.4,3.6,0.7,5.5,0.7c12.6,0,22.9-10.2,22.9-22.9
			C231.8,345.8,224.5,336.8,214.6,334.3z"/>
		
			<radialGradient id="SVGID_33_" cx="195.2112" cy="403.9303" r="111.2337" gradientTransform="matrix(0.9756 0.2194 -0.2194 0.9756 95.7236 -30.6465)" gradientUnits="userSpaceOnUse">
			<stop  offset="0" style="stop-color:#F99D3C"/>
			<stop  offset="0.6305" style="stop-color:#F04E63"/>
			<stop  offset="1" style="stop-color:#E74D51"/>
		</radialGradient>
		<path class="st40" d="M106.8,362.1c-8.5,4.7-11.5,15.4-6.8,23.8c4.3,7.7,13.4,10.9,21.3,7.9l0,0c16.4-6,43.9-0.1,54.2,28
			c0.5,1.5,1.2,2.9,2,4.3c8,14.5,26.3,19.7,40.7,11.6c13.7-7.6,19.1-24.5,12.7-38.5l0,0c-8.5-18.8-0.7-24.5,6.5-27.7l0,0
			c0.3-0.1,0.6-0.3,0.8-0.4c5.5-3,7.4-9.9,4.4-15.4c-3-5.5-9.9-7.4-15.4-4.4c-0.5,0.3-1,0.6-1.5,1l0,0c-8.9,7-27.6,7.9-38.5-5.9l0,0
			c-5.2-6.7-14.6-8.7-22.3-4.5c-3.3,1.8-5.7,4.5-7.2,7.7l0,0c-7.7,15.8-19,19.7-34.8,12l0,0C118,359.3,112,359.3,106.8,362.1z"/>
		<path class="st12" d="M167.9,263.5c16.5,0,29.9,13.4,29.9,29.9c0,2.7-0.4,5.2-1,7.7c-5.3,20.6,2.1,29,17.8,33.1l0,0
			c7.8,2,14,8.1,16.2,15.8c0.6-0.1,1.2-0.2,1.8-0.2c4,0,7.8,2.1,9.9,5.8c3,5.5,1.1,12.3-4.4,15.4c-0.3,0.2-0.6,0.3-0.8,0.4l0,0
			c-7.1,3.2-15,8.9-6.5,27.7l0,0c6.4,14.1,1,30.9-12.7,38.5c-4.6,2.6-9.6,3.8-14.5,3.8c-10.5,0-20.7-5.6-26.2-15.4
			c-0.8-1.4-1.4-2.8-2-4.3c-7.9-21.6-26-30.1-41.5-30.1c-4.6,0-9,0.8-12.7,2.1l0,0c-2,0.7-4,1.1-6,1.1c-5.3,0-10.5-2.4-13.8-6.8
			c-0.8,0.5-1.5,1-2.3,1.6l0,0c-6.6,4.7-14.7,7.4-23.4,7.4c-22.5,0-40.8-18.2-40.8-40.8c0-22.5,18.2-40.8,40.8-40.8
			c3.3,0,6.4,0.4,9.5,1.1l0,0c6.9,1.7,13,2.5,18.3,2.5c21.1,0,30.4-12.5,35.2-32.7l0,0C141.9,273.3,153.8,263.5,167.9,263.5
			 M167.9,261.5c-13.4,0-25.1,8.2-29.8,20.4l-0.2-0.3l-1.1,4.5c-5.2,21.9-15.2,31.2-33.3,31.2c-5.2,0-11.2-0.8-17.9-2.4l-5-1.2
			l0.2,0.3c-1.7-0.2-3.5-0.3-5.2-0.3c-23.6,0-42.8,19.2-42.8,42.8c0,23.6,19.2,42.8,42.8,42.8c7,0,13.8-1.7,19.9-4.9l-0.2,0.5
			l4.9-3.4c0.3-0.2,0.5-0.4,0.8-0.6c3.7,3.9,8.8,6.1,14.2,6.1c0.9,0,1.8-0.1,2.8-0.2l-0.2,0.5l4.1-1.5c3.6-1.3,7.8-2,12.1-2
			c14,0,31.8,7.6,39.6,28.8c0.6,1.6,1.3,3.1,2.1,4.6c5.6,10.1,16.3,16.4,27.9,16.4c5.4,0,10.7-1.4,15.5-4c7.1-3.9,12.3-10.3,14.8-18
			c1.9-5.8,2.1-12,0.6-17.9l0.7,0.4l-2.6-5.7c-3.5-7.8-4.4-13.9-2.6-18.1c1.6-3.6,5-5.6,8.1-7l3.5-1.6l-0.5-0.3c2-1.7,3.5-4,4.3-6.6
			c1-3.4,0.6-7-1.2-10.1c-2.3-4.2-6.8-6.8-11.6-6.8c-0.1,0-0.3,0-0.4,0c-2.3-6.3-7.1-11.4-13.2-14.2l0.4-0.3l-4.3-1.2
			c-18.9-4.9-20.2-15.8-16.4-30.7c0.7-2.7,1.1-5.4,1.1-8.2C199.8,275.9,185.5,261.5,167.9,261.5L167.9,261.5z"/>
		<pattern  id="SVGID_34_" xlink:href="#_x31_0_lpi_10_x25_" patternTransform="matrix(0 -0.8965 1.1347 0 689.3779 -13759.7354)">
		</pattern>
		<polygon class="st41" points="98,306.4 98,328.2 55.4,328.2 55.4,306.4 		"/>
		<pattern  id="SVGID_35_" xlink:href="#_x31_0_dpi_20_x25_" patternTransform="matrix(1.1347 0 0 1.1347 990.3679 927.0547)">
		</pattern>
		<rect x="146" y="390" class="st42" width="45.3" height="34.9"/>
		<pattern  id="SVGID_36_" xlink:href="#New_Pattern_Swatch_4" patternTransform="matrix(1.1347 0 0 1.1347 994.0502 881.6121)">
		</pattern>
		<polygon class="st43" points="212.4,283.2 212.4,319.1 173.2,319.1 173.2,283.2 		"/>
		<g>
			<path class="st1" d="M97.8,387.5c-6.1,0-11.1-5-11.1-11.1c0-6.1,5-11.1,11.1-11.1c6.1,0,11.1,5,11.1,11.1
				C108.9,382.5,103.9,387.5,97.8,387.5z M97.8,367.2c-5,0-9.1,4.1-9.1,9.1c0,5,4.1,9.1,9.1,9.1c5,0,9.1-4.1,9.1-9.1
				C106.9,371.3,102.8,367.2,97.8,367.2z"/>
		</g>
		<g>
			<path class="st12" d="M216.2,433.5c-4.7,0-8.6-3.9-8.6-8.6c0-4.7,3.9-8.6,8.6-8.6c4.7,0,8.6,3.9,8.6,8.6
				C224.8,429.6,220.9,433.5,216.2,433.5z M216.2,418.3c-3.6,0-6.6,3-6.6,6.6c0,3.6,3,6.6,6.6,6.6s6.6-3,6.6-6.6
				C222.8,421.3,219.8,418.3,216.2,418.3z"/>
		</g>
		<g>
			<path class="st12" d="M204.2,412.2c-2.6,0-4.8-2.2-4.8-4.8c0-2.6,2.2-4.8,4.8-4.8c2.6,0,4.8,2.2,4.8,4.8
				C209,410.1,206.8,412.2,204.2,412.2z M204.2,404.6c-1.5,0-2.8,1.3-2.8,2.8c0,1.5,1.3,2.8,2.8,2.8c1.5,0,2.8-1.3,2.8-2.8
				C207,405.9,205.7,404.6,204.2,404.6z"/>
		</g>
		<g>
			<path class="st12" d="M156.2,299.2h-19.6l9.8-17L156.2,299.2z M140.1,297.2h12.7l-6.4-11L140.1,297.2z"/>
		</g>
		<g>
			<path class="st1" d="M210.6,395.8l-7.3-12.7h14.7L210.6,395.8z M206.7,385.1l3.9,6.7l3.9-6.7H206.7z"/>
		</g>
		<radialGradient id="SVGID_37_" cx="145.4768" cy="312.7129" r="15.4951" gradientUnits="userSpaceOnUse">
			<stop  offset="0" style="stop-color:#F99D3C"/>
			<stop  offset="0.6305" style="stop-color:#F04E63"/>
			<stop  offset="1" style="stop-color:#E74D51"/>
		</radialGradient>
		<circle class="st44" cx="146.4" cy="314.4" r="8"/>
		<radialGradient id="SVGID_38_" cx="160.7602" cy="279.6202" r="7.2669" gradientUnits="userSpaceOnUse">
			<stop  offset="0" style="stop-color:#F99D3C"/>
			<stop  offset="0.6305" style="stop-color:#F04E63"/>
			<stop  offset="1" style="stop-color:#E74D51"/>
		</radialGradient>
		<path class="st45" d="M164.9,280.4c0,2.1-1.7,3.7-3.7,3.7c-2.1,0-3.7-1.7-3.7-3.7c0-2.1,1.7-3.7,3.7-3.7
			C163.3,276.6,164.9,278.3,164.9,280.4z"/>
		<radialGradient id="SVGID_39_" cx="208.2795" cy="344.6198" r="7.2669" gradientUnits="userSpaceOnUse">
			<stop  offset="0" style="stop-color:#F99D3C"/>
			<stop  offset="0.6305" style="stop-color:#F04E63"/>
			<stop  offset="1" style="stop-color:#E74D51"/>
		</radialGradient>
		<path class="st46" d="M212.5,345.4c0,2.1-1.7,3.7-3.7,3.7c-2.1,0-3.7-1.7-3.7-3.7c0-2.1,1.7-3.7,3.7-3.7
			C210.8,341.6,212.5,343.3,212.5,345.4z"/>
		<radialGradient id="SVGID_40_" cx="76.2809" cy="388.1449" r="7.2668" gradientUnits="userSpaceOnUse">
			<stop  offset="0" style="stop-color:#F99D3C"/>
			<stop  offset="0.6305" style="stop-color:#F04E63"/>
			<stop  offset="1" style="stop-color:#E74D51"/>
		</radialGradient>
		<circle class="st47" cx="76.7" cy="388.9" r="3.7"/>
		<radialGradient id="SVGID_41_" cx="63.1083" cy="376.8211" r="15.4952" gradientUnits="userSpaceOnUse">
			<stop  offset="0" style="stop-color:#F99D3C"/>
			<stop  offset="0.6305" style="stop-color:#F04E63"/>
			<stop  offset="1" style="stop-color:#E74D51"/>
		</radialGradient>
		<circle class="st48" cx="64" cy="378.5" r="8"/>
	</g>
	<g>
		<g class="st4">
			<g class="st6">
				
					<radialGradient id="SVGID_42_" cx="420.6502" cy="377.0508" r="40.8932" gradientTransform="matrix(1.4858 0 0 1.4858 -224.1449 -187.746)" gradientUnits="userSpaceOnUse">
					<stop  offset="0" style="stop-color:#D4D2D8"/>
					<stop  offset="3.305880e-02" style="stop-color:#CAC8D0"/>
					<stop  offset="1" style="stop-color:#FFFFFF"/>
				</radialGradient>
				<circle class="st49" cx="400.9" cy="372.5" r="60.8"/>
			</g>
			<g class="st6">
				<radialGradient id="SVGID_43_" cx="322.7762" cy="305.7896" r="33.6175" gradientUnits="userSpaceOnUse">
					<stop  offset="0" style="stop-color:#D4D2D8"/>
					<stop  offset="3.305880e-02" style="stop-color:#CAC8D0"/>
					<stop  offset="1" style="stop-color:#FFFFFF"/>
				</radialGradient>
				<circle class="st50" cx="322.8" cy="305.8" r="33.6"/>
			</g>
			<g class="st6">
				
					<radialGradient id="SVGID_44_" cx="321.875" cy="353.7183" r="46.3052" gradientTransform="matrix(1.3979 0 0 1.2471 -115.8016 -77.1298)" gradientUnits="userSpaceOnUse">
					<stop  offset="0" style="stop-color:#D4D2D8"/>
					<stop  offset="3.305880e-02" style="stop-color:#CAC8D0"/>
					<stop  offset="1" style="stop-color:#FFFFFF"/>
				</radialGradient>
				<ellipse class="st51" cx="334.1" cy="364" rx="64.7" ry="57.7"/>
			</g>
			<g class="st6">
				
					<radialGradient id="SVGID_45_" cx="392.8167" cy="301.2731" r="46.3058" gradientTransform="matrix(1.3391 0 0 1 -121.0064 0)" gradientUnits="userSpaceOnUse">
					<stop  offset="0" style="stop-color:#D4D2D8"/>
					<stop  offset="3.305880e-02" style="stop-color:#CAC8D0"/>
					<stop  offset="1" style="stop-color:#FFFFFF"/>
				</radialGradient>
				<ellipse class="st52" cx="405" cy="301.3" rx="62" ry="46.3"/>
			</g>
		</g>
		<radialGradient id="SVGID_46_" cx="341.0611" cy="327.0595" r="101.5594" gradientUnits="userSpaceOnUse">
			<stop  offset="0" style="stop-color:#9A7BB8"/>
			<stop  offset="1" style="stop-color:#6F2C90"/>
		</radialGradient>
		<path class="st53" d="M457.5,292.3c-3.4-12.8-16.5-20.4-29.3-17c-4,1.1-7.5,3.1-10.3,5.8c-17.5,16.3-62.4,19.2-84.6-4.3
			c-7.9-8.4-20.1-12.3-32-9.2c-17.3,4.6-27.6,22.4-22.9,39.6c1.8,6.9,5.8,12.7,10.9,16.8l0,0c12.7,10.3,15.3,21,2,37.5l0,0
			c-8.1,10-11.5,23.6-7.9,37.1c5.9,22.3,28.8,35.5,51.1,29.6c18.1-4.8,30.3-20.9,31-38.8c2-41.5,44-68,67.9-67
			c2.4,0.1,4.9-0.1,7.3-0.8C453.3,318.2,460.9,305.1,457.5,292.3z"/>
		<radialGradient id="SVGID_47_" cx="387.4557" cy="359.5312" r="52.4044" gradientUnits="userSpaceOnUse">
			<stop  offset="0" style="stop-color:#9A7BB8"/>
			<stop  offset="1" style="stop-color:#6F2C90"/>
		</radialGradient>
		<path class="st54" d="M431.1,365.8c-14.6-20.5-6.3-29.7,2.6-36.1l0,0c0.3-0.2,0.6-0.5,0.9-0.7c5.4-4.6,6-12.8,1.3-18.2
			c-4.6-5.4-12.8-6-18.2-1.3c-1.5,1.3-2.6,2.8-3.3,4.5l0,0c-5.3,11.7-16.7,19.4-34.2,11.5l0,0c-6.6-3-14.5-2.1-20.4,2.9
			c-6.5,5.6-8.3,14.7-5,22.2c5.5,12.8,1.8,19.6-9.2,24.3c-1.5,0.6-2.9,1.5-4.3,2.7c-6.9,5.9-7.6,16.3-1.7,23.1
			c5.9,6.9,16.3,7.6,23.1,1.7c0.3-0.3,0.6-0.6,0.9-0.9l0,0c5.6-5.7,12-7.6,22.3,2.6l0,0c10.9,10.8,28.4,11.6,40.2,1.4
			C438.1,395.4,440,378.1,431.1,365.8L431.1,365.8z"/>
		<pattern  id="SVGID_48_" xlink:href="#Diagonal_Lines" patternTransform="matrix(1.1347 0 0 1.1347 837.8152 923.0838)">
		</pattern>
		<rect x="372.4" y="377.9" class="st55" width="52.9" height="51.4"/>
		<g>
			<path class="st12" d="M380.9,372.4c-6.1,0-11.1-5-11.1-11.1c0-6.1,5-11.1,11.1-11.1c6.1,0,11.1,5,11.1,11.1
				C392.1,367.4,387.1,372.4,380.9,372.4z M380.9,352.1c-5,0-9.1,4.1-9.1,9.1c0,5,4.1,9.1,9.1,9.1s9.1-4.1,9.1-9.1
				C390.1,356.2,386,352.1,380.9,352.1z"/>
		</g>
		<g>
			<path class="st12" d="M314.2,387.1h-14.7l7.3-12.7L314.2,387.1z M303,385.1h7.8l-3.9-6.7L303,385.1z"/>
		</g>
		<path class="st12" d="M309.6,266.5c9,0,17.6,3.8,23.6,10.3c11.3,12,28.5,17.1,45,17.1c15.9,0,31-4.8,39.6-12.8
			c2.8-2.7,6.3-4.7,10.3-5.8c2.1-0.6,4.1-0.8,6.2-0.8c10.6,0,20.3,7.1,23.1,17.8c3.4,12.8-4.2,25.9-17,29.3
			c-0.6,0.2-1.1,0.3-1.7,0.4c-0.6,2.6-2,5.1-4.2,7c-0.3,0.3-0.6,0.5-0.9,0.7l0,0c-8.9,6.4-17.2,15.5-2.6,36.1l0,0
			c8.8,12.3,6.9,29.6-4.8,39.7c-5.6,4.8-12.5,7.2-19.3,7.2c-7.6,0-15.2-2.9-20.9-8.6l0,0c-5.2-5.2-9.5-7.2-13.1-7.2
			c-3.5,0-6.4,1.9-9.2,4.6l0,0c-0.3,0.3-0.6,0.6-0.9,0.9c-0.1,0.1-0.2,0.1-0.3,0.2c-4.6,12.1-14.8,21.9-28.3,25.6
			c-3.6,1-7.2,1.4-10.8,1.4c-18.5,0-35.3-12.3-40.3-31c-3.6-13.4-0.2-27,7.9-37.1l0,0c13.3-16.4,10.8-27.1-2-37.5l0,0
			c-5.1-4.2-9.1-9.9-10.9-16.8c-4.6-17.3,5.7-35,22.9-39.6C304,266.9,306.8,266.5,309.6,266.5 M309.6,264.5c-3,0-6,0.4-8.9,1.2
			c-18.3,4.9-29.3,23.8-24.4,42.1c1.5,5.7,4.4,10.8,8.5,15l-0.3,0.1l3.4,2.8c6.4,5.1,9.5,9.9,10,15.1c0.5,5.6-2.2,12-8.3,19.6
			l-3.2,4l0.4-0.1c-6.6,10.3-8.6,23-5.5,34.9c5.1,19.1,22.5,32.5,42.3,32.5c3.8,0,7.6-0.5,11.3-1.5c13.3-3.6,24.3-13.3,29.4-26.2
			l1-1c2.7-2.8,5.2-4.1,7.7-4.1c3.4,0,7.2,2.2,11.7,6.7l4.1,4.1l-0.1-0.7c5.3,3.8,11.6,5.8,18.3,5.8c7.6,0,14.9-2.7,20.6-7.7
			c6-5.2,9.9-12.4,10.8-20.3c0.7-6.1-0.3-12.1-3-17.5l0.7,0.2l-3.4-4.7c-13.9-19.4-6.2-27.4,2.1-33.3l3.3-2.3l-0.6-0.2
			c1.3-1.5,2.2-3.2,2.8-5.1c0.2-0.1,0.4-0.1,0.6-0.2c6.7-1.8,12.3-6.1,15.8-12.1c3.5-6,4.4-13,2.6-19.7c-3-11.4-13.3-19.3-25.1-19.3
			c-2.3,0-4.5,0.3-6.7,0.9c-4.2,1.1-8.1,3.3-11.2,6.2c-8.1,7.5-22.7,12.2-38.2,12.2c-17.8,0-33.7-6-43.6-16.5
			C328.2,268.5,319,264.5,309.6,264.5L309.6,264.5z"/>
		<g>
			<path class="st12" d="M306,292.2h-9.6v-9.6h9.6V292.2z M298.4,290.2h5.6v-5.6h-5.6V290.2z"/>
		</g>
		<g>
			<path class="st1" d="M420.3,358.2h-15.1V343h15.1V358.2z M407.2,356.2h11.1V345h-11.1V356.2z"/>
		</g>
		<g>
			<path class="st1" d="M358,401.3h-9.1v-9.1h9.1V401.3z M350.8,399.3h5.1v-5.1h-5.1V399.3z"/>
		</g>
		<pattern  id="SVGID_49_" xlink:href="#_x31_0_dpi_20_x25_" patternTransform="matrix(1.1347 0 0 1.1347 962.3999 942.3694)">
		</pattern>
		<rect x="278.1" y="407.4" class="st56" width="58.3" height="24"/>
		<radialGradient id="SVGID_50_" cx="313.5785" cy="361.6817" r="9.5789" gradientUnits="userSpaceOnUse">
			<stop  offset="0" style="stop-color:#9A7BB8"/>
			<stop  offset="1" style="stop-color:#6F2C90"/>
		</radialGradient>
		<circle class="st57" cx="313.6" cy="361.7" r="9.6"/>
		<radialGradient id="SVGID_51_" cx="435.6733" cy="285.141" r="3.428" gradientUnits="userSpaceOnUse">
			<stop  offset="0" style="stop-color:#9A7BB8"/>
			<stop  offset="1" style="stop-color:#6F2C90"/>
		</radialGradient>
		<path class="st58" d="M432.2,285.1c0,1.9,1.5,3.4,3.4,3.4c1.9,0,3.4-1.5,3.4-3.4c0-1.9-1.5-3.4-3.4-3.4
			C433.8,281.7,432.2,283.2,432.2,285.1z"/>
		<radialGradient id="SVGID_52_" cx="327.2336" cy="377.9423" r="4.3724" gradientUnits="userSpaceOnUse">
			<stop  offset="0" style="stop-color:#9A7BB8"/>
			<stop  offset="1" style="stop-color:#6F2C90"/>
		</radialGradient>
		<path class="st59" d="M331.6,377.9c0,2.4-2,4.4-4.4,4.4c-2.4,0-4.4-2-4.4-4.4c0-2.4,2-4.4,4.4-4.4
			C329.6,373.6,331.6,375.5,331.6,377.9z"/>
		<pattern  id="SVGID_53_" xlink:href="#New_Pattern_Swatch_4" patternTransform="matrix(1.1347 0 0 1.1347 960.0428 917.4861)">
		</pattern>
		<polygon class="st60" points="370.8,270.7 370.8,296.5 322.3,296.5 322.3,270.7 		"/>
		
			<pattern  id="SVGID_54_" xlink:href="#_x31_0_lpi_10_x25_" patternTransform="matrix(-0.8965 0 0 -1.1347 -13862.1855 -15464.5518)">
		</pattern>
		<polygon class="st61" points="282.8,308.9 290.5,308.9 290.5,378.4 282.8,378.4 		"/>
	</g>
</g>
<g id="Designed_By_Freepik">
</g>
</svg>
