<?xml version="1.0" encoding="utf-8"?>
<!-- Generator: Adobe Illustrator 22.1.0, SVG Export Plug-In . SVG Version: 6.00 Build 0)  -->
<svg version="1.1" xmlns="http://www.w3.org/2000/svg" xmlns:xlink="http://www.w3.org/1999/xlink" x="0px" y="0px"
	 viewBox="0 0 500 500" style="enable-background:new 0 0 500 500;" xml:space="preserve">
<style type="text/css">
	.st0{display:none;}
	.st1{fill:url(#SVGID_1_);}
	.st2{fill:url(#SVGID_2_);}
	.st3{fill:url(#SVGID_3_);}
	.st4{fill:url(#SVGID_4_);}
	.st5{fill:url(#SVGID_5_);}
	.st6{fill:url(#SVGID_6_);}
	.st7{fill:url(#SVGID_7_);}
	.st8{fill:url(#SVGID_8_);}
	.st9{fill:url(#SVGID_9_);}
	.st10{fill:url(#SVGID_10_);}
	.st11{fill:url(#SVGID_11_);}
	.st12{fill:url(#SVGID_12_);}
	.st13{fill:url(#SVGID_13_);}
	.st14{fill:url(#SVGID_14_);}
	.st15{opacity:0.4;fill:url(#SVGID_15_);}
	.st16{display:none;opacity:0.2;fill:url(#SVGID_16_);}
</style>
<g id="BACKGROUND" class="st0">
</g>
<g id="OBJECTS">
	<g>
		<linearGradient id="SVGID_1_" gradientUnits="userSpaceOnUse" x1="303.8072" y1="388.2223" x2="289.0532" y2="317.6597">
			<stop  offset="0" style="stop-color:#66B4E4"/>
			<stop  offset="1" style="stop-color:#5000E2"/>
		</linearGradient>
		<path class="st1" d="M258.4,322.5c-5.3,6.6-8.1,14.7-10.9,22.7c-4.5,13.2-8.6,28.8-0.3,40c7.7,10.3,22.4,11.6,35.3,11.9
			c11.4,0.3,23,0.6,34.1-1.7c11.2-2.3,22.1-7.6,29.2-16.5c11.9-15.1,9.9-38.4-2.4-53.2c-12.3-14.8-32.8-21.1-51.9-19.2
			C279.1,307.8,266.4,312.7,258.4,322.5z"/>
		<linearGradient id="SVGID_2_" gradientUnits="userSpaceOnUse" x1="297.8226" y1="359.7653" x2="284.5654" y2="313.164">
			<stop  offset="0" style="stop-color:#FFFFFF"/>
			<stop  offset="1" style="stop-color:#5000E2"/>
		</linearGradient>
		<path class="st2" d="M258.4,322.5c-5.3,6.6-8.1,14.7-10.9,22.7c-4.5,13.2-8.6,28.8-0.3,40c7.7,10.3,22.4,11.6,35.3,11.9
			c11.4,0.3,23,0.6,34.1-1.7c11.2-2.3,22.1-7.6,29.2-16.5c11.9-15.1,9.9-38.4-2.4-53.2c-12.3-14.8-32.8-21.1-51.9-19.2
			C279.1,307.8,266.4,312.7,258.4,322.5z"/>
		<g>
			<linearGradient id="SVGID_3_" gradientUnits="userSpaceOnUse" x1="236.7719" y1="159.914" x2="269.6904" y2="391.5856">
				<stop  offset="0" style="stop-color:#66B4E4"/>
				<stop  offset="0.1096" style="stop-color:#65ACE4"/>
				<stop  offset="0.2797" style="stop-color:#6296E4"/>
				<stop  offset="0.4891" style="stop-color:#5E72E3"/>
				<stop  offset="0.7296" style="stop-color:#5841E3"/>
				<stop  offset="0.9933" style="stop-color:#5002E2"/>
				<stop  offset="1" style="stop-color:#5000E2"/>
			</linearGradient>
			<path class="st3" d="M177.5,347.4c8.6,11.6,22.4,19.7,37.3,21.8c14.9,2.1,30.6-1.7,42.5-10.4c7.9-5.7,14.1-13.4,22.7-18.2
				c14.3-8,32.2-6.5,48.8-6.6c16.7-0.1,35.6-3.2,44.6-16.4c6.4-9.4,5.9-21.4,3.7-32.4c-2.2-10.9-5.8-21.8-5.1-32.9
				c1.2-18.6,14.6-34.9,16.7-53.5c1.8-16.3-6-33.2-19.8-43.1s-33.2-12.4-49.4-6.4c-16.2,6-29.7,19.9-47.2,19.9
				c-16.3,0-29.2-12.1-42.3-21.2c-14.4-10-31.4-17.1-49.2-18.4c-17.8-1.3-36.5,3.5-49.8,14.7c-13.3,11.2-20.6,29-16.8,45.5
				c2.5,10.9,9.6,20.7,11,31.8c2,15.2-6.6,29.6-12.5,43.9c-5.9,14.3-8.5,32.5,3,43.3c12.3,11.6,34.2,8.6,47.4,19.4
				C169.4,333.4,172.7,341,177.5,347.4z"/>
			<linearGradient id="SVGID_4_" gradientUnits="userSpaceOnUse" x1="248.2926" y1="113.2952" x2="248.2926" y2="230.4174">
				<stop  offset="0" style="stop-color:#FFFFFF"/>
				<stop  offset="1" style="stop-color:#000000"/>
			</linearGradient>
			<path class="st4" d="M177.5,347.4c8.6,11.6,22.4,19.7,37.3,21.8c14.9,2.1,30.6-1.7,42.5-10.4c7.9-5.7,14.1-13.4,22.7-18.2
				c14.3-8,32.2-6.5,48.8-6.6c16.7-0.1,35.6-3.2,44.6-16.4c6.4-9.4,5.9-21.4,3.7-32.4c-2.2-10.9-5.8-21.8-5.1-32.9
				c1.2-18.6,14.6-34.9,16.7-53.5c1.8-16.3-6-33.2-19.8-43.1s-33.2-12.4-49.4-6.4c-16.2,6-29.7,19.9-47.2,19.9
				c-16.3,0-29.2-12.1-42.3-21.2c-14.4-10-31.4-17.1-49.2-18.4c-17.8-1.3-36.5,3.5-49.8,14.7c-13.3,11.2-20.6,29-16.8,45.5
				c2.5,10.9,9.6,20.7,11,31.8c2,15.2-6.6,29.6-12.5,43.9c-5.9,14.3-8.5,32.5,3,43.3c12.3,11.6,34.2,8.6,47.4,19.4
				C169.4,333.4,172.7,341,177.5,347.4z"/>
		</g>
		<linearGradient id="SVGID_5_" gradientUnits="userSpaceOnUse" x1="301.4189" y1="117.4106" x2="312.7044" y2="209.951">
			<stop  offset="9.566330e-03" style="stop-color:#C600C3"/>
			<stop  offset="1" style="stop-color:#1A00BE"/>
		</linearGradient>
		<path class="st5" d="M237.1,148.7c0,11.9,5.9,23.6,15.4,30.7c9.5,7.1,22.3,9.6,33.7,6.4c13.4-3.8,26.3-14.8,39.5-10.4
			c7.7,2.5,13.1,9.8,20.8,12.4c10.3,3.4,22.1-3.4,26.4-13.3c4.3-10,2-21.8-3.7-31c-5.7-9.2-14.5-16.1-23.6-22
			c-19.2-12.4-42.1-21.4-64.7-18C258.3,106.9,237,125.8,237.1,148.7z"/>
		<linearGradient id="SVGID_6_" gradientUnits="userSpaceOnUse" x1="87.0794" y1="232.5404" x2="142.8082" y2="232.5404">
			<stop  offset="9.566330e-03" style="stop-color:#C600C3"/>
			<stop  offset="1" style="stop-color:#1A00BE"/>
		</linearGradient>
		<path class="st6" d="M117.5,268.9c13.3-5.1,23.3-17.9,25.1-32c1.8-14.1-4.8-29-16.4-37.2c-4.8-3.4-10.4-5.7-16.3-5.6
			c-5.8,0.1-11.8,3-14.7,8c-4.9,8.4-0.3,19.1-1.6,28.8c-1.3,9.4-8.2,18.1-6.1,27.3c1.4,5.9,6.5,10.4,12.3,12.1
			C105.5,271.9,111.8,271.1,117.5,268.9z"/>
		<linearGradient id="SVGID_7_" gradientUnits="userSpaceOnUse" x1="306.1324" y1="296.0104" x2="411.0269" y2="296.0104">
			<stop  offset="9.566330e-03" style="stop-color:#C600C3"/>
			<stop  offset="1" style="stop-color:#1A00BE"/>
		</linearGradient>
		<path class="st7" d="M342.4,285.5c-7.9,14.3-28.9,18.2-34.8,33.4c-4.1,10.6,1.4,23.3,10.7,29.8c9.4,6.5,21.6,7.6,32.8,5.8
			c16.8-2.7,32.4-11.6,43.3-24.6c10.9-13,16.9-30,16.6-47c-0.2-10.6-2.8-21.3-8.8-30c-5.7-8.3-14.6-14.6-24.5-15.8
			s-20.7,3.2-25.9,11.8C345.2,259.7,348.6,274.4,342.4,285.5z"/>
		<linearGradient id="SVGID_8_" gradientUnits="userSpaceOnUse" x1="157.0107" y1="166.7901" x2="183.6489" y2="166.7901">
			<stop  offset="0" style="stop-color:#66B4E4"/>
			<stop  offset="1" style="stop-color:#5000E2"/>
		</linearGradient>
		<path class="st8" d="M175.9,155.1c-3.8-1.4-8.4-0.6-11.9,1.3c-4.7,2.7-7.6,7.7-6.9,12.5c0.7,4.8,5.2,9.2,10.7,10
			c4.7,0.7,9.8-1.1,12.7-4.4c3-3.3,3.8-7.8,2.6-11.8C182,159.5,179.5,156.5,175.9,155.1z"/>
		<linearGradient id="SVGID_9_" gradientUnits="userSpaceOnUse" x1="138.9018" y1="348.6985" x2="186.0463" y2="348.6985">
			<stop  offset="0" style="stop-color:#66B4E4"/>
			<stop  offset="1" style="stop-color:#5000E2"/>
		</linearGradient>
		<path class="st9" d="M167,343.1c-2.5-5.9-9.2-9.8-15.5-8.9c-7,1-12.8,7.8-12.6,14.9c0.2,8,8.1,14.9,16,14.2
			c4.5-0.4,8.8-3.1,11.1-7C168.4,352.3,168.8,347.3,167,343.1z"/>
		<linearGradient id="SVGID_10_" gradientUnits="userSpaceOnUse" x1="285.1082" y1="155.361" x2="327.1567" y2="155.361">
			<stop  offset="0" style="stop-color:#66B4E4"/>
			<stop  offset="1" style="stop-color:#5000E2"/>
		</linearGradient>
		<path class="st10" d="M297.5,136c-5.8,2.6-10.3,8-11.8,14.2c-1.5,6.2,0,13.1,3.9,18.1c3.8,4.8,9.8,7.9,16,8
			c6.2,0.2,12.3-2.5,16.4-7.1c6.3-7.2,6.8-18.8,1.2-26.5C317.5,135.1,306.3,132.1,297.5,136z"/>
		<linearGradient id="SVGID_11_" gradientUnits="userSpaceOnUse" x1="384.8231" y1="142.1387" x2="409.2409" y2="178.6368">
			<stop  offset="0" style="stop-color:#66B4E4"/>
			<stop  offset="1" style="stop-color:#5000E2"/>
		</linearGradient>
		<path class="st11" d="M386.6,158.5c3.1,1.3,6.9,0.7,9.5-1.5c2.5-2.2,3.6-6,2.7-9.2c-1.6-5.8-10-8.3-14.5-4.3
			C379.8,147.5,381.1,156.1,386.6,158.5z"/>
		<linearGradient id="SVGID_12_" gradientUnits="userSpaceOnUse" x1="393.9509" y1="216.1504" x2="453.0199" y2="298.8468">
			<stop  offset="0" style="stop-color:#66B4E4"/>
			<stop  offset="1" style="stop-color:#5000E2"/>
		</linearGradient>
		<path class="st12" d="M402.1,223.5v4.8h-4.8c-1.1,0-2,0.9-2,2c0,1.1,0.9,2,2,2h4.8v4.8c0,1.1,0.9,2,2,2c1.1,0,2-0.9,2-2v-4.8h4.8
			c1.1,0,2-0.9,2-2c0-1.1-0.9-2-2-2h-4.8v-4.8c0-1.1-0.9-2-2-2C403,221.5,402.1,222.4,402.1,223.5z"/>
		<linearGradient id="SVGID_13_" gradientUnits="userSpaceOnUse" x1="99.662" y1="313.851" x2="124.6794" y2="354.8517">
			<stop  offset="0" style="stop-color:#66B4E4"/>
			<stop  offset="1" style="stop-color:#5000E2"/>
		</linearGradient>
		<path class="st13" d="M112.5,319.9l-4.9,4.9l-4.8-4.8c-0.6-0.6-1.5-0.6-2,0c-0.6,0.6-0.6,1.5,0,2l4.8,4.8l-4.9,4.9
			c-0.6,0.6-0.6,1.5,0,2c0.6,0.6,1.5,0.6,2,0l4.9-4.9l4.9,4.9c0.6,0.6,1.5,0.6,2,0c0.6-0.6,0.6-1.5,0-2l-4.9-4.9l4.9-4.9
			c0.6-0.6,0.6-1.5,0-2C113.9,319.4,113,319.4,112.5,319.9z"/>
		<g>
			
				<linearGradient id="SVGID_14_" gradientUnits="userSpaceOnUse" x1="498.636" y1="311.8214" x2="454.2227" y2="248.3181" gradientTransform="matrix(0 -1 1 0 -65.198 585.1956)">
				<stop  offset="0" style="stop-color:#66B4E4"/>
				<stop  offset="1" style="stop-color:#5000E2"/>
			</linearGradient>
			<path class="st14" d="M220.2,110.4c0,4.2-3.5,7.7-7.7,7.7c-4.2,0-7.7-3.5-7.7-7.7c0-4.2,3.5-7.7,7.7-7.7
				C216.7,102.7,220.2,106.2,220.2,110.4z M207.8,110.4c0,2.6,2.1,4.7,4.7,4.7c2.6,0,4.7-2.1,4.7-4.7c0-2.6-2.1-4.7-4.7-4.7
				C209.9,105.7,207.8,107.8,207.8,110.4z"/>
		</g>
		
			<linearGradient id="SVGID_15_" gradientUnits="userSpaceOnUse" x1="336.0824" y1="198.6461" x2="273.9608" y2="103.015" gradientTransform="matrix(0.994 0.1098 -0.1098 0.994 8.9424 158.3741)">
			<stop  offset="0" style="stop-color:#FFFFFF"/>
			<stop  offset="0.7798" style="stop-color:#000000"/>
		</linearGradient>
		<path class="st15" d="M364.7,289.9c-0.1-1.1-1-1.9-2-1.8c-1,0.1-1.8,1.1-1.8,2.2c0.9,13.7-1.2,23.6-6.4,30.4
			c-7.2,9.5-20.5,13.2-39.5,11.2c-2.1-0.2-4.1-0.5-6.2-0.7c-13-1.6-26.5-3.2-38.6,2.7c-5,2.4-9.3,6-13.5,9.4
			c-2.8,2.3-5.7,4.7-8.7,6.6c-11,7.1-24.9,9.3-37.2,5.9c-1-0.3-2,0.4-2.3,1.4c-0.3,1.1,0.3,2.2,1.3,2.4c2.4,0.7,4.8,1.1,7.3,1.4
			c11.3,1.2,23.1-1.5,32.8-7.8c3.2-2.1,6.2-4.5,9.1-6.9c4.2-3.4,8.2-6.7,12.8-8.9c11.1-5.4,24.1-3.8,36.6-2.3
			c2.1,0.3,4.2,0.5,6.3,0.7c20.3,2.2,34.7-2.1,42.8-12.7C363.3,315.5,365.7,304.6,364.7,289.9z"/>
	</g>
	
		<radialGradient id="SVGID_16_" cx="250" cy="426.1245" r="143.6002" gradientTransform="matrix(1 0 0 6.773000e-02 0 397.2631)" gradientUnits="userSpaceOnUse">
		<stop  offset="0" style="stop-color:#000000"/>
		<stop  offset="1" style="stop-color:#FFFFFF"/>
	</radialGradient>
	<ellipse class="st16" cx="250" cy="426.1" rx="156.3" ry="10.4"/>
</g>
<g id="DESIGNED_BY_FREEPIK" class="st0">
</g>
</svg>
