<?xml version="1.0" encoding="utf-8"?>
<!-- Generator: Adobe Illustrator 22.1.0, SVG Export Plug-In . SVG Version: 6.00 Build 0)  -->
<svg version="1.1" xmlns="http://www.w3.org/2000/svg" xmlns:xlink="http://www.w3.org/1999/xlink" x="0px" y="0px"
	 viewBox="0 0 500 500" enable-background="new 0 0 500 500" xml:space="preserve">
<g id="BACKGROUND" display="none">
	<g display="inline">
		<radialGradient id="SVGID_1_" cx="250" cy="250" r="337.6275" gradientUnits="userSpaceOnUse">
			<stop  offset="0" style="stop-color:#00D3FF"/>
			<stop  offset="1" style="stop-color:#3000FF"/>
		</radialGradient>
		<rect fill="url(#SVGID_1_)" width="500" height="500"/>
	</g>
</g>
<g id="OBJECTS">
	<g>
		<path fill="#FFFFFF" d="M166.359,360.916c-1.327,0-2.625-0.66-3.386-1.865l-10.146-16.065c-1.18-1.867-0.622-4.338,1.246-5.517
			c1.869-1.181,4.339-0.621,5.518,1.246l10.146,16.064c1.18,1.867,0.622,4.338-1.246,5.518
			C167.829,360.716,167.089,360.916,166.359,360.916z M140.193,319.486c-1.327,0-2.625-0.66-3.386-1.865l-10.146-16.064
			c-1.18-1.867-0.622-4.338,1.246-5.518c1.868-1.18,4.339-0.621,5.518,1.246l10.145,16.064c1.18,1.868,0.622,4.338-1.246,5.518
			C141.663,319.286,140.923,319.486,140.193,319.486z M114.028,278.058c-1.327,0-2.625-0.66-3.386-1.865l-10.146-16.065
			c-1.18-1.867-0.622-4.338,1.246-5.518c1.868-1.18,4.339-0.621,5.518,1.246l10.146,16.064c1.18,1.867,0.622,4.338-1.246,5.518
			C115.497,277.857,114.758,278.058,114.028,278.058z M87.862,236.628c-1.327,0-2.625-0.66-3.386-1.865l-10.146-16.064
			c-1.18-1.868-0.622-4.338,1.246-5.518c1.868-1.18,4.339-0.621,5.518,1.246l10.146,16.064c1.18,1.868,0.622,4.338-1.246,5.518
			C89.331,236.429,88.592,236.628,87.862,236.628z"/>
	</g>
	<g>
		
			<image overflow="visible" opacity="0.45" width="280" height="316" xlink:href="98354559.png"  transform="matrix(1 0 0 1 167 140)">
		</image>
		<g>
			<linearGradient id="SVGID_2_" gradientUnits="userSpaceOnUse" x1="196.6853" y1="287.2651" x2="421.9519" y2="287.2651">
				<stop  offset="0" style="stop-color:#0DFF00"/>
				<stop  offset="0.9667" style="stop-color:#36DEFF"/>
			</linearGradient>
			<path fill="url(#SVGID_2_)" d="M399.747,161.269c17.384,8.86,26.492,31.265,20.223,49.741
				c-10.816,31.872-55.086,40.303-70.156,70.397c-17.233,34.414,11.783,79.512-6.848,113.19
				c-7.804,14.106-23.729,23.322-39.848,23.059s-31.735-9.992-39.075-24.345c-16.971-33.186,10.784-77.054-7.431-109.574
				c-11.575-20.665-37.876-28.894-51.412-48.331c-11.919-17.115-11.257-41.973,1.556-58.429
				c12.813-16.457,36.749-23.193,56.265-15.834c18.733,7.064,29.514,23.533,50.579,21.985c17.978-1.321,30.655-9.482,44.666-19.781
				C369.446,155.128,387.572,155.064,399.747,161.269z"/>
		</g>
	</g>
	<g>
		
			<image overflow="visible" opacity="0.45" width="298" height="450" xlink:href="9835455B.png"  transform="matrix(1 0 0 1 26 13)">
		</image>
		<g>
			
				<linearGradient id="SVGID_3_" gradientUnits="userSpaceOnUse" x1="74.7046" y1="227.2924" x2="345.8021" y2="227.2924" gradientTransform="matrix(0.936 -0.352 0.352 0.936 -64.7952 88.4454)">
				<stop  offset="0" style="stop-color:#3000FF"/>
				<stop  offset="1" style="stop-color:#FF31B0"/>
			</linearGradient>
			<path fill="url(#SVGID_3_)" d="M95.187,131.768c-4.304,0.939-8.508,2.225-12.548,4.06c-40.735,18.497-33.55,83.983,3.629,101.669
				c14.495,6.895,31.375,7.251,46.042,13.772c20.907,9.296,35.263,31.702,34.97,54.58c-0.236,18.434-8.979,35.515-14.455,53.117
				c-5.477,17.603-7.059,38.7,4.95,52.687c9.407,10.956,25.417,14.678,39.583,11.879s26.65-11.247,37.098-21.215
				c13.654-13.026,24.819-29.755,26.841-48.517c2.512-23.311-9.116-45.449-17.954-67.165c-12.005-29.499-19.257-62.78-9.501-93.097
				c13.182-40.965,56.821-57.751,63.606-101.927c3.389-22.067-5.74-47.241-25.864-56.907c-11.965-5.747-25.912-5.424-39.082-3.765
				c-13.038,1.642-26.699,4.876-36.011,14.147c-17.796,17.716-12.834,49.824-30.188,67.972
				c-10.172,10.638-25.737,13.926-40.393,15.277C115.673,129.28,105.162,129.591,95.187,131.768z"/>
		</g>
	</g>
	<g>
		
			<image overflow="visible" opacity="0.45" width="285" height="280" xlink:href="9835455E.png"  transform="matrix(1 0 0 1 87 84)">
		</image>
		<g>
			<linearGradient id="SVGID_4_" gradientUnits="userSpaceOnUse" x1="116.0671" y1="212.7517" x2="346.4214" y2="212.7517">
				<stop  offset="0" style="stop-color:#36DEFF"/>
				<stop  offset="1" style="stop-color:#F500FF"/>
			</linearGradient>
			<path fill="url(#SVGID_4_)" d="M170.03,135.057c-1.467,13.907,4.389,27.942,2.167,41.748
				c-3.197,19.864-21.479,33.001-35.24,47.678c-12.786,13.637-22.811,31.681-20.576,50.241c2.236,18.56,20.917,35.445,38.906,30.359
				c15.39-4.351,24.262-21.793,39.618-26.264c13.212-3.847,27.228,3.149,37.686,12.092c10.459,8.943,19.173,20.094,30.998,27.131
				c19.35,11.514,45.855,9.443,63.182-4.937c17.327-14.38,24.247-40.05,16.495-61.19c-6.333-17.273-21.411-31.985-21.016-50.379
				c0.408-18.976,17.543-34.857,16.798-53.823c-0.727-18.512-22.237-32.943-39.644-26.597c-12.089,4.409-27.312,25.552-41.7,19.829
				c-9.137-3.634-11.733-19.196-17.419-26.367C218.826,87.515,173.677,100.472,170.03,135.057z"/>
		</g>
	</g>
	<g>
		
			<image overflow="visible" opacity="0.45" width="309" height="315" xlink:href="9835455F.png"  transform="matrix(1 0 0 1 126 73)">
		</image>
		<g>
			
				<linearGradient id="SVGID_5_" gradientUnits="userSpaceOnUse" x1="153.2165" y1="231.9896" x2="419.4785" y2="231.9896" gradientTransform="matrix(0.6697 0.7426 -0.7426 0.6697 295.2462 -152.2033)">
				<stop  offset="0" style="stop-color:#FFB50F"/>
				<stop  offset="1" style="stop-color:#FF31B0"/>
			</linearGradient>
			<path fill="url(#SVGID_5_)" d="M355.087,94.774c13.309,6.384,23.339,19.981,23.82,34.734c0.53,16.267-9.734,30.798-13.284,46.681
				c-3.496,15.642-0.084,32.7,9.16,45.795c8.588,12.165,21.755,20.837,28.91,33.896c11.78,21.502,3.722,49.261-11.728,68.298
				c-14.514,17.884-38.814,31.083-60.413,23.084c-18.989-7.033-29.085-27.411-36.126-46.398
				c-7.041-18.986-13.881-39.794-30.515-51.342c-16.456-11.425-38.039-10.705-57.98-12.631c-19.941-1.927-42.519-9.438-49.34-28.274
				c-4.96-13.695,0.604-29.597,10.81-39.989c10.206-10.392,24.278-16.088,38.382-19.727c14.104-3.64,28.645-5.506,42.592-9.708
				c22.223-6.696,41.931-19.33,58.029-35.941C320.866,89.361,336.426,85.823,355.087,94.774z"/>
		</g>
	</g>
	<g>
		
			<image overflow="visible" opacity="0.45" width="359" height="307" xlink:href="9835455A.png"  transform="matrix(1 0 0 1 72 111)">
		</image>
		<g>
			<linearGradient id="SVGID_6_" gradientUnits="userSpaceOnUse" x1="101.213" y1="253.1528" x2="405.787" y2="253.1528">
				<stop  offset="0" style="stop-color:#3000FF"/>
				<stop  offset="1" style="stop-color:#FF31B0"/>
			</linearGradient>
			<path fill="url(#SVGID_6_)" d="M122.533,127h261.933c16.715,0,26.909,18.383,18.055,32.561L271.555,369.294
				c-8.336,13.349-27.775,13.349-36.111,0L104.478,159.561C95.625,145.383,105.818,127,122.533,127z"/>
		</g>
	</g>
	<g>
		
			<image overflow="visible" opacity="0.45" width="301" height="261" xlink:href="98354555.png"  transform="matrix(1 0 0 1 101 127)">
		</image>
		<g>
			<path fill="#FFFFFF" d="M253.5,143H151.388c-16.715,0-26.909,18.383-18.055,32.561l102.112,163.525
				c8.336,13.349,27.775,13.349,36.111,0l102.112-163.525c8.853-14.178-1.34-32.561-18.055-32.561H253.5z"/>
		</g>
	</g>
	<g>
		
			<image overflow="visible" opacity="0.45" width="134" height="134" xlink:href="98354556.png"  transform="matrix(1 0 0 1 43 83)">
		</image>
		<g>
			<linearGradient id="SVGID_7_" gradientUnits="userSpaceOnUse" x1="81.4546" y1="169.9554" x2="148.4545" y2="103.2055">
				<stop  offset="0" style="stop-color:#36DEFF"/>
				<stop  offset="1" style="stop-color:#F500FF"/>
			</linearGradient>
			<path fill="url(#SVGID_7_)" d="M128.844,169.213c-12.856,12.856-33.701,12.856-46.557,0c-12.856-12.856-12.856-33.701,0-46.557
				c12.856-12.856,52.107-31.263,64.963-18.406C160.106,117.106,141.7,156.357,128.844,169.213z"/>
		</g>
	</g>
	<g>
		
			<image overflow="visible" opacity="0.45" width="89" height="89" xlink:href="98354557.png"  transform="matrix(1 0 0 1 236.1436 374.1436)">
		</image>
		<g>
			<path fill="#FFFFFF" d="M293.077,431.213c-8.503,8.503-22.288,8.503-30.79,0c-8.503-8.503-8.503-22.288,0-30.79
				c8.503-8.503,34.461-20.675,42.963-12.173S301.58,422.711,293.077,431.213z"/>
		</g>
	</g>
	<g>
		
			<image overflow="visible" opacity="0.45" width="89" height="89" xlink:href="98354569.png"  transform="matrix(1 0 0 1 161.1436 312.1436)">
		</image>
		<g>
			<linearGradient id="SVGID_8_" gradientUnits="userSpaceOnUse" x1="180.9099" y1="349.4772" x2="233.1357" y2="349.4772">
				<stop  offset="0" style="stop-color:#FFB50F"/>
				<stop  offset="1" style="stop-color:#FF31B0"/>
			</linearGradient>
			<path fill="url(#SVGID_8_)" d="M218.077,369.213c-8.502,8.503-22.288,8.503-30.79,0c-8.502-8.503-8.502-22.288,0-30.79
				c8.503-8.503,34.461-20.675,42.963-12.173C238.752,334.753,226.58,360.711,218.077,369.213z"/>
		</g>
	</g>
	<g>
		
			<image overflow="visible" opacity="0.45" width="40" height="40" xlink:href="FFB305E2.png"  transform="matrix(1 0 0 1 300.3263 48.3263)">
		</image>
		<g>
			<linearGradient id="SVGID_9_" gradientUnits="userSpaceOnUse" x1="309.5464" y1="64.7318" x2="331.9901" y2="64.7318">
				<stop  offset="0" style="stop-color:#00E057"/>
				<stop  offset="0.9667" style="stop-color:#00D6FF"/>
			</linearGradient>
			<path fill="url(#SVGID_9_)" d="M325.519,73.213c-3.654,3.654-9.578,3.654-13.232,0s-3.654-9.578,0-13.232
				s14.809-8.885,18.463-5.231S329.173,69.559,325.519,73.213z"/>
		</g>
	</g>
	<g>
		<path fill="#FFFFFF" d="M366.612,221.448c-0.731,0-1.473-0.201-2.137-0.621c-1.866-1.182-2.421-3.653-1.238-5.52l10.166-16.052
			c1.182-1.865,3.652-2.421,5.52-1.239c1.866,1.182,2.421,3.653,1.238,5.52l-10.166,16.052
			C369.234,220.79,367.938,221.448,366.612,221.448z M392.83,180.052c-0.731,0-1.473-0.201-2.137-0.621
			c-1.866-1.182-2.421-3.653-1.238-5.52l10.166-16.052c1.181-1.865,3.653-2.42,5.52-1.239c1.866,1.182,2.421,3.653,1.238,5.52
			l-10.166,16.052C395.452,179.394,394.155,180.052,392.83,180.052z"/>
	</g>
	<g>
		<path fill="#FFFFFF" d="M168.613,158.448c-0.732,0-1.472-0.201-2.136-0.621c-1.866-1.182-2.421-3.653-1.239-5.52l10.166-16.052
			c1.182-1.865,3.652-2.421,5.52-1.239c1.866,1.182,2.421,3.653,1.239,5.52l-10.165,16.052
			C171.234,157.79,169.938,158.448,168.613,158.448z M194.83,117.052c-0.732,0-1.472-0.201-2.136-0.621
			c-1.866-1.182-2.421-3.653-1.239-5.52l10.166-16.052c1.183-1.866,3.653-2.421,5.52-1.239c1.866,1.182,2.421,3.653,1.239,5.52
			l-10.166,16.052C197.452,116.394,196.155,117.052,194.83,117.052z"/>
	</g>
	<g>
		<linearGradient id="SVGID_10_" gradientUnits="userSpaceOnUse" x1="351.6156" y1="111.724" x2="396.0006" y2="111.724">
			<stop  offset="0" style="stop-color:#3000FF"/>
			<stop  offset="1" style="stop-color:#FF31B0"/>
		</linearGradient>
		<path fill="url(#SVGID_10_)" d="M355.612,144.448c-0.731,0-1.473-0.201-2.137-0.621c-1.866-1.182-2.421-3.653-1.238-5.52
			l10.166-16.052c1.182-1.865,3.652-2.42,5.52-1.239c1.866,1.182,2.421,3.653,1.238,5.52l-10.166,16.052
			C358.234,143.79,356.938,144.448,355.612,144.448z M381.83,103.052c-0.731,0-1.473-0.201-2.137-0.621
			c-1.866-1.182-2.421-3.653-1.238-5.52l10.166-16.052c1.181-1.865,3.653-2.421,5.52-1.239c1.866,1.182,2.421,3.653,1.238,5.52
			l-10.166,16.052C384.452,102.394,383.155,103.052,381.83,103.052z"/>
	</g>
	<g>
		<path fill="#FFFFFF" d="M335.996,336.001c-0.732,0-1.472-0.201-2.135-0.621c-1.867-1.182-2.423-3.652-1.241-5.519l2.394-3.782
			c1.182-1.867,3.655-2.422,5.518-1.241c1.867,1.182,2.423,3.652,1.241,5.519l-2.393,3.782
			C338.619,335.342,337.321,336.001,335.996,336.001z M354.432,306.868c-0.731,0-1.472-0.201-2.135-0.621
			c-1.867-1.181-2.423-3.652-1.241-5.519l10.16-16.056c1.181-1.867,3.655-2.422,5.519-1.241c1.867,1.181,2.423,3.652,1.241,5.519
			l-10.16,16.056C357.055,306.209,355.757,306.868,354.432,306.868z M380.634,265.462c-0.732,0-1.472-0.201-2.135-0.621
			c-1.867-1.182-2.423-3.652-1.241-5.518l10.16-16.056c1.182-1.866,3.655-2.423,5.518-1.241c1.867,1.181,2.423,3.652,1.241,5.519
			l-10.16,16.055C383.257,264.803,381.959,265.462,380.634,265.462z M406.836,224.056c-0.731,0-1.472-0.2-2.135-0.621
			c-1.867-1.181-2.423-3.652-1.241-5.519l10.16-16.055c1.181-1.866,3.655-2.422,5.519-1.241c1.867,1.181,2.423,3.652,1.241,5.519
			l-10.16,16.055C409.459,223.397,408.161,224.056,406.836,224.056z"/>
	</g>
	<g>
		<path fill="#FFFFFF" d="M179.315,317.494c-1.327,0-2.625-0.66-3.386-1.865l-10.146-16.064c-1.18-1.867-0.622-4.338,1.246-5.518
			c1.867-1.18,4.338-0.621,5.518,1.246l10.146,16.064c1.18,1.867,0.622,4.338-1.246,5.518
			C180.785,317.294,180.045,317.494,179.315,317.494z M153.15,276.065c-1.327,0-2.625-0.66-3.386-1.865l-10.146-16.064
			c-1.18-1.867-0.622-4.338,1.246-5.518c1.868-1.18,4.339-0.621,5.517,1.246l10.146,16.064c1.18,1.867,0.622,4.338-1.246,5.518
			C154.619,275.865,153.88,276.065,153.15,276.065z"/>
	</g>
	<g>
		<linearGradient id="SVGID_11_" gradientUnits="userSpaceOnUse" x1="59.7119" y1="142.9999" x2="95.7129" y2="142.9999">
			<stop  offset="0" style="stop-color:#FFB50F"/>
			<stop  offset="1" style="stop-color:#FF31B0"/>
		</linearGradient>
		<path fill="url(#SVGID_11_)" d="M91.716,169.501c-1.336,0-2.642-0.669-3.4-1.887l-2.113-3.396
			c-1.168-1.876-0.593-4.342,1.283-5.509c1.875-1.168,4.342-0.593,5.509,1.283l2.113,3.396c1.168,1.876,0.593,4.342-1.283,5.509
			C93.168,169.305,92.438,169.501,91.716,169.501z M73.754,140.632c-1.336,0-2.642-0.669-3.4-1.887l-10.038-16.132
			c-1.167-1.876-0.593-4.342,1.283-5.509c1.876-1.167,4.342-0.593,5.509,1.283l10.038,16.132c1.167,1.876,0.593,4.342-1.283,5.509
			C75.206,140.437,74.475,140.632,73.754,140.632z"/>
	</g>
</g>
<g id="DESIGNED_BY_FREEPIK" display="none">
</g>
</svg>
