<?xml version="1.0" encoding="utf-8"?>
<!-- Generator: Adobe Illustrator 22.1.0, SVG Export Plug-In . SVG Version: 6.00 Build 0)  -->
<svg version="1.1" id="Слой_1" xmlns="http://www.w3.org/2000/svg" xmlns:xlink="http://www.w3.org/1999/xlink" x="0px" y="0px"
	 viewBox="0 0 3000 2000" enable-background="new 0 0 3000 2000" xml:space="preserve">
<linearGradient id="SVGID_1_" gradientUnits="userSpaceOnUse" x1="3103.5095" y1="-317.3813" x2="-830.6746" y2="2914.792">
	<stop  offset="0" style="stop-color:#8FD4FF"/>
	<stop  offset="1" style="stop-color:#1355BF"/>
</linearGradient>
<rect display="none" fill="url(#SVGID_1_)" width="3000" height="2000"/>
<g>
	<g>
		<path fill="#2B5DAD" d="M443.562,1285.545c0,0-291.433-367.845-168.566-350.313c122.867,17.532,223.716,186.404,223.716,186.404
			s-116.569-452.029-78.857-472.975c37.712-20.945,29.095-61.64-9.509-166.719s107.724-36.875,125.982,36.784
			c18.258,73.658,75.364,268.037,141.61,317.473c66.246,49.436,99.829,85.077,99.829,85.077l414.907-365.249
			c0,0,129.123-143.248,205.101-166.09c75.978-22.843-55.136,130.547-44.496,141.794c10.64,11.247,257.035-307.868,325.792-244.886
			c68.757,62.983-146.13,240.491-146.13,240.491l566.479,28.692c0,0,250.954-3.188,285.937-62.911
			c34.982-59.723,91.188-59.723,124.656-59.723c33.467,0,133.568,28.229,53.666,74.178c-79.903,45.949-83.635,54.21-68.709,117.209
			c14.926,62.999-62.42,182.204-151.196,223.646s-208.583,189.784-208.583,189.784l4.313,141.813
			c0,0,415.268-286.661,467.46-223.395c52.191,63.267-221.607,244.951-221.607,244.951s2.479,87.236-20.45,150.632
			c-22.929,63.395-119.189,65.936-177.786,96.448s255.276-13.4,292.758-102.723c37.48-89.322,306.149-176.859,268.834-78.327
			c-37.314,98.533-70.292,151.69-70.292,151.69s99.772,11.567,73.838,74.6s-265.619,102.915-349.144,104.173
			c-83.525,1.257-1538.563-9.603-1538.563-9.603L443.562,1285.545z"/>
		<polygon fill="#1B45A1" points="959.054,1363.82 988.49,1565.752 2114.855,1594.911 2142.673,1358.082 		"/>
		<g>
			<linearGradient id="SVGID_2_" gradientUnits="userSpaceOnUse" x1="729.1172" y1="1381.6561" x2="706.6939" y2="701.4861">
				<stop  offset="0" style="stop-color:#2A66C6"/>
				<stop  offset="1" style="stop-color:#79C3F0"/>
			</linearGradient>
			<path fill="url(#SVGID_2_)" d="M1042.642,1580.371c0,0-52.962-537.941-339.941-702.62S401.049,692.007,401.049,692.007
				s-16.261,381.88,175.745,616.611c192.006,234.731,396.015,281.933,396.015,281.933L1042.642,1580.371z"/>
			<linearGradient id="SVGID_3_" gradientUnits="userSpaceOnUse" x1="931.2364" y1="1659.2605" x2="228.14" y2="1224.6836">
				<stop  offset="0" style="stop-color:#2A66C6"/>
				<stop  offset="1" style="stop-color:#79C3F0"/>
			</linearGradient>
			<path fill="url(#SVGID_3_)" d="M931.748,1597.315c0,0-79.619-294.119-316.935-346.234
				c-237.316-52.115-371.375,15.144-371.375,15.144s125.635,353.95,309.837,374.494
				C760.845,1663.869,931.748,1597.315,931.748,1597.315z"/>
			<g>
				<path fill="#65ACE4" d="M946.385,1599.425c-1.044,0-2.09-0.383-2.91-1.156c-0.76-0.716-77.353-72.477-195.098-144.532
					c-108.5-66.397-275.152-146.646-452.918-151.877c-2.342-0.068-4.185-2.023-4.116-4.366c0.069-2.343,1.998-4.171,4.366-4.116
					c79.393,2.337,163.176,19.512,249.021,51.049c68.593,25.2,138.657,59.576,208.244,102.175
					c118.447,72.509,195.559,144.772,196.323,145.494c1.705,1.607,1.783,4.293,0.176,5.998
					C948.638,1598.978,947.513,1599.425,946.385,1599.425z"/>
			</g>
			<g>
				<path fill="#65ACE4" d="M974.939,1569.996c-1.746,0-3.382-1.086-3.999-2.825c-0.548-1.545-55.91-156.617-152.007-344.465
					c-54.26-106.064-135.106-180.824-213.29-253.124c-60.353-55.809-117.359-108.524-154.606-170.191
					c-1.212-2.006-0.568-4.614,1.438-5.825c2.006-1.213,4.615-0.568,5.826,1.438c36.626,60.638,93.204,112.957,153.104,168.348
					c78.729,72.803,160.137,148.083,215.083,255.489c96.367,188.376,151.9,343.943,152.45,345.492
					c0.783,2.209-0.372,4.634-2.58,5.418C975.89,1569.917,975.41,1569.996,974.939,1569.996z"/>
			</g>
			<g>
				<path fill="#65ACE4" d="M383.39,1442.563c-1.454,0-2.871-0.749-3.661-2.093c-1.188-2.02-0.514-4.621,1.506-5.809
					c62.973-37.041,123.512-51.519,163.209-57.142c43.103-6.103,70.942-3.465,72.106-3.351c2.331,0.231,4.033,2.308,3.803,4.639
					c-0.23,2.331-2.317,4.029-4.638,3.807c-0.277-0.027-28.208-2.652-70.377,3.351c-38.866,5.533-98.139,19.742-159.8,56.011
					C384.861,1442.374,384.121,1442.563,383.39,1442.563z"/>
			</g>
			<g>
				<path fill="#65ACE4" d="M496.153,1555.548c-1.104,0-2.207-0.428-3.039-1.281c-1.636-1.679-1.601-4.364,0.077-6
					c0.939-0.915,23.46-22.678,65.341-47.05c38.583-22.452,101.476-51.278,181.985-61.105c2.324-0.291,4.442,1.372,4.726,3.698
					c0.284,2.326-1.372,4.441-3.698,4.726c-79.078,9.652-140.85,37.965-178.745,60.017c-40.984,23.85-63.464,45.575-63.686,45.791
					C498.29,1555.147,497.221,1555.548,496.153,1555.548z"/>
			</g>
			<g>
				<path fill="#65ACE4" d="M647.763,1062.495c-6.065,0-12.565-0.129-19.463-0.434c-40.103-1.772-101.524-10.156-166.395-40.033
					c-2.129-0.98-3.06-3.501-2.079-5.63c0.98-2.128,3.502-3.058,5.629-2.079c63.621,29.303,123.875,37.525,163.219,39.264
					c42.557,1.882,70.287-3.192,70.561-3.244c2.301-0.428,4.52,1.087,4.951,3.391c0.431,2.304-1.087,4.521-3.391,4.951
					C699.818,1058.863,679.966,1062.495,647.763,1062.495z"/>
			</g>
			<g>
				<path fill="#65ACE4" d="M715.03,1213.092c-39.57,0-94.591-4.654-164.054-21.517c-2.277-0.553-3.675-2.847-3.123-5.124
					c0.553-2.276,2.848-3.674,5.124-3.122c88.629,21.514,153.289,22.92,191.923,20.31c41.827-2.825,62.989-10.833,63.197-10.913
					c2.188-0.841,4.642,0.242,5.486,2.426c0.846,2.184-0.235,4.639-2.417,5.486c-0.887,0.345-22.209,8.471-65.123,11.429
					C737.074,1212.685,726.727,1213.092,715.03,1213.092z"/>
			</g>
		</g>
		<path fill="#1B45A1" d="M2477.408,1619.575c-24.226-9.588-52.859-19.955-82.931-31.105
			c-143.437-53.182-576.159-112.619-921.264-89.313c-95.075,6.421-366.428,40.109-498.274,41.692
			c-145.249,1.743-71.746,66.077-427.93,79.596c-356.185,13.519-192.982,49.548-47.251,84.879
			c96.052,23.287,370.549,15.877,649.974,8.118c-8.34,1.089-7.372,1.12,4.912-0.137c44.334-1.23,88.764-2.466,132.602-3.584
			c163.126,1.936,399.963,17.621,575.225,19.065c233.127,1.922,691.306,14.135,731.666-39.751
			C2614.516,1661.828,2559.17,1637.335,2477.408,1619.575z"/>
		<linearGradient id="SVGID_4_" gradientUnits="userSpaceOnUse" x1="588.9" y1="665.5287" x2="1186.1519" y2="306.6169">
			<stop  offset="0" style="stop-color:#6BBEFF"/>
			<stop  offset="1" style="stop-color:#0C3AA1"/>
		</linearGradient>
		<path fill="url(#SVGID_4_)" d="M995.315,600.111c1.039-9.292,1.59-18.73,1.59-28.3c0-5.049-0.166-10.059-0.459-15.035
			l-46.762-15.129c-2.878-19.715-8.532-38.527-16.557-56.028l31.006-38.155c-7.172-12.62-15.395-24.564-24.562-35.704l-46.768,15.26
			c-13.631-13.926-29.208-25.935-46.298-35.587l2.661-49.136c-13.052-5.941-26.697-10.803-40.826-14.469l-28.879,39.852
			c-11.256-1.895-22.815-2.896-34.611-2.896c-8.04,0-15.969,0.475-23.77,1.367l-26.737-41.327
			c-14.326,2.914-28.208,7.043-41.539,12.275l0.061,49.209c-17.608,8.748-33.794,19.924-48.117,33.098l-45.882-17.704
			c-9.75,10.653-18.601,22.142-26.422,34.355l28.955,39.749c-8.962,17.09-15.612,35.583-19.52,55.069l-47.491,12.638
			c-1.038,9.292-1.59,18.73-1.59,28.299c0,5.049,0.166,10.059,0.459,15.035l46.762,15.13c2.878,19.715,8.532,38.527,16.557,56.028
			l-31.006,38.155c7.172,12.62,15.394,24.565,24.562,35.705l46.769-15.26c13.63,13.926,29.208,25.936,46.297,35.587l-2.661,49.136
			c13.051,5.941,26.697,10.803,40.826,14.469l28.879-39.853c11.256,1.895,22.816,2.896,34.61,2.896
			c8.041,0,15.969-0.474,23.771-1.366l26.736,41.327c14.325-2.914,28.208-7.043,41.539-12.275l-0.061-49.209
			c17.607-8.748,33.793-19.924,48.117-33.098l45.882,17.703c9.75-10.653,18.601-22.142,26.422-34.354l-28.955-39.749
			c8.962-17.091,15.611-35.583,19.52-55.069L995.315,600.111z M744.852,670.672c-54.599,0-98.86-44.262-98.86-98.861
			c0-54.599,44.262-98.86,98.86-98.86c54.599,0,98.861,44.261,98.861,98.86C843.712,626.41,799.451,670.672,744.852,670.672z"/>
		<g>
			<linearGradient id="SVGID_5_" gradientUnits="userSpaceOnUse" x1="2483.7214" y1="1137.4291" x2="1959.3713" y2="1726.2714">
				<stop  offset="0" style="stop-color:#6BBEFF"/>
				<stop  offset="1" style="stop-color:#0C3AA1"/>
			</linearGradient>
			<path fill="url(#SVGID_5_)" d="M2566.081,1505.742c6.256-9.646,12.059-19.723,17.325-30.246
				c2.779-5.552,5.354-11.152,7.771-16.786l-43.097-42.376c7.686-23.266,11.823-47.065,12.63-70.729l55.1-24.893
				c-0.94-17.826-3.408-35.486-7.358-52.783l-59.831-8.961c-7.324-22.817-17.845-44.598-31.325-64.618l29.971-52.571
				c-11.083-13.718-23.413-26.575-36.933-38.383l-53.693,27.93c-11.336-8.279-23.496-15.742-36.468-22.234
				c-8.842-4.426-17.822-8.269-26.893-11.582l-6.655-60.164c-17.357-4.681-34.898-7.78-52.438-9.364l-27.018,54.148
				c-24.179-0.071-48.13,3.311-71.133,9.914l-40.713-44.723c-16.585,6.349-32.643,14.111-47.967,23.236l9.964,59.649
				c-19.264,13.861-36.754,30.538-51.777,49.815l-59.183-12.243c-6.256,9.647-12.059,19.724-17.326,30.246
				c-2.779,5.553-5.354,11.153-7.771,16.787l43.097,42.377c-7.687,23.265-11.823,47.064-12.631,70.728l-55.099,24.893
				c0.94,17.825,3.408,35.486,7.357,52.783l59.831,8.961c7.325,22.817,17.846,44.598,31.326,64.618l-29.971,52.571
				c11.082,13.718,23.412,26.574,36.932,38.383l53.694-27.93c11.335,8.279,23.496,15.742,36.467,22.234
				c8.843,4.426,17.823,8.269,26.894,11.582l6.655,60.164c17.357,4.681,34.897,7.78,52.437,9.364l27.019-54.148
				c24.179,0.071,48.13-3.311,71.133-9.914l40.712,44.723c16.586-6.35,32.644-14.111,47.967-23.236l-9.963-59.649
				c19.263-13.861,36.754-30.538,51.777-49.815L2566.081,1505.742z M2251.807,1445.479
				c-60.043-30.052-84.355-103.089-54.304-163.132c30.053-60.044,103.09-84.355,163.133-54.304
				c60.044,30.053,84.355,103.09,54.303,163.133C2384.887,1451.22,2311.85,1475.531,2251.807,1445.479z"/>
			<g>
				<path fill="#FFFFFF" d="M2394.48,1535.909c-1.926,0-3.761-1.118-4.583-2.994c-1.107-2.529,0.044-5.479,2.573-6.587
					c43.671-19.137,79.495-53.198,100.872-95.91c10.237-20.451,16.944-42.209,19.935-64.668c0.364-2.736,2.861-4.666,5.616-4.296
					c2.737,0.364,4.66,2.879,4.296,5.616c-3.137,23.56-10.17,46.379-20.904,67.824c-22.421,44.796-59.995,80.521-105.801,100.593
					C2395.831,1535.774,2395.15,1535.909,2394.48,1535.909z"/>
			</g>
			<g>
				<path fill="#FFFFFF" d="M2507.168,1271.43c-2.038,0-3.952-1.255-4.694-3.279c-9.687-26.419-24.362-50.115-43.621-70.431
					c-1.899-2.004-1.815-5.168,0.189-7.068c2.003-1.898,5.168-1.814,7.068,0.189c20.201,21.31,35.594,46.162,45.752,73.866
					c0.95,2.593-0.381,5.466-2.973,6.416C2508.321,1271.331,2507.74,1271.43,2507.168,1271.43z"/>
			</g>
			<g>
				<path fill="#FFFFFF" d="M2404.066,1156.038c-0.752,0-1.516-0.17-2.234-0.529c-15.229-7.622-31.3-13.326-47.768-16.953
					c-2.697-0.594-4.401-3.262-3.808-5.958c0.594-2.697,3.259-4.404,5.958-3.808c17.273,3.804,34.127,9.785,50.094,17.775
					c2.469,1.236,3.469,4.24,2.233,6.71C2407.665,1155.026,2405.899,1156.038,2404.066,1156.038z"/>
			</g>
		</g>
		
			<linearGradient id="SVGID_6_" gradientUnits="userSpaceOnUse" x1="2369.4492" y1="610.0033" x2="2341.4075" y2="1142.7908" gradientTransform="matrix(0.989 -0.1476 0.1476 0.989 -168.1482 477.6554)">
			<stop  offset="0" style="stop-color:#6BBEFF"/>
			<stop  offset="1" style="stop-color:#0C3AA1"/>
		</linearGradient>
		<path fill="url(#SVGID_6_)" d="M2223.576,1109.029c6.888,2.222,13.962,4.097,21.221,5.573c3.829,0.779,7.655,1.427,11.475,1.973
			l18.693-33.135c15.398,0.859,30.54-0.526,45.054-3.912l24.155,29.407c10.68-3.492,21.01-7.886,30.874-13.12l-4.357-37.83
			c12.667-8.189,24.181-18.152,34.14-29.625l36.859,9.601c6.521-8.982,12.314-18.583,17.276-28.734l-25.771-28.055
			c3.174-8.246,5.718-16.859,7.538-25.806c1.24-6.099,2.104-12.186,2.632-18.242l35.475-13.902c0-11.316-0.989-22.484-2.9-33.402
			l-37.336-7.548c-3.918-14.706-9.897-28.708-17.68-41.606l20.51-32.07c-6.576-9.039-13.925-17.526-21.981-25.344l-34.619,15.828
			c-11.58-9.435-24.581-17.333-38.758-23.305l-2.257-37.974c-6.888-2.222-13.962-4.097-21.22-5.574
			c-3.83-0.779-7.656-1.427-11.476-1.973l-18.693,33.135c-15.398-0.859-30.54,0.525-45.054,3.912l-24.156-29.408
			c-10.68,3.492-21.009,7.886-30.873,13.12l4.357,37.83c-12.667,8.19-24.181,18.152-34.139,29.625l-36.861-9.601
			c-6.521,8.982-12.314,18.583-17.275,28.734l25.771,28.056c-3.174,8.246-5.718,16.859-7.538,25.806
			c-1.241,6.099-2.104,12.187-2.632,18.242l-35.475,13.902c0,11.316,0.989,22.484,2.9,33.402l37.336,7.548
			c3.918,14.706,9.896,28.708,17.68,41.607l-20.51,32.07c6.576,9.039,13.924,17.526,21.98,25.344l34.619-15.828
			c11.58,9.436,24.582,17.333,38.759,23.306L2223.576,1109.029z M2208.709,908.156c8.426-41.415,48.83-68.157,90.245-59.731
			c41.415,8.426,68.157,48.831,59.731,90.246c-8.428,41.414-48.832,68.157-90.246,59.731
			C2227.024,989.976,2200.282,949.571,2208.709,908.156z"/>
		
			<linearGradient id="SVGID_7_" gradientUnits="userSpaceOnUse" x1="2369.05" y1="609.9824" x2="2341.0085" y2="1142.7695" gradientTransform="matrix(0.989 -0.1476 0.1476 0.989 -168.1482 477.6554)">
			<stop  offset="0" style="stop-color:#6BBEFF"/>
			<stop  offset="1" style="stop-color:#0C3AA1"/>
		</linearGradient>
		<circle fill="url(#SVGID_7_)" cx="2282.574" cy="915.892" r="45.994"/>
		<g>
			<path fill="#3B77D9" d="M1742.134,1567.441v-209.359h-484.972v209.359H1099.48c-29.272,0-53.002,23.73-53.002,53.003v12.884
				c0,9.516,7.714,17.229,17.23,17.229h871.88c9.516,0,17.23-7.714,17.23-17.229v-12.884c0-29.272-23.73-53.003-53.002-53.003
				H1742.134z"/>
			<g>
				<polygon fill="#1F57B5" points="1257.162,1501.598 1742.134,1464.205 1742.134,1376.018 1257.162,1381.155 				"/>
				<polygon fill="#1F57B5" points="1742.134,1533.117 1257.162,1567.441 1742.134,1567.441 				"/>
			</g>
			<g>
				<path fill="#153F9C" d="M2231.523,1405.922H767.772c-14.34,0-25.964-11.625-25.964-25.965v-872.05
					c0-14.34,11.624-25.964,25.964-25.964h1463.751c14.34,0,25.965,11.624,25.965,25.964v872.05
					C2257.488,1394.297,2245.863,1405.922,2231.523,1405.922z"/>
				<path fill="#9DD2F2" d="M2191.532,1312.412H807.764c-12.904,0-23.365-10.461-23.365-23.365V542.976
					c0-12.904,10.461-23.365,23.365-23.365h1383.769c12.903,0,23.365,10.461,23.365,23.365v746.071
					C2214.897,1301.951,2204.436,1312.412,2191.532,1312.412z"/>
			</g>
			<path fill="#2A66C6" d="M1552.642,1376.018h-105.987c-5.83,0-10.6-4.77-10.6-10.599v-3.196c0-5.83,4.77-10.6,10.6-10.6h105.987
				c5.83,0,10.6,4.77,10.6,10.6v3.196C1563.241,1371.248,1558.472,1376.018,1552.642,1376.018z"/>
			<path fill="#79C3F0" d="M1906.969,1607.488h-332.513c-6.168,0-11.215-5.047-11.215-11.215v-2.725
				c0-6.169,5.047-11.216,11.215-11.216h332.513c6.168,0,11.215,5.047,11.215,11.216v2.725
				C1918.184,1602.441,1913.137,1607.488,1906.969,1607.488z"/>
		</g>
		<path opacity="0.3" fill="#99A8C2" d="M1512.895,594.305c75.837,0,175.476-28.531,206.255-37.935
			c4.659-1.423,9.465,1.755,9.465,6.258v210.947c0,163-212.421,295.138-212.421,295.138s-212.421-132.138-212.421-295.138V572.412
			c0-4.32,4.451-7.473,9.01-6.381C1342.071,573.046,1437.077,594.305,1512.895,594.305z"/>
		<g>
			<path fill="#1B45A1" d="M1496.512,576.216c72.068,0,166.755-27.114,196.004-36.049c4.428-1.352,8.995,1.667,8.995,5.946v200.463
				c0,154.899-201.864,280.469-201.864,280.469s-201.864-125.57-201.864-280.469V555.411c0-4.106,4.229-7.102,8.562-6.064
				C1334.18,556.013,1424.464,576.215,1496.512,576.216z"/>
			<path fill="#316CCC" d="M1499.648,609.192c54.069,0,121.288-17.733,155.052-31.722c10.073-4.174,21.479,2.576,21.479,12.712
				v160.864c0,135.46-176.532,245.273-176.532,245.273s-176.532-109.813-176.532-245.273V597.177
				c0-9.732,10.587-16.463,20.534-13.07C1377.093,595.517,1445.07,609.192,1499.648,609.192z"/>
			<path fill="#79C3F0" d="M1501.512,652.827v300.69c0,0-140.397-89.462-140.397-195.766V635.899c0-7.103,7.747-12.002,14.99-9.486
				C1402.326,635.523,1457.881,652.827,1501.512,652.827z"/>
			<path fill="#79C3F0" d="M1501.512,652.827v300.69c0,0,145.41-89.462,145.41-195.766V635.617c0-7.029-7.601-11.934-14.811-9.546
				C1604.901,635.08,1545.696,652.827,1501.512,652.827z"/>
			<path fill="#2A66C6" d="M1446.324,725.201c2.184,1.574,4.274,3.216,6.33,4.883c2.047,1.689,4.086,3.315,6.025,5.153
				c1.948,1.808,3.897,3.633,5.801,5.507c0.943,0.938,1.931,1.868,2.836,2.822l2.713,2.891c1.822,1.923,3.589,3.892,5.35,5.871
				c1.736,1.996,3.386,4.053,5.087,6.086c1.716,2.023,3.283,4.145,4.889,6.248c0.806,1.05,1.599,2.109,2.381,3.176
				c0.786,1.065,1.586,2.123,2.323,3.219c1.512,2.17,2.994,4.362,4.477,6.558c1.459,2.209,2.85,4.463,4.249,6.715
				c1.419,2.24,2.729,4.547,4.046,6.851l1.948,3.473c0.639,1.166,1.234,2.354,1.845,3.534c0.603,1.185,1.23,2.357,1.811,3.555
				l1.698,3.62c1.124,2.412,2.178,4.877,3.183,7.358c1.01,2.488,1.952,4.999,2.846,7.57c0.449,1.283,0.873,2.568,1.293,3.897
				c0.209,0.669,0.425,1.294,0.626,2l0.644,2.205l-27.827-1.673c0.568-1.043,1.045-1.902,1.588-2.822l1.586-2.688
				c1.063-1.78,2.122-3.551,3.207-5.303l6.557-10.44l13.164-20.711c4.427-6.866,8.981-13.646,13.712-20.31
				c4.691-6.688,9.627-13.213,14.646-19.665c5.08-6.412,10.276-12.733,15.705-18.86c5.437-6.121,11.048-12.09,16.884-17.836
				c5.837-5.744,11.972-11.196,18.354-16.321c3.181-2.573,6.474-5.011,9.84-7.331c3.363-2.324,6.801-4.531,10.341-6.55
				c0.723-0.412,1.643-0.16,2.055,0.562c0.364,0.638,0.21,1.43-0.328,1.891c-3.037,2.599-5.964,5.287-8.793,8.066
				c-2.83,2.779-5.552,5.66-8.211,8.59c-2.652,2.938-5.239,5.928-7.732,8.999c-2.494,3.07-4.925,6.186-7.32,9.327
				c-4.772,6.299-9.301,12.781-13.642,19.387c-2.157,3.314-4.306,6.628-6.401,9.979c-2.09,3.355-4.142,6.733-6.157,10.133
				c-4.064,6.779-7.928,13.68-11.759,20.592c-3.804,6.928-7.498,13.917-11.104,20.946c-1.795,3.519-3.567,7.049-5.281,10.607
				c-1.717,3.556-3.343,7.159-4.908,10.785c-1.588,3.613-3.09,7.264-4.564,10.91l-2.194,5.454l-2.079,5.319l-12.77,32.648
				l-15.058-34.321l-5.679-12.944c-0.509-1.109-0.987-2.231-1.464-3.353c-0.461-1.127-1.01-2.23-1.475-3.362l-2.898-6.771
				l-11.571-27.415c-0.954-2.312-2.002-4.579-2.947-6.909l-1.452-3.482l-1.499-3.464c-0.973-2.329-1.997-4.633-2.936-6.999
				c-0.979-2.34-2.026-4.644-2.978-7.019c-0.989-2.352-1.927-4.752-2.924-7.082c-0.994-2.344-1.94-4.735-2.889-7.145
				c-0.901-2.419-1.977-4.854-2.914-7.321c-0.957-2.467-1.879-4.961-2.708-7.522c-0.269-0.83,0.187-1.719,1.016-1.988
				C1445.409,724.82,1445.932,724.922,1446.324,725.201z"/>
			<g>
				<defs>
					<path id="SVGID_8_" d="M1496.512,576.216c72.068,0,166.755-27.114,196.004-36.049c4.428-1.352,8.995,1.667,8.995,5.946v200.463
						c0,154.899-201.864,280.469-201.864,280.469s-201.864-125.57-201.864-280.469V555.411c0-4.106,4.229-7.102,8.562-6.064
						C1334.18,556.013,1424.464,576.215,1496.512,576.216z"/>
				</defs>
				<clipPath id="SVGID_9_">
					<use xlink:href="#SVGID_8_"  overflow="visible"/>
				</clipPath>
				<g clip-path="url(#SVGID_9_)">
					
						<linearGradient id="SVGID_10_" gradientUnits="userSpaceOnUse" x1="2237.3853" y1="444.6049" x2="1775.0374" y2="1182.8951" gradientTransform="matrix(-1 0 0 1 3346.1738 0)">
						<stop  offset="0" style="stop-color:#FFFFFF"/>
						<stop  offset="1" style="stop-color:#000000"/>
					</linearGradient>
					<path fill="url(#SVGID_10_)" d="M1353.356,744.612c18.628,60.745,29.183,156.638,34.121,213.333
						c-52.055-48.531-103.738-105.783-106.342-135.7c-3.257-37.417-9.644-145.318-8.531-220.321
						C1294.117,627.495,1333.698,680.507,1353.356,744.612z"/>
					
						<linearGradient id="SVGID_11_" gradientUnits="userSpaceOnUse" x1="2154.0181" y1="392.3965" x2="1691.6693" y2="1130.6882" gradientTransform="matrix(-1 0 0 1 3346.1738 0)">
						<stop  offset="0" style="stop-color:#FFFFFF"/>
						<stop  offset="1" style="stop-color:#000000"/>
					</linearGradient>
					<path fill="url(#SVGID_11_)" d="M1450.805,865.99c-15.275-70.841-59.163-247.639-176.688-302.476
						c1.722-23.351,4.944-38.426,10.332-38.753c21.529-1.305,46.971,11.09,46.971,11.09
						c114.818-0.652,170.922,173.533,176.142,203.542c5.219,30.009-0.652,295.01-11.743,302.118
						c-2.42,1.551-13.761-5.189-30.067-17.293C1465.336,992.348,1462.973,922.426,1450.805,865.99z"/>
				</g>
			</g>
		</g>
		<g>
			<path opacity="0.5" fill="#99A8C2" d="M2257.488,649.508h-369.195c-5.829,0-10.6,4.769-10.6,10.599v53.88
				c0,5.83,4.771,10.6,10.6,10.6h369.195V649.508z"/>
			<path fill="#316CCC" d="M2366.15,699.859h-502.589c-5.83,0-10.6-4.77-10.6-10.6v-53.88c0-5.83,4.77-10.599,10.6-10.599h502.589
				c5.829,0,10.6,4.77,10.6,10.599v53.88C2376.75,695.09,2371.979,699.859,2366.15,699.859z"/>
			<path fill="#FFFFFF" d="M2354.807,686.324h-479.902c-4.539,0-8.252-3.713-8.252-8.251v-31.506c0-4.538,3.713-8.251,8.252-8.251
				h479.902c4.539,0,8.252,3.713,8.252,8.251v31.506C2363.059,682.611,2359.346,686.324,2354.807,686.324z"/>
			<g>
				<g>
					<path fill="#316CCC" d="M1923.029,677.191c-2.188,0-3.978-1.789-3.978-3.977v-23.866c0-2.188,1.79-3.978,3.978-3.978
						c2.188,0,3.979,1.79,3.979,3.978v23.866C1927.008,675.402,1925.218,677.191,1923.029,677.191z"/>
					<path fill="#316CCC" d="M1936.324,670.023c-1.202,1.828-3.681,2.34-5.509,1.138l-19.941-13.112
						c-1.828-1.202-2.341-3.681-1.139-5.509c1.202-1.828,3.681-2.34,5.509-1.138l19.941,13.112
						C1937.014,665.715,1937.526,668.194,1936.324,670.023z"/>
					<path fill="#316CCC" d="M1909.948,670.337c-1.245-1.799-0.793-4.289,1.006-5.535l19.623-13.584
						c1.799-1.246,4.289-0.793,5.534,1.006c1.245,1.798,0.793,4.289-1.006,5.534l-19.623,13.585
						C1913.684,672.589,1911.193,672.136,1909.948,670.337z"/>
				</g>
				<g>
					<path fill="#316CCC" d="M1978.936,677.191c-2.188,0-3.979-1.789-3.979-3.977v-23.866c0-2.188,1.79-3.978,3.979-3.978
						c2.188,0,3.978,1.79,3.978,3.978v23.866C1982.913,675.402,1981.123,677.191,1978.936,677.191z"/>
					<path fill="#316CCC" d="M1992.229,670.023c-1.202,1.828-3.681,2.34-5.509,1.138l-19.941-13.112
						c-1.828-1.202-2.341-3.681-1.139-5.509c1.202-1.828,3.682-2.34,5.509-1.138l19.941,13.112
						C1992.919,665.715,1993.432,668.194,1992.229,670.023z"/>
					<path fill="#316CCC" d="M1965.854,670.337c-1.245-1.799-0.793-4.289,1.006-5.535l19.623-13.584
						c1.799-1.246,4.289-0.793,5.534,1.006c1.245,1.798,0.793,4.289-1.006,5.534l-19.623,13.585
						C1969.589,672.589,1967.099,672.136,1965.854,670.337z"/>
				</g>
				<g>
					<path fill="#316CCC" d="M2034.84,677.191c-2.188,0-3.977-1.789-3.977-3.977v-23.866c0-2.188,1.789-3.978,3.977-3.978
						c2.188,0,3.979,1.79,3.979,3.978v23.866C2038.818,675.402,2037.028,677.191,2034.84,677.191z"/>
					<path fill="#316CCC" d="M2048.135,670.023c-1.202,1.828-3.682,2.34-5.509,1.138l-19.941-13.112
						c-1.828-1.202-2.341-3.681-1.139-5.509c1.202-1.828,3.682-2.34,5.509-1.138l19.941,13.112
						C2048.824,665.715,2049.337,668.194,2048.135,670.023z"/>
					<path fill="#316CCC" d="M2021.759,670.337c-1.245-1.799-0.792-4.289,1.007-5.535l19.622-13.584
						c1.799-1.246,4.289-0.793,5.534,1.006c1.245,1.798,0.793,4.289-1.006,5.534l-19.623,13.585
						C2025.494,672.589,2023.004,672.136,2021.759,670.337z"/>
				</g>
				<g>
					<path fill="#316CCC" d="M2090.746,677.191c-2.188,0-3.979-1.789-3.979-3.977v-23.866c0-2.188,1.79-3.978,3.979-3.978
						c2.188,0,3.977,1.79,3.977,3.978v23.866C2094.723,675.402,2092.934,677.191,2090.746,677.191z"/>
					<path fill="#316CCC" d="M2104.04,670.023c-1.202,1.828-3.681,2.34-5.509,1.138l-19.941-13.112
						c-1.828-1.202-2.34-3.681-1.139-5.509c1.202-1.828,3.682-2.34,5.509-1.138l19.941,13.112
						C2104.729,665.715,2105.242,668.194,2104.04,670.023z"/>
					<path fill="#316CCC" d="M2077.664,670.337c-1.245-1.799-0.793-4.289,1.006-5.535l19.623-13.584
						c1.799-1.246,4.289-0.793,5.534,1.006c1.245,1.798,0.793,4.289-1.006,5.534l-19.623,13.585
						C2081.399,672.589,2078.909,672.136,2077.664,670.337z"/>
				</g>
				<g>
					<path fill="#316CCC" d="M2146.651,677.191c-2.188,0-3.979-1.789-3.979-3.977v-23.866c0-2.188,1.79-3.978,3.979-3.978
						c2.188,0,3.978,1.79,3.978,3.978v23.866C2150.629,675.402,2148.839,677.191,2146.651,677.191z"/>
					<path fill="#316CCC" d="M2159.945,670.023c-1.202,1.828-3.681,2.34-5.509,1.138l-19.941-13.112
						c-1.828-1.202-2.341-3.681-1.139-5.509c1.202-1.828,3.681-2.34,5.509-1.138l19.941,13.112
						C2160.635,665.715,2161.147,668.194,2159.945,670.023z"/>
					<path fill="#316CCC" d="M2133.569,670.337c-1.245-1.799-0.793-4.289,1.006-5.535l19.623-13.584
						c1.799-1.246,4.289-0.793,5.534,1.006c1.245,1.798,0.793,4.289-1.006,5.534l-19.623,13.585
						C2137.305,672.589,2134.814,672.136,2133.569,670.337z"/>
				</g>
			</g>
			<path fill="#316CCC" d="M2224.32,674.53h-33.579c-1.415,0-2.573-1.158-2.573-2.573v-0.153c0-1.416,1.158-2.573,2.573-2.573
				h33.579c1.416,0,2.573,1.158,2.573,2.573v0.153C2226.894,673.372,2225.736,674.53,2224.32,674.53z"/>
			<path fill="#316CCC" d="M2281.368,674.53h-33.579c-1.416,0-2.573-1.158-2.573-2.573v-0.153c0-1.416,1.157-2.573,2.573-2.573
				h33.579c1.415,0,2.573,1.158,2.573,2.573v0.153C2283.941,673.372,2282.783,674.53,2281.368,674.53z"/>
			<path fill="#316CCC" d="M2335.754,674.53h-33.58c-1.415,0-2.573-1.158-2.573-2.573v-0.153c0-1.416,1.158-2.573,2.573-2.573h33.58
				c1.415,0,2.572,1.158,2.572,2.573v0.153C2338.326,673.372,2337.169,674.53,2335.754,674.53z"/>
		</g>
		<g>
			<path fill="#FFFFFF" d="M1122.259,908.215l-121.389,121.389c-4.129,4.129-10.887,4.129-15.017,0L864.464,908.215
				c-4.13-4.13-4.13-10.888,0-15.017l121.389-121.389c4.13-4.129,10.888-4.129,15.017,0l121.389,121.389
				C1126.389,897.328,1126.389,904.085,1122.259,908.215z"/>
			<path fill="#79C3F0" d="M1113.312,907.694l-112.963,112.963c-3.843,3.843-10.132,3.843-13.975,0L873.412,907.694
				c-3.843-3.843-3.843-10.131,0-13.975l112.963-112.963c3.843-3.843,10.131-3.843,13.975,0l112.963,112.963
				C1117.155,897.563,1117.155,903.851,1113.312,907.694z"/>
			<path fill="#FFFFFF" d="M1114.968,1053.957H871.755c-5.423,0-9.86-4.438-9.86-9.86V899.484c0-5.423,4.437-9.86,9.86-9.86h243.213
				c5.423,0,9.86,4.437,9.86,9.86v144.613C1124.828,1049.52,1120.391,1053.957,1114.968,1053.957z"/>
			<path opacity="0.3" fill="#79C3F0" d="M1124.828,898.764c0-5.041,0.416-4.993-4.604-8.198c-1.525-0.619-3.326-0.983-5.256-0.983
				c-260.804,0-244.89-0.47-248.469,0.983c-4.863,3.106-4.604,2.971-4.604,8.198c1.14,2.25-7.335-3.633,123.958,80.213
				c4.13,2.637,10.888,2.637,15.017,0C1132.163,895.131,1123.688,901.015,1124.828,898.764z"/>
			<g>
				<ellipse fill="#3973CF" cx="1047.608" cy="769.798" rx="54.641" ry="37.037"/>
				<path fill="#3973CF" d="M1070.067,825.733h-44.917c-5.423,0-9.86-4.437-9.86-9.86v-23.006c0-5.423,4.437-9.86,9.86-9.86h44.917
					c5.423,0,9.86,4.437,9.86,9.86v23.006C1079.927,821.296,1075.49,825.733,1070.067,825.733z"/>
				<path fill="#1B45A1" d="M1042.13,764.071c0,9.076-6.009,25.509-13.42,25.509c-7.412,0-13.367-7.44-15.886-16.16
					c-3.56-12.325,4.111-17.379,11.23-19.446C1032.544,751.509,1042.13,754.995,1042.13,764.071z"/>
				<path fill="#1B45A1" d="M1051.364,764.071c0,9.076,6.008,25.509,13.42,25.509s13.367-7.44,15.886-16.16
					c3.561-12.325-4.111-17.379-11.229-19.446C1060.95,751.509,1051.364,754.995,1051.364,764.071z"/>
				<path fill="#1B45A1" d="M1047.608,785.198c6.026,0,7.943,19.994,5.204,20.815c-2.739,0.822-8.491,1.643-10.682,0
					C1039.939,804.37,1043.226,785.198,1047.608,785.198z"/>
			</g>
			<g>
				<ellipse fill="#3973CF" cx="939.218" cy="659.62" rx="57.471" ry="38.956"/>
				<path fill="#3973CF" d="M962.84,718.452h-47.244c-5.704,0-10.371-4.667-10.371-10.371v-24.198
					c0-5.704,4.667-10.371,10.371-10.371h47.244c5.704,0,10.371,4.667,10.371,10.371v24.198
					C973.211,713.786,968.544,718.452,962.84,718.452z"/>
				<path fill="#1B45A1" d="M933.456,653.596c0,9.546-6.32,26.83-14.116,26.83s-14.059-7.825-16.708-16.996
					c-3.745-12.963,4.325-18.28,11.811-20.454C923.374,640.384,933.456,644.05,933.456,653.596z"/>
				<path fill="#1B45A1" d="M943.168,653.596c0,9.546,6.32,26.83,14.116,26.83c7.796,0,14.059-7.825,16.708-16.996
					c3.745-12.963-4.324-18.28-11.811-20.454C953.251,640.384,943.168,644.05,943.168,653.596z"/>
				<path fill="#1B45A1" d="M939.218,675.817c6.338,0,8.354,21.029,5.474,21.893c-2.881,0.864-8.93,1.729-11.235,0
					C931.152,695.982,934.609,675.817,939.218,675.817z"/>
			</g>
			<g>
				<ellipse fill="#3973CF" cx="1144.08" cy="641.262" rx="30.609" ry="20.748"/>
				<path fill="#3973CF" d="M1156.662,672.597h-25.163c-3.038,0-5.523-2.486-5.523-5.524v-12.888c0-3.038,2.485-5.524,5.523-5.524
					h25.163c3.038,0,5.523,2.486,5.523,5.524v12.888C1162.185,670.111,1159.699,672.597,1156.662,672.597z"/>
				<path fill="#1B45A1" d="M1141.012,638.054c0,5.084-3.366,14.29-7.518,14.29c-4.152,0-7.488-4.168-8.899-9.052
					c-1.995-6.905,2.303-9.736,6.291-10.894C1135.642,631.017,1141.012,632.97,1141.012,638.054z"/>
				<path fill="#1B45A1" d="M1146.184,638.054c0,5.084,3.366,14.29,7.518,14.29c4.152,0,7.488-4.168,8.899-9.052
					c1.995-6.905-2.303-9.736-6.291-10.894C1151.554,631.017,1146.184,632.97,1146.184,638.054z"/>
				<path fill="#1B45A1" d="M1144.08,649.889c3.375,0,4.45,11.201,2.915,11.661c-1.534,0.461-4.756,0.921-5.983,0
					C1139.784,660.629,1141.625,649.889,1144.08,649.889z"/>
			</g>
			<g>
				<ellipse fill="#3973CF" cx="942.677" cy="851.98" rx="30.609" ry="20.748"/>
				<path fill="#3973CF" d="M955.259,883.315h-25.163c-3.038,0-5.524-2.486-5.524-5.524v-12.888c0-3.038,2.486-5.524,5.524-5.524
					h25.163c3.038,0,5.523,2.486,5.523,5.524v12.888C960.782,880.829,958.296,883.315,955.259,883.315z"/>
				<path fill="#1B45A1" d="M939.609,848.772c0,5.084-3.366,14.29-7.518,14.29c-4.152,0-7.488-4.168-8.899-9.052
					c-1.994-6.905,2.303-9.736,6.291-10.894C934.239,841.735,939.609,843.688,939.609,848.772z"/>
				<path fill="#1B45A1" d="M944.781,848.772c0,5.084,3.366,14.29,7.518,14.29c4.152,0,7.488-4.168,8.899-9.052
					c1.995-6.905-2.303-9.736-6.291-10.894C950.151,841.735,944.781,843.688,944.781,848.772z"/>
				<path fill="#1B45A1" d="M942.677,860.607c3.375,0,4.45,11.201,2.915,11.661c-1.534,0.46-4.756,0.921-5.983,0
					C938.381,871.347,940.223,860.607,942.677,860.607z"/>
			</g>
			<g>
				<ellipse fill="#3973CF" cx="1035.225" cy="501.427" rx="71.562" ry="48.507"/>
				<path fill="#3973CF" d="M1064.638,574.685h-58.828c-7.102,0-12.913-5.811-12.913-12.914V531.64
					c0-7.102,5.811-12.913,12.913-12.913h58.828c7.103,0,12.914,5.811,12.914,12.913v30.131
					C1077.552,568.873,1071.741,574.685,1064.638,574.685z"/>
				<path fill="#1B45A1" d="M1028.05,493.927c0,11.886-7.869,33.409-17.577,33.409c-9.707,0-17.506-9.744-20.805-21.163
					c-4.663-16.142,5.385-22.762,14.707-25.468C1015.496,477.476,1028.05,482.04,1028.05,493.927z"/>
				<path fill="#1B45A1" d="M1040.143,493.927c0,11.886,7.869,33.409,17.577,33.409c9.707,0,17.506-9.744,20.805-21.163
					c4.663-16.142-5.384-22.762-14.707-25.468C1052.698,477.476,1040.143,482.04,1040.143,493.927z"/>
				<path fill="#1B45A1" d="M1035.225,521.596c7.892,0,10.402,26.185,6.815,27.261c-3.587,1.076-11.12,2.152-13.99,0
					C1025.181,546.706,1029.485,521.596,1035.225,521.596z"/>
			</g>
			<path fill="#3973CF" d="M1103.259,1017.393h-88.665c-1.469,0-2.67-1.202-2.67-2.67c0-1.469,1.202-2.671,2.67-2.671h88.665
				c1.469,0,2.67,1.202,2.67,2.671C1105.93,1016.19,1104.728,1017.393,1103.259,1017.393z"/>
			<path fill="#3973CF" d="M1103.259,1028.896h-88.665c-1.469,0-2.67-1.201-2.67-2.67s1.202-2.671,2.67-2.671h88.665
				c1.469,0,2.67,1.202,2.67,2.671S1104.728,1028.896,1103.259,1028.896z"/>
			<g>
				<g>
					<path fill="#FB8627" d="M1035.644,561.709c-45.246,0-82.057-36.811-82.057-82.057s36.811-82.056,82.057-82.056
						c45.246,0,82.057,36.81,82.057,82.056S1080.89,561.709,1035.644,561.709z M1035.644,409.597
						c-38.629,0-70.057,31.427-70.057,70.056c0,38.629,31.428,70.057,70.057,70.057c38.629,0,70.057-31.427,70.057-70.057
						C1105.7,441.024,1074.272,409.597,1035.644,409.597z"/>
				</g>
				<g>
					<path fill="#FB8627" d="M1035.644,513.572c-18.703,0-33.919-15.216-33.919-33.919c0-18.703,15.216-33.918,33.919-33.918
						c18.703,0,33.919,15.216,33.919,33.918C1069.563,498.356,1054.347,513.572,1035.644,513.572z M1035.644,457.734
						c-12.086,0-21.919,9.832-21.919,21.918c0,12.086,9.833,21.919,21.919,21.919c12.086,0,21.919-9.833,21.919-21.919
						C1057.563,467.567,1047.729,457.734,1035.644,457.734z"/>
				</g>
				<g>
					<path fill="#FB8627" d="M1133.056,485.653H937.394c-3.313,0-6-2.686-6-6c0-3.313,2.687-6,6-6h195.662c3.313,0,6,2.687,6,6
						C1139.056,482.966,1136.369,485.653,1133.056,485.653z"/>
				</g>
				<g>
					<path fill="#FB8627" d="M1035.644,577.811c-3.313,0-6-2.686-6-6V385.713c0-3.313,2.687-6,6-6s6,2.687,6,6v186.098
						C1041.644,575.125,1038.957,577.811,1035.644,577.811z"/>
				</g>
			</g>
			<g>
				<g>
					<path fill="#FB8627" d="M902.052,777.718c-39.955,0-72.461-32.506-72.461-72.46c0-39.955,32.506-72.46,72.461-72.46
						c39.955,0,72.461,32.506,72.461,72.46C974.513,745.212,942.007,777.718,902.052,777.718z M902.052,644.797
						c-33.338,0-60.461,27.122-60.461,60.46c0,33.338,27.123,60.46,60.461,60.46c33.338,0,60.461-27.123,60.461-60.46
						C962.513,671.919,935.39,644.797,902.052,644.797z"/>
				</g>
				<g>
					<path fill="#FB8627" d="M902.052,735.654c-16.761,0-30.396-13.636-30.396-30.396c0-16.76,13.636-30.396,30.396-30.396
						c16.76,0,30.396,13.636,30.396,30.396C932.447,722.018,918.811,735.654,902.052,735.654z M902.052,686.861
						c-10.144,0-18.396,8.252-18.396,18.396c0,10.144,8.253,18.396,18.396,18.396s18.396-8.252,18.396-18.396
						C920.447,695.114,912.195,686.861,902.052,686.861z"/>
				</g>
				<g>
					<path fill="#FB8627" d="M987.174,711.257H816.197c-3.313,0-6-2.687-6-6c0-3.314,2.687-6,6-6h170.977c3.314,0,6,2.686,6,6
						C993.174,708.571,990.487,711.257,987.174,711.257z"/>
				</g>
				<g>
					<path fill="#FB8627" d="M902.052,791.788c-3.313,0-6-2.686-6-6V623.169c0-3.313,2.687-6,6-6c3.313,0,6,2.687,6,6v162.619
						C908.052,789.102,905.365,791.788,902.052,791.788z"/>
				</g>
			</g>
		</g>
		<g>
			<path fill="#3AA1E0" d="M2036.05,1228.119h-366.177c-3.985,0-7.216-3.23-7.216-7.216V1063.33c0-3.986,3.23-7.217,7.216-7.217
				h366.177c3.985,0,7.216,3.23,7.216,7.217v157.573C2043.266,1224.889,2040.035,1228.119,2036.05,1228.119z"/>
			<path fill="#FFFFFF" d="M2027.03,1220.047h-348.138c-3.219,0-5.829-2.61-5.829-5.83v-107.084c0-3.219,2.61-5.829,5.829-5.829
				h348.138c3.22,0,5.83,2.61,5.83,5.829v107.084C2032.86,1217.437,2030.25,1220.047,2027.03,1220.047z"/>
			<g>
				<path fill="#FFFFFF" d="M1690.028,1082.191h-8.45c-1.783,0-3.23-1.446-3.23-3.23v-6.959c0-1.784,1.447-3.23,3.23-3.23h8.45
					c1.784,0,3.23,1.446,3.23,3.23v6.959C1693.259,1080.745,1691.813,1082.191,1690.028,1082.191z"/>
				<path fill="#FFFFFF" d="M1717.139,1082.191h-8.449c-1.785,0-3.231-1.446-3.231-3.23v-6.959c0-1.784,1.446-3.23,3.231-3.23h8.449
					c1.784,0,3.23,1.446,3.23,3.23v6.959C1720.369,1080.745,1718.923,1082.191,1717.139,1082.191z"/>
				<path fill="#FFFFFF" d="M1744.248,1082.191h-8.449c-1.784,0-3.23-1.446-3.23-3.23v-6.959c0-1.784,1.446-3.23,3.23-3.23h8.449
					c1.785,0,3.231,1.446,3.231,3.23v6.959C1747.479,1080.745,1746.033,1082.191,1744.248,1082.191z"/>
			</g>
			<path fill="#3AA1E0" d="M2018.221,1127.33h-190.314c-3.131,0-5.693-2.563-5.693-5.693c0-3.132,2.563-5.693,5.693-5.693h190.314
				c3.131,0,5.693,2.562,5.693,5.693C2023.914,1124.768,2021.352,1127.33,2018.221,1127.33z"/>
			<path fill="#3AA1E0" d="M1875.078,1215.167h-190.314c-3.131,0-5.692-2.562-5.692-5.693c0-3.131,2.562-5.693,5.692-5.693h190.314
				c3.131,0,5.693,2.563,5.693,5.693C1880.771,1212.605,1878.209,1215.167,1875.078,1215.167z"/>
			<path fill="#3AA1E0" d="M1910.137,1215.167h-19.692c-1.07,0-1.946-0.876-1.946-1.947v-7.492c0-1.071,0.876-1.947,1.946-1.947
				h19.692c1.07,0,1.947,0.876,1.947,1.947v7.492C1912.084,1214.291,1911.207,1215.167,1910.137,1215.167z"/>
			<path fill="#3AA1E0" d="M1939.822,1215.167h-19.692c-1.07,0-1.946-0.876-1.946-1.947v-7.492c0-1.071,0.876-1.947,1.946-1.947
				h19.692c1.071,0,1.947,0.876,1.947,1.947v7.492C1941.77,1214.291,1940.894,1215.167,1939.822,1215.167z"/>
			<path fill="#3AA1E0" d="M2020.051,1152.136h-315.157c-2.125,0-3.863-1.738-3.863-3.863s1.738-3.863,3.863-3.863h315.157
				c2.124,0,3.863,1.738,3.863,3.863S2022.175,1152.136,2020.051,1152.136z"/>
			<path fill="#3AA1E0" d="M2020.051,1168.809h-315.157c-2.125,0-3.863-1.738-3.863-3.863s1.738-3.863,3.863-3.863h315.157
				c2.124,0,3.863,1.738,3.863,3.863S2022.175,1168.809,2020.051,1168.809z"/>
		</g>
		<g>
			<g>
				<g>
					<path fill="#316CCC" d="M1833.898,864.497h-27.385c-11.803,0-21.404-9.602-21.404-21.404v-27.385
						c0-11.803,9.602-21.404,21.404-21.404h27.385c11.803,0,21.404,9.602,21.404,21.404v27.385
						C1855.303,854.896,1845.701,864.497,1833.898,864.497z M1806.514,806.304c-5.186,0-9.404,4.219-9.404,9.404v27.385
						c0,5.186,4.219,9.404,9.404,9.404h27.385c5.186,0,9.404-4.219,9.404-9.404v-27.385c0-5.185-4.219-9.404-9.404-9.404H1806.514z"
						/>
				</g>
				<g opacity="0.8">
					<path fill="#316CCC" d="M1833.898,981.884h-27.385c-12.354,0-22.404-10.051-22.404-22.404v-27.385
						c0-12.354,10.051-22.404,22.404-22.404h27.385c12.354,0,22.404,10.051,22.404,22.404v27.385
						C1856.303,971.833,1846.252,981.884,1833.898,981.884z M1806.514,923.69c-4.634,0-8.404,3.77-8.404,8.404v27.385
						c0,4.634,3.771,8.404,8.404,8.404h27.385c4.634,0,8.404-3.771,8.404-8.404v-27.385c0-4.634-3.771-8.404-8.404-8.404H1806.514z"
						/>
				</g>
				<g>
					<path fill="#FB8627" d="M1821.917,849.093c-0.097,0-0.193-0.002-0.29-0.007c-1.763-0.086-3.398-0.942-4.472-2.343
						l-19.683-25.673c-2.016-2.63-1.519-6.396,1.111-8.412c2.628-2.016,6.396-1.521,8.412,1.111l15.37,20.048l43.088-46.165
						c2.263-2.425,6.06-2.553,8.48-0.293c2.423,2.262,2.554,6.059,0.293,8.48l-47.924,51.347
						C1825.166,848.405,1823.576,849.093,1821.917,849.093z"/>
				</g>
				<g>
					<path fill="#FB8627" d="M1821.917,965.479c-0.097,0-0.193-0.002-0.29-0.007c-1.763-0.086-3.398-0.942-4.472-2.343
						l-19.683-25.674c-2.016-2.63-1.519-6.396,1.111-8.412c2.628-2.016,6.396-1.519,8.412,1.111l15.37,20.049l43.088-46.165
						c2.263-2.425,6.06-2.553,8.48-0.293c2.423,2.262,2.554,6.059,0.293,8.481l-47.924,51.347
						C1825.166,964.792,1823.576,965.479,1821.917,965.479z"/>
				</g>
			</g>
			<path fill="#316CCC" d="M1901.141,823.017h206.834c3.604,0,6.553-2.948,6.553-6.552c0-3.603-2.948-6.552-6.553-6.552h-206.834
				c-3.604,0-6.552,2.948-6.552,6.552C1894.589,820.069,1897.537,823.017,1901.141,823.017z"/>
			<path fill="#316CCC" d="M1901.141,848.66h153.838c3.604,0,6.552-2.948,6.552-6.552c0-3.603-2.948-6.552-6.552-6.552h-153.838
				c-3.604,0-6.552,2.949-6.552,6.552C1894.589,845.712,1897.537,848.66,1901.141,848.66z"/>
			<path fill="#316CCC" d="M1901.141,939.525h206.834c3.604,0,6.553-2.948,6.553-6.552c0-3.603-2.948-6.551-6.553-6.551h-206.834
				c-3.604,0-6.552,2.948-6.552,6.551C1894.589,936.577,1897.537,939.525,1901.141,939.525z"/>
			<path fill="#316CCC" d="M1901.141,965.169h181.22c3.604,0,6.552-2.948,6.552-6.552s-2.948-6.552-6.552-6.552h-181.22
				c-3.604,0-6.552,2.948-6.552,6.552S1897.537,965.169,1901.141,965.169z"/>
		</g>
		<g>
			<g>
				<path fill="#3AA1E0" d="M1469.389,1208.751h-225.407c-2.113,0-3.826-1.712-3.826-3.825v-125.619
					c0-2.112,1.713-3.825,3.826-3.825h225.407c2.112,0,3.825,1.713,3.825,3.825v125.619
					C1473.214,1207.039,1471.501,1208.751,1469.389,1208.751z"/>
				<path fill="#FFFFFF" d="M1464.531,1202.881h-215.691c-1.973,0-3.572-1.599-3.572-3.572v-114.385
					c0-1.973,1.599-3.572,3.572-3.572h215.691c1.973,0,3.572,1.6,3.572,3.572v114.385
					C1468.103,1201.282,1466.504,1202.881,1464.531,1202.881z"/>
				<path fill="#3AA1E0" d="M1457.929,1195.433h-202.488c-2.218,0-4.016-1.799-4.016-4.017v-98.6c0-2.218,1.798-4.016,4.016-4.016
					h202.488c2.218,0,4.017,1.798,4.017,4.016v98.6C1461.946,1193.634,1460.147,1195.433,1457.929,1195.433z"/>
				<circle fill="#FFFFFF" cx="1356.685" cy="1142.116" r="36.997"/>
				<circle fill="#3AA1E0" cx="1356.685" cy="1142.116" r="31.858"/>
				<polygon fill="#FFFFFF" points="1372.388,1140.414 1360.743,1147.138 1349.097,1153.861 1349.097,1140.414 1349.097,1126.967 
					1360.743,1133.69 				"/>
			</g>
			<path opacity="0.5" fill="#99A8C2" d="M1414.265,1119.965h-174.109v84.961c0,2.113,1.713,3.825,3.826,3.825h174.108v-84.961
				C1418.09,1121.677,1416.378,1119.965,1414.265,1119.965z"/>
			<g>
				<path fill="#3AA1E0" d="M1393.949,1260.301h-225.407c-2.113,0-3.825-1.713-3.825-3.825v-125.619
					c0-2.113,1.712-3.825,3.825-3.825h225.407c2.113,0,3.826,1.712,3.826,3.825v125.619
					C1397.775,1258.588,1396.062,1260.301,1393.949,1260.301z"/>
				<path fill="#FFFFFF" d="M1389.092,1254.431H1173.4c-1.973,0-3.572-1.6-3.572-3.572v-114.386c0-1.973,1.599-3.571,3.572-3.571
					h215.691c1.973,0,3.572,1.599,3.572,3.571v114.386C1392.664,1252.831,1391.064,1254.431,1389.092,1254.431z"/>
				<path fill="#3AA1E0" d="M1382.49,1246.981h-202.488c-2.218,0-4.017-1.798-4.017-4.017v-98.599c0-2.218,1.798-4.017,4.017-4.017
					h202.488c2.218,0,4.016,1.799,4.016,4.017v98.599C1386.506,1245.184,1384.708,1246.981,1382.49,1246.981z"/>
				<circle fill="#FFFFFF" cx="1281.246" cy="1193.666" r="36.997"/>
				<path fill="#3AA1E0" d="M1313.104,1193.666c0,17.594-14.263,31.857-31.857,31.857c-17.595,0-31.858-14.264-31.858-31.857
					c0-17.595,14.263-31.857,31.858-31.857C1298.84,1161.809,1313.104,1176.071,1313.104,1193.666z"/>
				<polygon fill="#FFFFFF" points="1296.949,1191.964 1285.303,1198.688 1273.658,1205.411 1273.658,1191.964 1273.658,1178.517 
					1285.303,1185.24 				"/>
			</g>
		</g>
		<g>
			<g>
				<path fill="#153F9C" d="M1947.511,405.614c-1.043,0-2.104-0.205-3.125-0.639c-6.854-2.913-11.283-9.593-11.283-17.019v-52.134
					c0-4.419,3.582-8,8-8s8,3.581,8,8v52.134c0,1.132,0.773,1.967,1.541,2.293c4.066,1.728,5.962,6.425,4.234,10.491
					C1953.584,403.786,1950.624,405.614,1947.511,405.614z"/>
			</g>
			<path opacity="0.7" fill="#FFFFFF" d="M2286.834,288.192c-3.936-0.079-7.801,0.05-11.577,0.363
				c0.23-2.132,0.375-4.284,0.419-6.458c1.01-50.312-49.111-92.121-111.948-93.382c-51.519-1.034-95.581,25.512-110.344,62.835
				c-10.776-4.175-22.777-6.62-35.458-6.874c-47.868-0.961-87.303,29.634-88.079,68.336c-0.777,38.702,37.397,70.854,85.266,71.815
				c32.358,0.65,241.895-0.753,269.786-0.193c40.701,0.817,74.13-20.11,74.665-46.742
				C2360.098,311.26,2327.535,289.009,2286.834,288.192z"/>
			<path fill="#FFFFFF" d="M2160.82,208.686c0.83,0,1.67,0.008,2.506,0.025c25.864,0.519,49.839,8.921,67.507,23.659
				c16.387,13.669,25.211,31.187,24.847,49.325c-0.031,1.524-0.134,3.109-0.307,4.714l-2.599,24.078l24.135-2.001
				c2.543-0.211,5.122-0.318,7.668-0.318c0.616,0,1.235,0.006,1.855,0.019c15.612,0.314,30.536,4.573,40.945,11.686
				c3.72,2.542,12.355,9.348,12.189,17.617c-0.162,8.058-8.689,14.414-12.349,16.773c-10.245,6.605-24.831,10.393-40.019,10.393
				c-0.629,0-1.267-0.006-1.9-0.019c-4.663-0.093-14.286-0.139-29.42-0.139c-24.706,0-60.11,0.118-97.595,0.243
				c-38.411,0.128-78.131,0.261-106.497,0.261c-18.654,0-30.52-0.056-36.274-0.171c-18.591-0.373-35.776-6.431-48.393-17.056
				c-11.395-9.597-17.531-21.8-17.278-34.362c0.539-26.889,30.097-48.762,65.89-48.759c0.594,0,1.194,0.006,1.792,0.018
				c10.054,0.202,19.688,2.062,28.635,5.527l18.519,7.174l7.305-18.468c5.46-13.805,16.793-26.35,31.91-35.323
				C2120.313,213.836,2139.998,208.685,2160.82,208.686L2160.82,208.686z M2160.821,188.686
				c-50.268-0.003-92.953,26.242-107.438,62.864c-10.776-4.175-22.777-6.62-35.458-6.874c-0.731-0.015-1.467-0.022-2.193-0.022
				c-46.877-0.003-85.121,30.247-85.886,68.358c-0.777,38.702,37.397,70.854,85.266,71.815c6.334,0.127,19.456,0.175,36.676,0.175
				c55.498,0,153.563-0.504,204.092-0.504c13.89,0,24.182,0.038,29.019,0.135c0.768,0.015,1.539,0.023,2.302,0.023
				c39.656,0,71.839-20.636,72.363-46.765c0.534-26.632-32.028-48.883-72.729-49.7c-0.755-0.016-1.508-0.023-2.257-0.023
				c-3.158,0-6.269,0.133-9.32,0.386c0.23-2.132,0.375-4.284,0.419-6.458c1.01-50.312-49.111-92.121-111.948-93.382
				C2162.759,188.696,2161.784,188.686,2160.821,188.686L2160.821,188.686z"/>
			<path fill="#153F9C" d="M2010.512,458.035h-73.52c-6.169,0-11.215-5.047-11.215-11.215v-50.603
				c0-6.168,5.046-11.215,11.215-11.215h73.52c6.168,0,11.215,5.047,11.215,11.215v50.603
				C2021.727,452.988,2016.68,458.035,2010.512,458.035z"/>
			<ellipse fill="#FFFFFF" cx="1975.528" cy="321.898" rx="15.717" ry="17.523"/>
			<g>
				<path fill="#153F9C" d="M1997.476,406.44h-22.945c-4.418,0-8-3.582-8-8c0-4.419,3.582-8,8-8h22.945
					c1.346,0,2.483-1.137,2.483-2.483v-55.168c0-1.346-1.138-2.483-2.483-2.483h-20.898c-4.418,0-8-3.582-8-8s3.582-8,8-8h20.898
					c10.191,0,18.483,8.292,18.483,18.483v55.168C2015.959,398.148,2007.667,406.44,1997.476,406.44z"/>
			</g>
			<path fill="#FFC34E" d="M1983.506,413.523c0-5.388-4.367-9.755-9.754-9.755c-5.388,0-9.755,4.367-9.755,9.755
				c0,3.547,1.9,6.643,4.731,8.35v12.373c0,2.763,2.261,5.023,5.023,5.023s5.023-2.261,5.023-5.023v-12.373
				C1981.606,420.167,1983.506,417.071,1983.506,413.523z"/>
		</g>
		<g>
			<g>
				<path opacity="0.5" fill="#99A8C2" d="M1096.771,1289.097v-45.792c0-6.342-5.189-11.531-11.531-11.531H741.808v68.854h343.432
					C1091.581,1300.628,1096.771,1295.439,1096.771,1289.097z"/>
				<path opacity="0.5" fill="#99A8C2" d="M1085.239,1129.478H741.808v68.854h343.432c6.342,0,11.531-5.188,11.531-11.531v-45.792
					C1096.771,1134.667,1091.581,1129.478,1085.239,1129.478z"/>
			</g>
			<path fill="#1B45A1" d="M1066.021,1179.113H717.405c-6.342,0-11.532-5.188-11.532-11.531v-45.792
				c0-6.343,5.19-11.531,11.532-11.531h348.616c6.342,0,11.531,5.188,11.531,11.531v45.792
				C1077.552,1173.925,1072.362,1179.113,1066.021,1179.113z"/>
			<path fill="#FFFFFF" d="M1050.538,1169.407H732.887c-5.112,0-9.294-4.182-9.294-9.294v-30.854c0-5.112,4.183-9.294,9.294-9.294
				h317.651c5.111,0,9.294,4.182,9.294,9.294v30.854C1059.832,1165.226,1055.649,1169.407,1050.538,1169.407z"/>
			<path fill="#1B45A1" d="M1066.021,1281.409H717.405c-6.342,0-11.532-5.188-11.532-11.531v-45.792
				c0-6.343,5.19-11.531,11.532-11.531h348.616c6.342,0,11.531,5.188,11.531,11.531v45.792
				C1077.552,1276.221,1072.362,1281.409,1066.021,1281.409z"/>
			<path fill="#FFFFFF" d="M1050.538,1271.703H732.887c-5.112,0-9.294-4.182-9.294-9.294v-30.854c0-5.112,4.183-9.295,9.294-9.295
				h317.651c5.111,0,9.294,4.183,9.294,9.295v30.854C1059.832,1267.521,1055.649,1271.703,1050.538,1271.703z"/>
			<path fill="#1B45A1" d="M764.491,1144.687c0,4.396-3.564,7.96-7.96,7.96c-4.396,0-7.96-3.564-7.96-7.96
				c0-4.396,3.564-7.96,7.96-7.96C760.928,1136.727,764.491,1140.29,764.491,1144.687z M793.528,1136.727
				c-4.396,0-7.96,3.563-7.96,7.96c0,4.396,3.564,7.96,7.96,7.96s7.96-3.564,7.96-7.96
				C801.488,1140.29,797.924,1136.727,793.528,1136.727z M830.524,1136.727c-4.396,0-7.96,3.563-7.96,7.96
				c0,4.396,3.564,7.96,7.96,7.96c4.396,0,7.96-3.564,7.96-7.96C838.484,1140.29,834.92,1136.727,830.524,1136.727z
				 M867.521,1136.727c-4.396,0-7.96,3.563-7.96,7.96c0,4.396,3.564,7.96,7.96,7.96s7.96-3.564,7.96-7.96
				C875.481,1140.29,871.917,1136.727,867.521,1136.727z M904.518,1136.727c-4.396,0-7.96,3.563-7.96,7.96
				c0,4.396,3.564,7.96,7.96,7.96c4.396,0,7.96-3.564,7.96-7.96C912.477,1140.29,908.914,1136.727,904.518,1136.727z
				 M941.514,1136.727c-4.396,0-7.96,3.563-7.96,7.96c0,4.396,3.563,7.96,7.96,7.96c4.396,0,7.959-3.564,7.959-7.96
				C949.474,1140.29,945.91,1136.727,941.514,1136.727z"/>
			<path fill="#1B45A1" d="M764.491,1246.311c0,4.396-3.564,7.959-7.96,7.959c-4.396,0-7.96-3.563-7.96-7.959
				c0-4.396,3.564-7.96,7.96-7.96C760.928,1238.351,764.491,1241.914,764.491,1246.311z M793.528,1238.351
				c-4.396,0-7.96,3.563-7.96,7.96c0,4.396,3.564,7.959,7.96,7.959s7.96-3.563,7.96-7.959
				C801.488,1241.914,797.924,1238.351,793.528,1238.351z M830.524,1238.351c-4.396,0-7.96,3.563-7.96,7.96
				c0,4.396,3.564,7.959,7.96,7.959c4.396,0,7.96-3.563,7.96-7.959C838.484,1241.914,834.92,1238.351,830.524,1238.351z
				 M867.521,1238.351c-4.396,0-7.96,3.563-7.96,7.96c0,4.396,3.564,7.959,7.96,7.959s7.96-3.563,7.96-7.959
				C875.481,1241.914,871.917,1238.351,867.521,1238.351z M904.518,1238.351c-4.396,0-7.96,3.563-7.96,7.96
				c0,4.396,3.564,7.959,7.96,7.959c4.396,0,7.96-3.563,7.96-7.959C912.477,1241.914,908.914,1238.351,904.518,1238.351z
				 M941.514,1238.351c-4.396,0-7.96,3.563-7.96,7.96c0,4.396,3.563,7.959,7.96,7.959c4.396,0,7.959-3.563,7.959-7.959
				C949.474,1241.914,945.91,1238.351,941.514,1238.351z"/>
			<g>
				<g>
					<path fill="#1B45A1" d="M1017.221,1157.271c-14.721,0-26.376-10.734-26.865-11.191c-0.606-0.566-0.951-1.36-0.951-2.191
						s0.345-1.625,0.952-2.192c0.488-0.456,12.144-11.189,26.864-11.189s26.376,10.733,26.864,11.189
						c0.607,0.567,0.952,1.361,0.952,2.192s-0.345,1.625-0.951,2.191C1043.597,1146.537,1031.941,1157.271,1017.221,1157.271z
						 M997.194,1143.884c3.888,2.826,11.486,7.388,20.026,7.388c8.534,0,16.128-4.555,20.02-7.383
						c-3.892-2.827-11.485-7.382-20.02-7.382C1008.644,1136.507,1001.07,1141.057,997.194,1143.884z"/>
				</g>
				<g>
					<path fill="#1B45A1" d="M1017.221,1156.005c-6.681,0-12.116-5.436-12.116-12.116s5.435-12.116,12.116-12.116
						c6.681,0,12.116,5.436,12.116,12.116S1023.901,1156.005,1017.221,1156.005z M1017.221,1137.772
						c-3.372,0-6.116,2.744-6.116,6.116s2.744,6.116,6.116,6.116c3.372,0,6.116-2.744,6.116-6.116
						S1020.593,1137.772,1017.221,1137.772z"/>
				</g>
			</g>
			<g>
				<path fill="#1B45A1" d="M1008.28,1258.213h-15.04c-4.238,0-7.706-3.468-7.706-7.707v-6.468c0-4.238,3.468-7.706,7.706-7.706
					h15.04c4.239,0,7.707,3.468,7.707,7.706v6.468C1015.987,1254.745,1012.519,1258.213,1008.28,1258.213z"/>
				<g>
					<path fill="#1B45A1" d="M1041.484,1253.95h-52.333c-1.657,0-3-1.343-3-3s1.343-3,3-3h49.333v-7.821c0-1.657,1.343-3,3-3
						c1.657,0,3,1.343,3,3v10.821C1044.484,1252.607,1043.142,1253.95,1041.484,1253.95z"/>
				</g>
				<g>
					<path fill="#1B45A1" d="M1034.455,1253.474c-1.657,0-3-1.343-3-3v-8.901c0-1.657,1.343-3,3-3s3,1.343,3,3v8.901
						C1037.455,1252.131,1036.112,1253.474,1034.455,1253.474z"/>
				</g>
				<g>
					<path fill="#1B45A1" d="M1023.489,1253.474c-1.657,0-3-1.343-3-3v-12.075c0-1.657,1.343-3,3-3c1.657,0,3,1.343,3,3v12.075
						C1026.489,1252.131,1025.146,1253.474,1023.489,1253.474z"/>
				</g>
				<path fill="#FFFFFF" d="M991.388,1250.95c-1.231,0-2.236-1.007-2.236-2.236v-3.463c0-1.229,1.006-2.236,2.236-2.236
					c1.23,0,2.236,1.007,2.236,2.236v3.463C993.624,1249.943,992.618,1250.95,991.388,1250.95z"/>
			</g>
		</g>
	</g>
	<g>
		<path fill="#0E3A82" d="M714.337,1634.748c0,0-196.421-136.431-279.508-57.766c-66.343,62.812,51.42,136.605,202.073,116.763
			c106.042-13.966,118.06,6.319,136.634,5.882c138.215-10.592,324.449-51.942,233.817-116.909
			c-123.464-88.501-206.979,5.323-249.998,28.677C714.337,1634.748,714.337,1634.748,714.337,1634.748z"/>
		<path fill="#0F2D5C" d="M968.294,1579.44C916.668,1568.787,720,1641.719,720,1641.719s-171.266-51.625-212.238-56.542
			c-40.973-4.917-59.82,10.652-59.82,10.652s19.333-21.784,41.792-23.764c22.46-1.979,54.904-7.375,54.904-7.375
			s327.781-15.569,371.212-5.736C959.28,1568.787,968.294,1579.44,968.294,1579.44z"/>
		<linearGradient id="SVGID_12_" gradientUnits="userSpaceOnUse" x1="797.2274" y1="1291.2947" x2="609.6225" y2="1629.6384">
			<stop  offset="0" style="stop-color:#FFC34E"/>
			<stop  offset="1" style="stop-color:#FB8627"/>
		</linearGradient>
		<path fill="url(#SVGID_12_)" d="M689.755,1313.947c-7.79,1.229-128.868,54.044-130.354,76.168
			c-1.485,22.125,33.172,201.613,100.2,224.967c67.028,23.354,142.004,0,142.004,0s78.664-194.201,55.31-231.074
			c-23.353-36.874-129.057-70.061-129.057-70.061H689.755z"/>
		<linearGradient id="SVGID_13_" gradientUnits="userSpaceOnUse" x1="827.9349" y1="1304.7372" x2="622.0138" y2="1676.114">
			<stop  offset="0" style="stop-color:#FFC34E"/>
			<stop  offset="1" style="stop-color:#FB8627"/>
		</linearGradient>
		<path fill="url(#SVGID_13_)" d="M600.763,1355.752c-115.673,61.982-144.082,173.892-113.488,198.559
			c21.437,17.284,102.267,55.515,172.326,53.057c70.06-2.459,135.858,4.138,135.858,4.138s120.184-24.454,144.154-60.472
			c23.969-36.019-42.53-153.019-102.159-186.836S600.763,1355.752,600.763,1355.752z"/>
		<path fill="#F09959" d="M711.058,1384.008c-16.001,0-29.092-13.092-29.092-29.092v-97.915c0-16,13.091-29.092,29.092-29.092
			c16,0,29.091,13.092,29.091,29.092v97.915C740.149,1370.916,727.058,1384.008,711.058,1384.008z"/>
		<path fill="#E38540" d="M711.058,1227.909c-16.001,0-29.092,13.092-29.092,29.092v80.066c17.153,14.332,33.76,6.822,58.183-12.104
			v-67.962C740.149,1241.001,727.058,1227.909,711.058,1227.909z"/>
		<path fill="#F09959" d="M774.908,1260.958c-4.78,9.76-12.544,15.172-17.341,12.089s-4.81-13.493-0.03-23.253
			c4.78-9.759,12.544-15.172,17.341-12.089C779.674,1240.788,779.688,1251.199,774.908,1260.958z"/>
		<path fill="#F09959" d="M662.351,1250.521c5.528,8.88,6.589,19.61,2.371,23.968c-4.219,4.356-12.121,0.69-17.649-8.189
			c-5.528-8.88-6.589-19.61-2.371-23.968C648.921,1237.974,656.823,1241.641,662.351,1250.521z"/>
		<path fill="#F09959" d="M762.396,1260.332c0,35.579-22.4,64.422-50.031,64.422c-27.631,0-50.031-28.843-50.031-64.422
			c0-35.58,22.4-64.423,50.031-64.423C739.997,1195.909,762.396,1224.752,762.396,1260.332z"/>
		<path fill="#FB8627" d="M821.456,1419.778c32.778,17.481,61.342,83.726,61.342,83.726s-73.751,11.473-89.047,22.945
			s2.185-4.371,10.926-36.057C813.417,1458.708,821.456,1419.778,821.456,1419.778z"/>
		<path fill="#FB8627" d="M593.257,1415.004c7.648,34.963,44.251,132.575,44.251,132.575s-33.901-38.611-69.927-40.797
			c-36.025-2.186-49.395-2.731-49.167,6.009c0.045,1.728,6.009-38.787,33.871-63.917
			C580.146,1423.744,593.257,1415.004,593.257,1415.004z"/>
		<path fill="#2A66C6" d="M812.972,1635.119H615.048c-7.975,0-14.782-5.762-16.1-13.626l-23.865-142.433
			c-1.668-9.955,6.006-19.022,16.1-19.022h245.654c10.093,0,17.768,9.067,16.1,19.022l-23.865,142.433
			C827.754,1629.357,820.946,1635.119,812.972,1635.119z"/>
		<linearGradient id="SVGID_14_" gradientUnits="userSpaceOnUse" x1="819.2971" y1="1406.1914" x2="630.6053" y2="1638.8724">
			<stop  offset="0" style="stop-color:#8FD4FF"/>
			<stop  offset="1" style="stop-color:#1355BF"/>
		</linearGradient>
		<path fill="url(#SVGID_14_)" d="M812.972,1635.119H615.048c-7.975,0-14.782-5.554-16.1-13.135l-23.865-137.293
			c-1.668-9.596,6.006-18.336,16.1-18.336h245.654c10.093,0,17.768,8.74,16.1,18.336l-23.865,137.293
			C827.754,1629.565,820.946,1635.119,812.972,1635.119z"/>
		<path fill="#0F2D5C" d="M740.149,1691.23c-1.184-0.204-127.828-31.9-156.098-8.547c-28.269,23.354,94.642,23.751,116.767,18.636
			C722.941,1696.204,740.149,1691.23,740.149,1691.23z"/>
		<path fill="#0F2D5C" d="M768.419,1696.913c0,0,27.041-20.375,62.685-16.688c35.644,3.687,66.373,11.46,35.644,21.094
			c-30.727,9.634-62.685,10.863-77.434,9.634C774.565,1709.725,768.419,1696.913,768.419,1696.913z"/>
		<path fill="#0F2D5C" d="M696.398,1169.52c-32.498,9.859-21.188,101.349,15.967,98.334c37.156-3.014,38.663-42.573,36.025-68.193
			C745.753,1174.041,729.929,1159.348,696.398,1169.52z"/>
		<path fill="#0F2D5C" d="M684.718,1237.337c-9.042-8.666-21.475,18.606-16.577,30.59c4.897,11.983-1.953,18.959,4.675,31.86
			c6.628,12.901-12.21-8.197-14.848-23.645c-2.637-15.447-4.144-42.197-7.912-54.253c-3.768-12.057,0.19-32.961,16.979-37.3
			c16.788-4.338,20.697-12.056,27.102-12.433c6.405-0.377,36.922,2.638,51.993,10.926c15.07,8.289,23.359,20.722,22.229,39.56
			s-6.028,67.063-10.549,74.976c-4.521,7.911-6.86,6.037-5.503,1.512c1.358-4.526,6.256-31.652,2.488-41.448
			c-3.768-9.796-1.884-33.908-11.679-35.792c-9.796-1.884-7.536,14.82-19.215,16.075
			C712.222,1239.221,684.718,1237.337,684.718,1237.337z"/>
	</g>
	<g>
		<path fill="#0F2D5C" d="M2148.212,1641.82c0,0-7.882,30.431-34.691,38.118s-52.948,22.604-15.277,23.063
			c41.32,0.503,65.002-1.441,82.175-4.324c17.174-2.883,5.924-33.152,3.195-47.566
			C2180.885,1636.695,2148.212,1641.82,2148.212,1641.82z"/>
		<path fill="#0F2D5C" d="M2367.789,1622.063c0,0,5.285,55.953-8.168,60.758s-28.829,16.336-9.609,16.336
			c19.219,0,42.998,4.542,49.218-16.336c7.587-25.465,24.743-29.761,18.626-42.722c-6.117-12.962-24.602-37.037-24.602-37.037
			L2367.789,1622.063z"/>
		<path fill="#0E3A82" d="M2087.358,1033.048l53.058,621.669c0,0,27.564,12.739,47.433,14.661s60.96-271.875,57.476-323.648
			c-3.484-51.772,35.902-216.184,26.779-269.472S2087.358,1033.048,2087.358,1033.048z"/>
		<path fill="#0F2D5C" d="M2193.526,1036.602c-3.74-0.503-7.511-0.949-11.288-1.348l-91.664,35.47l16.908,198.111
			c43.931,96.552,92.09,184.248,118.494,243.161c12.026-70.063,20.968-142.184,19.347-166.267
			c-1.678-24.933,6.587-75.988,14.588-128.175L2193.526,1036.602z"/>
		<path fill="#0E3A82" d="M2113.521,1134.539c51.442,228.664,253.677,507.281,253.46,507.281c-0.218,0,37.805-6.566,39.727-23.863
			s-21.592-189.498-73.032-239.562c-51.439-50.064-54.951-287.734-54.951-287.734L2113.521,1134.539z"/>
		<path fill="#FB8627" d="M2234.812,814.879c57.863,58.193,94.976,158.263,95.478,183.024c0.504,24.762-66.717,68.95-66.717,68.95
			L2234.812,814.879z"/>
		<polygon fill="#F09959" points="2169.711,686.455 2192.623,800.471 2129.954,867.94 2121.621,729.68 		"/>
		<linearGradient id="SVGID_15_" gradientUnits="userSpaceOnUse" x1="1986.1674" y1="804.3942" x2="2368.0842" y2="1249.2638">
			<stop  offset="0" style="stop-color:#FFC34E"/>
			<stop  offset="1" style="stop-color:#FB8627"/>
		</linearGradient>
		<path fill="url(#SVGID_15_)" d="M2192.623,764.916c0,0,29.556,10.373,62.454,93.888c32.897,83.515,55.752,289.311,55.752,289.311
			s-63.212,53.675-153.707,53.647c-57.673-0.018-86.791-12.972-86.791-12.972s-5.766-193.972,0-263.986
			S2164.071,763.154,2192.623,764.916z"/>
		<path fill="#E38540" d="M2145.645,782.412c18.619-21.691,25.527-54.829,28.09-75.936l-3.62-18.016l-4.663,1.823l-43.83,39.397
			l4.286,71.126C2132.021,796.452,2138.695,790.508,2145.645,782.412z"/>
		<path fill="#F09959" d="M2155.394,711.578c-7.193,33.935-34.053,56.987-59.991,51.488c-25.939-5.499-41.136-37.465-33.942-71.4
			c7.193-33.935,34.053-56.987,59.992-51.488C2147.391,645.676,2162.587,677.643,2155.394,711.578z"/>
		<linearGradient id="SVGID_16_" gradientUnits="userSpaceOnUse" x1="2120.9851" y1="770.6863" x2="2165.4082" y2="822.4321">
			<stop  offset="0" style="stop-color:#FFC34E"/>
			<stop  offset="1" style="stop-color:#FB8627"/>
		</linearGradient>
		<path fill="url(#SVGID_16_)" d="M2183.768,739.161l19.636,33.17l-104.065,77.801c0,0,7.837-36.058,9.938-49.326
			C2111.376,787.538,2182.115,736.372,2183.768,739.161z"/>
		<path fill="#153F9C" d="M2060.523,617.129c-43.707,13.742-7.979,68.823,6.062,69.326c14.04,0.503,19.165-12.578,30.696-9.561
			c11.532,3.017,22.423-17.483,29.47-12.999c7.047,4.484,2.563,46.125,0,53.172c-2.563,7.047,8.969,7.688,8.969,7.688
			s4.696-29.469,11.958-27.547c7.261,1.922,12.649,22.422,23.088,27.547c10.439,5.125,10.439,5.125,10.439,5.125
			s6.406-44.472,16.016-52.986c9.609-8.515,3.586-37.984-10.059-43.749c-13.645-5.766-16.938-32.032-35.792-33.954
			c-18.854-1.922-34.229,10.891-59.214,7.688C2067.172,603.676,2072.749,613.285,2060.523,617.129z"/>
		<path fill="#F09959" d="M2166.42,704.419c-3.596,8.462-11.595,13.161-17.865,10.496c-6.271-2.665-8.439-11.685-4.843-20.147
			c3.596-8.462,11.595-13.161,17.865-10.496C2167.849,686.937,2170.017,695.957,2166.42,704.419z"/>
		<path fill="#FB8627" d="M2213.891,826.944c0,0-107.229,119.256-145.838,156.148c-0.522,34.342-0.256,74.361,0.25,109.926
			c20.916-10.295,79.032-40.387,112.115-72.291C2221.273,981.329,2239.502,891,2213.891,826.944z"/>
		<path fill="#F09959" d="M1939.687,973.192c0,0-25.647-31.756-35.876-28.7c-10.228,3.056-14.094,3.55-23.063,3.056
			c-8.969-0.494-9.609,12.472,3.203,35.778c12.813,23.307,47.407,27.983,55.735,27.567
			C1948.015,1010.477,1939.687,973.192,1939.687,973.192z"/>
		<linearGradient id="SVGID_17_" gradientUnits="userSpaceOnUse" x1="1902.4283" y1="1048.5831" x2="2308.9084" y2="829.4874">
			<stop  offset="0" style="stop-color:#FFC34E"/>
			<stop  offset="1" style="stop-color:#FB8627"/>
		</linearGradient>
		<path fill="url(#SVGID_17_)" d="M2201.916,800.806c41.47,11.028,27.977,116.154,4.608,159.556
			c-16.795,31.195-72.907,63.005-107.187,71.927c-34.28,8.923-170.367-17.76-170.367-17.76s-5.472-49.014,4.879-49.014
			c10.352,0,120.522,5.3,153.509-24.518C2120.345,911.18,2151.838,787.488,2201.916,800.806z"/>
		<g>
			<path fill="#FB8627" d="M1906.538,966.361c-1.808,0-3.594-0.813-4.774-2.359l-22.21-29.097c-2.011-2.634-1.505-6.399,1.129-8.41
				c2.635-2.012,6.4-1.504,8.41,1.129l22.21,29.097c2.011,2.634,1.505,6.399-1.129,8.41
				C1909.087,965.96,1907.807,966.361,1906.538,966.361z"/>
		</g>
	</g>
</g>
</svg>
