<?xml version="1.0" encoding="utf-8"?>
<!-- Generator: Adobe Illustrator 22.1.0, SVG Export Plug-In . SVG Version: 6.00 Build 0)  -->
<svg version="1.1" id="Layer_1" xmlns="http://www.w3.org/2000/svg" xmlns:xlink="http://www.w3.org/1999/xlink" x="0px" y="0px"
	 viewBox="0 0 4750 2000" style="enable-background:new 0 0 4750 2000;" xml:space="preserve">
<style type="text/css">
	.st0{display:none;fill:#FFFFFF;}
	.st1{fill:url(#SVGID_1_);}
	.st2{fill:url(#SVGID_2_);}
	.st3{fill:url(#SVGID_3_);}
	.st4{fill:#E25FA5;}
	.st5{fill:url(#SVGID_4_);}
	.st6{fill:url(#SVGID_5_);}
	.st7{fill:url(#SVGID_6_);}
	.st8{fill:#A442B9;}
	.st9{fill:url(#SVGID_7_);}
	.st10{fill:url(#SVGID_8_);}
	.st11{fill:url(#SVGID_9_);}
	.st12{fill:url(#SVGID_10_);}
	.st13{fill:url(#SVGID_11_);}
	.st14{fill:url(#SVGID_12_);}
	.st15{fill:#FE7199;}
</style>
<g>
	<rect x="3280" y="450" class="st0" width="1320" height="1100"/>
	<linearGradient id="SVGID_1_" gradientUnits="userSpaceOnUse" x1="4281.27" y1="677.9064" x2="4489.7256" y2="886.3617">
		<stop  offset="0" style="stop-color:#2FFD9E"/>
		<stop  offset="0.231" style="stop-color:#2EFAA0"/>
		<stop  offset="0.4165" style="stop-color:#2CF0A8"/>
		<stop  offset="0.5863" style="stop-color:#29DFB5"/>
		<stop  offset="0.7466" style="stop-color:#24C7C8"/>
		<stop  offset="0.8988" style="stop-color:#1DA9DF"/>
		<stop  offset="1" style="stop-color:#1890F2"/>
	</linearGradient>
	<path class="st1" d="M4481.5,803.7c-61.6-70.4-52.3-115.9-91.6-146.8c-52.2-41-106.1,18.7-106.2,18.7
		c-69.6,72.8-9.4,148.5,86.8,199.2C4459.8,921.9,4552.2,884.6,4481.5,803.7z"/>
	<linearGradient id="SVGID_2_" gradientUnits="userSpaceOnUse" x1="3522.0061" y1="1000.0001" x2="4402.0073" y2="1000.0001">
		<stop  offset="0" style="stop-color:#1890F2"/>
		<stop  offset="1" style="stop-color:#2FFD9E"/>
	</linearGradient>
	<path class="st2" d="M3637.1,1328.5c-128.4-156.9-132.8-337.2-93-464.9c53.3-171.1,212.8-327.1,427.6-355.1
		c186.6-24.3,325.3,80.5,235.2,297.3c-58.2,140,25.5,249.8,110.4,309.7c181.4,128,53.7,343.8-214.8,374.8
		C3834,1521.2,3689.4,1392.3,3637.1,1328.5z"/>
	<linearGradient id="SVGID_3_" gradientUnits="userSpaceOnUse" x1="3683.3879" y1="861.1753" x2="4211.9424" y2="1389.7299">
		<stop  offset="0" style="stop-color:#2FFD9E"/>
		<stop  offset="0.1012" style="stop-color:#2AE4B1"/>
		<stop  offset="0.2534" style="stop-color:#23C6C8"/>
		<stop  offset="0.4137" style="stop-color:#1EAEDB"/>
		<stop  offset="0.5835" style="stop-color:#1B9DE8"/>
		<stop  offset="0.769" style="stop-color:#1993F0"/>
		<stop  offset="1" style="stop-color:#1890F2"/>
	</linearGradient>
	<path class="st3" d="M3653.8,897.5c171.2-209.9,355.1-262.2,516.3-219c161.2,43.1,251.4,268.7,228.4,456.9
		c-23,188.2-159,149.8-230.9,110.5c-72-39.3-197.1-33.7-337.2,108.6c-137.7,139.8-227.1,180.7-278.9,76.8
		C3499.7,1327.3,3506,1078.7,3653.8,897.5z"/>
	<path class="st4" d="M4366.8,884.3c-34.6-38.2-78.6-74.3-133.8-105.9c-102.1-58.3-199.5-87.2-289.2-95.1c-17.7-1.6-35-2.3-52.1-2.3
		c-153.8,0-282,60.6-369.4,134.2c-145.9,122.7-200,339.5-68.3,465.4c22.7,21.7,46.4,36.7,70.7,46.3c-0.4-4.1-0.8-8.3-1.1-12.5
		c-22.2-9.6-42.9-23.5-62-41.8c-48.9-46.8-73.6-109.2-71.3-180.5c1.5-47.3,15.1-97,39.3-143.9c24.3-47.1,58.8-90.2,99.8-124.6
		c58.4-49.1,183.2-131.6,362.3-131.6c8.5,0,17,0.2,25.5,0.6c103.1,4.5,207.4,36.5,310.4,95.4c53.5,30.5,99.3,67.3,136.1,109.2
		c4.6,5.2,9,10.4,13.2,15.8c26.1,32.5,47,67.8,62.3,105.2c15.5,37.8,24.9,76.7,27.9,115.4c2.6,33.5,0.3,65.3-6.8,91.9
		c-7.9,29.6-36.1,61.5-79.3,61.5c-18.5,0-38.1-6.1-57.8-17.8c-4.3,1.9-8.8,3.5-13.3,4.7c25.8,17,49.8,24.1,71.1,24.1
		c46.9,0,80.4-34,90-69.7C4491.9,1149,4477.4,1006.3,4366.8,884.3z"/>
	<linearGradient id="SVGID_4_" gradientUnits="userSpaceOnUse" x1="3696.9229" y1="1256.447" x2="3917.2642" y2="1383.6611">
		<stop  offset="0" style="stop-color:#2FFD9E"/>
		<stop  offset="1" style="stop-color:#1890F2"/>
	</linearGradient>
	<path class="st5" d="M3891.5,1243.6c-45.8-35.4-102.3-39.8-143.1-30.1c-40.8,9.7-48.8,28.8-38.2,48.5c10.6,19.7,5.8,34-17.4,50.5
		c-23.2,16.5-34.2,50.4-3.6,66.4c37.7,19.7,53.5-13.7,110-17.1c54.6-3.3,107.6,16.1,133.6-8.7
		C3970.7,1316.7,3913.7,1260.7,3891.5,1243.6z"/>
	<g>
		<g>
			<path class="st4" d="M4072,1319L4072,1319c-1.5,0-2.8-1.2-2.8-2.7v-16.5c0-1.5,1.2-2.8,2.7-2.8h0c1.5,0,2.8,1.2,2.8,2.8v16.5
				C4074.8,1317.8,4073.5,1319,4072,1319z"/>
		</g>
		<g>
			<path class="st4" d="M4072,1275L4072,1275c-1.5,0-2.8-1.2-2.8-2.7v-16.5c0-1.5,1.2-2.8,2.7-2.8h0c1.5,0,2.8,1.2,2.8,2.8v16.5
				C4074.8,1273.8,4073.5,1275,4072,1275z"/>
		</g>
		<g>
			<path class="st4" d="M4096.8,1303.5l-14.3-8.3c-1.3-0.8-1.8-2.4-1-3.8v0c0.8-1.3,2.4-1.8,3.8-1l14.3,8.3c1.3,0.8,1.8,2.4,1,3.8v0
				C4099.8,1303.8,4098.1,1304.3,4096.8,1303.5z"/>
		</g>
		<g>
			<path class="st4" d="M4058.7,1281.5l-14.3-8.3c-1.3-0.8-1.8-2.4-1-3.8v0c0.8-1.3,2.4-1.8,3.8-1l14.3,8.3c1.3,0.8,1.8,2.4,1,3.8
				l0,0C4061.7,1281.8,4060,1282.3,4058.7,1281.5z"/>
		</g>
		<g>
			<path class="st4" d="M4043.4,1302.5L4043.4,1302.5c-0.8-1.3-0.3-3,1-3.8l14.3-8.3c1.3-0.8,3-0.3,3.8,1v0c0.8,1.3,0.3,3-1,3.8
				l-14.3,8.3C4045.9,1304.3,4044.2,1303.8,4043.4,1302.5z"/>
		</g>
		<g>
			<path class="st4" d="M4081.5,1280.5L4081.5,1280.5c-0.8-1.3-0.3-3,1-3.8l14.3-8.3c1.3-0.8,3-0.3,3.8,1v0c0.8,1.3,0.3,3-1,3.8
				l-14.3,8.3C4084,1282.3,4082.3,1281.8,4081.5,1280.5z"/>
		</g>
	</g>
	<g>
		<g>
			<path class="st4" d="M3445,703L3445,703c-1.5,0-2.8-1.2-2.8-2.7v-16.5c0-1.5,1.2-2.7,2.7-2.7h0c1.5,0,2.7,1.2,2.7,2.7v16.5
				C3447.8,701.8,3446.5,703,3445,703z"/>
		</g>
		<g>
			<path class="st4" d="M3445,659L3445,659c-1.5,0-2.8-1.2-2.8-2.7v-16.5c0-1.5,1.2-2.7,2.7-2.7h0c1.5,0,2.7,1.2,2.7,2.7v16.5
				C3447.8,657.8,3446.5,659,3445,659z"/>
		</g>
		<g>
			<path class="st4" d="M3469.8,687.5l-14.3-8.3c-1.3-0.8-1.8-2.4-1-3.8l0,0c0.8-1.3,2.4-1.8,3.8-1l14.3,8.3c1.3,0.8,1.8,2.4,1,3.8
				l0,0C3472.8,687.8,3471.1,688.3,3469.8,687.5z"/>
		</g>
		<g>
			<path class="st4" d="M3431.7,665.5l-14.3-8.3c-1.3-0.8-1.8-2.4-1-3.8l0,0c0.8-1.3,2.4-1.8,3.8-1l14.3,8.3c1.3,0.8,1.8,2.4,1,3.8
				l0,0C3434.7,665.8,3433,666.3,3431.7,665.5z"/>
		</g>
		<g>
			<path class="st4" d="M3416.4,686.5L3416.4,686.5c-0.8-1.3-0.3-3,1-3.8l14.3-8.3c1.3-0.8,3-0.3,3.8,1v0c0.8,1.3,0.3,3-1,3.8
				l-14.3,8.3C3418.9,688.3,3417.2,687.8,3416.4,686.5z"/>
		</g>
		<g>
			<path class="st4" d="M3454.5,664.5L3454.5,664.5c-0.8-1.3-0.3-3,1-3.8l14.3-8.3c1.3-0.8,3-0.3,3.8,1l0,0c0.8,1.3,0.3,3-1,3.8
				l-14.3,8.3C3457,666.3,3455.3,665.8,3454.5,664.5z"/>
		</g>
	</g>
	<g>
		<g>
			<path class="st4" d="M3555,648L3555,648c-1.5,0-2.8-1.2-2.8-2.7v-16.5c0-1.5,1.2-2.7,2.7-2.7h0c1.5,0,2.7,1.2,2.7,2.7v16.5
				C3557.8,646.8,3556.5,648,3555,648z"/>
		</g>
		<g>
			<path class="st4" d="M3555,604L3555,604c-1.5,0-2.8-1.2-2.8-2.7v-16.5c0-1.5,1.2-2.7,2.7-2.7h0c1.5,0,2.7,1.2,2.7,2.7v16.5
				C3557.8,602.8,3556.5,604,3555,604z"/>
		</g>
		<g>
			<path class="st4" d="M3541.3,617.8h-16.5c-1.5,0-2.7-1.2-2.7-2.7v0c0-1.5,1.2-2.7,2.7-2.7h16.5c1.5,0,2.7,1.2,2.7,2.7v0
				C3544,616.5,3542.8,617.8,3541.3,617.8z"/>
		</g>
		<g>
			<path class="st4" d="M3585.3,617.8h-16.5c-1.5,0-2.7-1.2-2.7-2.7v0c0-1.5,1.2-2.7,2.7-2.7h16.5c1.5,0,2.7,1.2,2.7,2.7v0
				C3588,616.5,3586.8,617.8,3585.3,617.8z"/>
		</g>
	</g>
	<g>
		<g>
			<path class="st4" d="M4292,1187L4292,1187c-1.5,0-2.8-1.2-2.8-2.7v-16.5c0-1.5,1.2-2.8,2.8-2.8h0c1.5,0,2.7,1.2,2.7,2.8v16.5
				C4294.8,1185.8,4293.5,1187,4292,1187z"/>
		</g>
		<g>
			<path class="st4" d="M4292,1143L4292,1143c-1.5,0-2.8-1.2-2.8-2.7v-16.5c0-1.5,1.2-2.8,2.8-2.8h0c1.5,0,2.7,1.2,2.7,2.8v16.5
				C4294.8,1141.8,4293.5,1143,4292,1143z"/>
		</g>
		<g>
			<path class="st4" d="M4278.3,1156.8h-16.5c-1.5,0-2.8-1.2-2.8-2.7v0c0-1.5,1.2-2.8,2.8-2.8h16.5c1.5,0,2.7,1.2,2.7,2.8v0
				C4281,1155.5,4279.8,1156.8,4278.3,1156.8z"/>
		</g>
		<g>
			<path class="st4" d="M4322.3,1156.8h-16.5c-1.5,0-2.8-1.2-2.8-2.7v0c0-1.5,1.2-2.8,2.8-2.8h16.5c1.5,0,2.7,1.2,2.7,2.8v0
				C4325,1155.5,4323.8,1156.8,4322.3,1156.8z"/>
		</g>
	</g>
	<g>
		<g>
			<path class="st4" d="M4413,738.8c-15.3,0-28.8-9.7-33.8-24c-0.5-1.5,0.4-3.2,1.9-3.6l0,0c1.4-0.4,2.8,0.4,3.3,1.7
				c4.2,12.1,15.6,20.3,28.6,20.3c13,0,24.4-8.2,28.6-20.3c0.5-1.3,1.9-2.1,3.3-1.7l0,0c1.6,0.4,2.5,2.1,1.9,3.6
				C4441.8,729,4428.3,738.8,4413,738.8z"/>
		</g>
		<g>
			<path class="st4" d="M4444.8,694.8c-1.4,0.4-2.8-0.4-3.3-1.7c-4.2-12.1-15.6-20.3-28.6-20.3c-13,0-24.4,8.2-28.6,20.3
				c-0.5,1.3-1.9,2.1-3.3,1.7l0,0c-1.6-0.4-2.5-2.1-1.9-3.6c5-14.2,18.4-24,33.8-24c15.3,0,28.8,9.7,33.8,24
				C4447.3,692.7,4446.4,694.4,4444.8,694.8L4444.8,694.8z"/>
		</g>
	</g>
	<g>
		<g>
			<path class="st4" d="M3610,1255.8c-15.3,0-28.8-9.7-33.8-24c-0.5-1.5,0.4-3.2,1.9-3.6l0,0c1.4-0.3,2.8,0.4,3.3,1.7
				c4.2,12.1,15.6,20.3,28.6,20.3c13,0,24.4-8.2,28.6-20.3c0.5-1.3,1.9-2.1,3.3-1.7l0,0c1.6,0.4,2.5,2.1,1.9,3.6
				C3638.8,1246,3625.3,1255.8,3610,1255.8z"/>
		</g>
		<g>
			<path class="st4" d="M3641.8,1211.8c-1.4,0.4-2.8-0.4-3.3-1.7c-4.2-12.1-15.6-20.3-28.6-20.3c-13,0-24.4,8.2-28.6,20.3
				c-0.5,1.3-1.9,2.1-3.3,1.7l0,0c-1.6-0.4-2.5-2.1-1.9-3.6c5-14.2,18.4-24,33.8-24c15.3,0,28.8,9.7,33.8,24
				C3644.3,1209.7,3643.4,1211.4,3641.8,1211.8L3641.8,1211.8z"/>
		</g>
	</g>
</g>
<g>
	<rect x="1715" y="450" class="st0" width="1320" height="1100"/>
	<linearGradient id="SVGID_5_" gradientUnits="userSpaceOnUse" x1="2102.625" y1="1435.366" x2="2609.2485" y2="557.8683">
		<stop  offset="0" style="stop-color:#FF5682"/>
		<stop  offset="1" style="stop-color:#FFE632"/>
	</linearGradient>
	<path class="st6" d="M2793.8,698.2c-60.6-106.7-194.9-135.1-272.9-71.9c-132.7,107.6-230.9,164-461.9,178.2
		c-233.9,14.4-326.2,204.7-254.1,379.9c42.4,103.1,236,254.6,445,281.3c245.6,31.5,384.5-45.2,460.7-123.8
		c76.8-79.2,133.3-169.4,145.9-331.9C2871.8,811.3,2813.2,732.2,2793.8,698.2z"/>
	<linearGradient id="SVGID_6_" gradientUnits="userSpaceOnUse" x1="2167.3213" y1="1164.8276" x2="2706.3245" y2="625.8245">
		<stop  offset="0" style="stop-color:#FF5682"/>
		<stop  offset="6.703204e-02" style="stop-color:#FF6C76"/>
		<stop  offset="0.1978" style="stop-color:#FF9161"/>
		<stop  offset="0.3348" style="stop-color:#FFB050"/>
		<stop  offset="0.4777" style="stop-color:#FFC843"/>
		<stop  offset="0.629" style="stop-color:#FFD939"/>
		<stop  offset="0.7942" style="stop-color:#FFE334"/>
		<stop  offset="1" style="stop-color:#FFE632"/>
	</linearGradient>
	<path class="st7" d="M2706.6,795.9c-188.3-6.5-278.9-88.4-303.9-162.3c-25-73.8-95-190.8-231.2-88.5
		c-136.2,102.3-186.8,290.9-132.9,442.7c57.5,162,234.6,278.7,487.6,264c218.5-12.7,399.7-187.4,423.3-313.4
		C2969,835,2891.6,802.2,2706.6,795.9z"/>
	<path class="st8" d="M2518.1,681c-32.9,0-63.1,2-87,4.3c-10.2,1-19.2,2.1-26.8,3.1c-110.4,14.7-266.5,85.3-386.8,173.3
		c-77.6,56.8-140.3,120.7-166.2,181.5c-47.4,111.2,19.1,151.4,146.7,163.5c76,7.2,164.3,33.5,235,109
		c49.7,53.1,99.9,113.5,161,113.5c11.8,0,24.1-2.3,36.8-7.3c63.3-25,70.1-90.5,93.5-169.9c-3.9,0.2-7.8,0.4-11.6,0.5
		c-3.3,11.5-6.4,22.7-9.3,33.7c-16.6,61.8-28.7,106.5-76.6,125.4c-11.1,4.4-21.8,6.5-32.8,6.5c-51,0-96.2-48.8-139.9-95.9
		c-4.4-4.7-8.7-9.4-13.1-14c-61.1-65.1-142.4-102.9-242-112.4c-78.8-7.5-125.6-25.5-143.3-55.2c-13.3-22.3-11.4-52.8,5.7-93
		c22.8-53.6,78.3-114.3,156.3-172.3c22.4-16.7,46.6-33.1,72.4-49c107.9-66.7,228.8-115.2,315.5-126.8c8.2-1.1,19.8-2.5,33.9-3.7
		c21.3-1.9,48.4-3.6,78.5-3.6c69.6,0,127.6,8.6,172.6,25.7c48.4,18.3,80.1,46.3,94.3,83.2c4.2,0.4,8.2,0.9,12.2,1.4
		C2763.7,702.4,2626.6,681,2518.1,681z"/>
	<linearGradient id="SVGID_7_" gradientUnits="userSpaceOnUse" x1="2708.1826" y1="1241.9805" x2="2893.8403" y2="1056.3228">
		<stop  offset="0" style="stop-color:#FFE632"/>
		<stop  offset="1" style="stop-color:#FF5682"/>
	</linearGradient>
	<path class="st9" d="M2909.3,1078.3c-17.5-40.7-60.1-40.5-94.4-23.4c-34.3,17.1-55.9,40.8-76.5,77c-24,42.2-27.2,90.9-16.9,121
		c5.6,16.5,32.1,15.8,34-9.5c3.1-40.7,32.9-67.9,88.5-71.2C2892.4,1169.3,2926.9,1119.1,2909.3,1078.3z"/>
	<g>
		<g>
			<g>
				<path class="st8" d="M1946,1077L1946,1077c1.5,0,2.8,1.2,2.8,2.7v16.5c0,1.5-1.2,2.7-2.7,2.7h0c-1.5,0-2.7-1.2-2.7-2.7v-16.5
					C1943.2,1078.2,1944.5,1077,1946,1077z"/>
			</g>
			<g>
				<path class="st8" d="M1946,1121L1946,1121c1.5,0,2.8,1.2,2.8,2.7v16.5c0,1.5-1.2,2.7-2.7,2.7h0c-1.5,0-2.7-1.2-2.7-2.7v-16.5
					C1943.2,1122.2,1944.5,1121,1946,1121z"/>
			</g>
			<g>
				<path class="st8" d="M1921.2,1092.5l14.3,8.3c1.3,0.8,1.8,2.4,1,3.8l0,0c-0.8,1.3-2.4,1.8-3.8,1l-14.3-8.3
					c-1.3-0.8-1.8-2.4-1-3.8l0,0C1918.2,1092.2,1919.9,1091.7,1921.2,1092.5z"/>
			</g>
			<g>
				<path class="st8" d="M1959.3,1114.5l14.3,8.3c1.3,0.8,1.8,2.4,1,3.8l0,0c-0.8,1.3-2.4,1.8-3.8,1l-14.3-8.3
					c-1.3-0.8-1.8-2.4-1-3.8l0,0C1956.3,1114.2,1958,1113.7,1959.3,1114.5z"/>
			</g>
			<g>
				<path class="st8" d="M1974.6,1093.5L1974.6,1093.5c0.8,1.3,0.3,3-1,3.8l-14.3,8.3c-1.3,0.8-3,0.3-3.8-1l0,0
					c-0.8-1.3-0.3-3,1-3.8l14.3-8.3C1972.1,1091.7,1973.8,1092.2,1974.6,1093.5z"/>
			</g>
			<g>
				<path class="st8" d="M1936.5,1115.5L1936.5,1115.5c0.8,1.3,0.3,3-1,3.8l-14.3,8.3c-1.3,0.8-3,0.3-3.8-1l0,0
					c-0.8-1.3-0.3-3,1-3.8l14.3-8.3C1934,1113.7,1935.7,1114.2,1936.5,1115.5z"/>
			</g>
		</g>
	</g>
	<g>
		<g>
			<g>
				<path class="st8" d="M2859,868L2859,868c1.5,0,2.8,1.2,2.8,2.7v16.5c0,1.5-1.2,2.7-2.7,2.7h0c-1.5,0-2.8-1.2-2.8-2.7v-16.5
					C2856.2,869.2,2857.5,868,2859,868z"/>
			</g>
			<g>
				<path class="st8" d="M2859,912L2859,912c1.5,0,2.8,1.2,2.8,2.7v16.5c0,1.5-1.2,2.7-2.7,2.7h0c-1.5,0-2.8-1.2-2.8-2.7v-16.5
					C2856.2,913.2,2857.5,912,2859,912z"/>
			</g>
			<g>
				<path class="st8" d="M2834.2,883.5l14.3,8.3c1.3,0.8,1.8,2.4,1,3.8v0c-0.8,1.3-2.4,1.8-3.8,1l-14.3-8.3c-1.3-0.8-1.8-2.4-1-3.8
					v0C2831.2,883.2,2832.9,882.7,2834.2,883.5z"/>
			</g>
			<g>
				<path class="st8" d="M2872.3,905.5l14.3,8.3c1.3,0.8,1.8,2.4,1,3.8v0c-0.8,1.3-2.4,1.8-3.8,1l-14.3-8.3c-1.3-0.8-1.8-2.4-1-3.8
					l0,0C2869.3,905.2,2871,904.7,2872.3,905.5z"/>
			</g>
			<g>
				<path class="st8" d="M2887.6,884.5L2887.6,884.5c0.8,1.3,0.3,3-1,3.8l-14.3,8.3c-1.3,0.8-3,0.3-3.8-1v0c-0.8-1.3-0.3-3,1-3.8
					l14.3-8.3C2885.1,882.7,2886.8,883.2,2887.6,884.5z"/>
			</g>
			<g>
				<path class="st8" d="M2849.5,906.5L2849.5,906.5c0.8,1.3,0.3,3-1,3.8l-14.3,8.3c-1.3,0.8-3,0.3-3.8-1v0c-0.8-1.3-0.3-3,1-3.8
					l14.3-8.3C2847,904.7,2848.7,905.2,2849.5,906.5z"/>
			</g>
		</g>
	</g>
	<g>
		<g>
			<g>
				<path class="st8" d="M2782,549L2782,549c1.5,0,2.8,1.2,2.8,2.7v16.5c0,1.5-1.2,2.7-2.7,2.7h0c-1.5,0-2.8-1.2-2.8-2.7v-16.5
					C2779.2,550.2,2780.5,549,2782,549z"/>
			</g>
			<g>
				<path class="st8" d="M2782,593L2782,593c1.5,0,2.8,1.2,2.8,2.7v16.5c0,1.5-1.2,2.7-2.7,2.7h0c-1.5,0-2.8-1.2-2.8-2.7v-16.5
					C2779.2,594.2,2780.5,593,2782,593z"/>
			</g>
			<g>
				<path class="st8" d="M2795.7,579.3h16.5c1.5,0,2.7,1.2,2.7,2.7v0c0,1.5-1.2,2.7-2.7,2.7h-16.5c-1.5,0-2.8-1.2-2.8-2.7v0
					C2793,580.5,2794.2,579.3,2795.7,579.3z"/>
			</g>
			<g>
				<path class="st8" d="M2751.7,579.3h16.5c1.5,0,2.7,1.2,2.7,2.7v0c0,1.5-1.2,2.7-2.7,2.7h-16.5c-1.5,0-2.8-1.2-2.8-2.7v0
					C2749,580.5,2750.2,579.3,2751.7,579.3z"/>
			</g>
		</g>
	</g>
	<g>
		<g>
			<g>
				<path class="st8" d="M2012,637L2012,637c1.5,0,2.8,1.2,2.8,2.7v16.5c0,1.5-1.2,2.7-2.7,2.7h0c-1.5,0-2.7-1.2-2.7-2.7v-16.5
					C2009.2,638.2,2010.5,637,2012,637z"/>
			</g>
			<g>
				<path class="st8" d="M2012,681L2012,681c1.5,0,2.8,1.2,2.8,2.7v16.5c0,1.5-1.2,2.7-2.7,2.7h0c-1.5,0-2.7-1.2-2.7-2.7v-16.5
					C2009.2,682.2,2010.5,681,2012,681z"/>
			</g>
			<g>
				<path class="st8" d="M2025.7,667.3h16.5c1.5,0,2.7,1.2,2.7,2.7v0c0,1.5-1.2,2.7-2.7,2.7h-16.5c-1.5,0-2.7-1.2-2.7-2.7v0
					C2023,668.5,2024.2,667.3,2025.7,667.3z"/>
			</g>
			<g>
				<path class="st8" d="M1981.7,667.3h16.5c1.5,0,2.7,1.2,2.7,2.7v0c0,1.5-1.2,2.7-2.7,2.7h-16.5c-1.5,0-2.7-1.2-2.7-2.7v0
					C1979,668.5,1980.2,667.3,1981.7,667.3z"/>
			</g>
		</g>
	</g>
	<g>
		<g>
			<g>
				<path class="st8" d="M1913,799.3c15.3,0,28.8,9.7,33.8,24c0.5,1.5-0.4,3.2-1.9,3.6l0,0c-1.4,0.4-2.8-0.4-3.3-1.7
					c-4.2-12.1-15.6-20.3-28.6-20.3c-13,0-24.4,8.2-28.6,20.3c-0.5,1.3-1.9,2.1-3.3,1.7l0,0c-1.6-0.4-2.5-2.1-1.9-3.6
					C1884.2,809,1897.7,799.3,1913,799.3z"/>
			</g>
			<g>
				<path class="st8" d="M1881.2,843.2c1.4-0.4,2.8,0.4,3.3,1.7c4.2,12.1,15.6,20.3,28.6,20.3c13,0,24.4-8.2,28.6-20.3
					c0.5-1.3,1.9-2.1,3.3-1.7l0,0c1.6,0.4,2.5,2.1,1.9,3.6c-5,14.2-18.4,24-33.8,24c-15.3,0-28.8-9.7-33.8-24
					C1878.7,845.3,1879.6,843.6,1881.2,843.2L1881.2,843.2z"/>
			</g>
		</g>
	</g>
	<g>
		<g>
			<g>
				<path class="st8" d="M2628,1294.3c15.3,0,28.8,9.7,33.8,24c0.5,1.5-0.4,3.2-1.9,3.6l0,0c-1.4,0.4-2.8-0.4-3.3-1.7
					c-4.2-12.1-15.6-20.3-28.6-20.3c-13,0-24.4,8.2-28.6,20.3c-0.5,1.3-1.9,2.1-3.3,1.7l0,0c-1.6-0.4-2.5-2.1-1.9-3.6
					C2599.2,1304,2612.7,1294.3,2628,1294.3z"/>
			</g>
			<g>
				<path class="st8" d="M2596.2,1338.2c1.4-0.3,2.8,0.4,3.3,1.7c4.2,12.1,15.6,20.3,28.6,20.3c13,0,24.4-8.2,28.6-20.3
					c0.5-1.3,1.9-2.1,3.3-1.7l0,0c1.6,0.4,2.5,2.1,1.9,3.6c-5,14.2-18.4,24-33.8,24s-28.8-9.7-33.8-24
					C2593.7,1340.3,2594.6,1338.6,2596.2,1338.2L2596.2,1338.2z"/>
			</g>
		</g>
	</g>
	<linearGradient id="SVGID_8_" gradientUnits="userSpaceOnUse" x1="2017.5475" y1="962.8674" x2="2181.9326" y2="1127.2524">
		<stop  offset="0" style="stop-color:#FFE632"/>
		<stop  offset="1" style="stop-color:#FF5682"/>
	</linearGradient>
	<path class="st10" d="M2197.7,1038.8c-40.4-31.7-75.5-63.5-88.8-80.5s-28.7-26.6-51.9-23.9c-16.9,2-32.4,16-31.8,37
		c0.8,26-9.4,37.2-19,52.7c-24.3,39.4,40.1,62.2,101.8,78.1c37.9,9.7,80.4,11.9,100.6-2.4
		C2228.9,1085.5,2223.6,1059.1,2197.7,1038.8z"/>
</g>
<g>
	<rect x="150" y="450" class="st0" width="1320" height="1100"/>
	<linearGradient id="SVGID_9_" gradientUnits="userSpaceOnUse" x1="438.5012" y1="632.1885" x2="1070.2743" y2="1263.9615">
		<stop  offset="0" style="stop-color:#2961FF"/>
		<stop  offset="1" style="stop-color:#18FFFF"/>
	</linearGradient>
	<path class="st11" d="M1105.9,619.9c-67.4-35.6-107.3,14.9-126.4,34.5c-19.1,19.7-81.8,62.4-156-49.8
		C735.2,471,563.8,474.4,477.1,599c-77.5,111.4-43.9,242.7-2.2,314.2c41.8,71.5,70.7,157.4,10.9,254.5
		c-59.8,97.1-20.5,216.9,74.7,254.9c103,41.1,323.4,66.8,484.3-138.5c102.5-130.9,141.4-286.5,144.4-410
		C1192.2,750.6,1173.3,655.5,1105.9,619.9z"/>
	<linearGradient id="SVGID_10_" gradientUnits="userSpaceOnUse" x1="572.598" y1="1294.6274" x2="1117.902" y2="749.3233">
		<stop  offset="0" style="stop-color:#2961FF"/>
		<stop  offset="1" style="stop-color:#18FFFF"/>
	</linearGradient>
	<path class="st12" d="M1310.2,1002.5c-53.9-162.3-204.5-288.9-486.5-313.8C580.2,667.3,358,805.2,296.1,909.3
		c-61.9,104.1,25,156.8,226.3,193.5c204.9,37.4,281.1,140.8,287.4,224.8c6.4,84,50,222.1,228.6,133.2
		C1217.1,1371.8,1364.1,1164.8,1310.2,1002.5z"/>
	<linearGradient id="SVGID_11_" gradientUnits="userSpaceOnUse" x1="276.5317" y1="662.8433" x2="579.5035" y2="837.7642">
		<stop  offset="0" style="stop-color:#2961FF"/>
		<stop  offset="1" style="stop-color:#18FFFF"/>
	</linearGradient>
	<path class="st13" d="M554.2,752.2c-24.8-69.8-82.3-113-132.7-130.1c-50.4-17.1-72-1.6-74.2,27.1c-2.1,28.7-17.1,41.1-53.2,43.4
		c-36.1,2.3-71.3,31.9-49.4,70.2c26.9,47.1,66.7,21.4,129.7,55.9c60.8,33.4,104.3,90.7,149.1,81.2C588.9,886,566.3,786,554.2,752.2z
		"/>
	<linearGradient id="SVGID_12_" gradientUnits="userSpaceOnUse" x1="502.7224" y1="1176.7021" x2="701.2977" y2="1062.0547">
		<stop  offset="0" style="stop-color:#2961FF"/>
		<stop  offset="1" style="stop-color:#18FFFF"/>
	</linearGradient>
	<path class="st14" d="M609.1,1046.8c-84,16.2-145.2,59.6-105.8,130.8c0.1,0,29.9,57.6,78.2,38.6c36.3-14.3,38-50.9,99.3-90
		C751,1081.2,687.1,1031.7,609.1,1046.8z"/>
	<path class="st15" d="M1270.2,790.9c-27.9-72-103.9-93.4-183.7-93.4c-42.7,0-86.4,6.1-124.5,13.8c-36.5,7.4-67.8,16.3-88,22.8
		c-141.3,45.3-347.8,208-429.4,352.2c-14.7,25.9-25.3,51.3-30.8,75.2c-22.5,98.3,27.5,131.1,121.6,131.1c13.8,0,28.4-0.7,44-2
		c11.8-1,24.1-1.6,36.6-1.6c62.2,0,131.7,13.9,196.2,59.6c-0.7-5-1.3-9.8-1.7-14.5c-56.1-37.2-121.4-56.1-194.5-56.1
		c-12.2,0-24.8,0.5-37.5,1.6c-15.6,1.3-30.1,2-43.1,2c-51.9,0-85.3-10.2-102.1-31.3c-14.9-18.7-17.8-46.9-8.8-86.3
		c5.3-23.1,15.9-48.3,31.2-75c31-54,81.5-113.6,146.4-171.8c90.2-80.9,195.6-147.1,275.2-172.6c16.4-5.3,58.4-17.9,109.3-26.7
		c31.2-5.4,65.8-9.4,99.9-9.4c92.9,0,151.3,29.1,173.4,86.4c12.2,31.5,6.2,61.3-9.8,92.5c2.4,3.3,4.8,6.5,7.2,9.9
		C1276.5,862,1284.5,827.7,1270.2,790.9z"/>
	<g>
		<g>
			<path class="st15" d="M939.8,1396L939.8,1396c-1.5,0-2.8-1.2-2.8-2.7v-16.5c0-1.5,1.2-2.7,2.7-2.7h0c1.5,0,2.7,1.2,2.7,2.7v16.5
				C942.5,1394.8,941.3,1396,939.8,1396z"/>
		</g>
		<g>
			<path class="st15" d="M939.8,1352L939.8,1352c-1.5,0-2.8-1.2-2.8-2.7v-16.5c0-1.5,1.2-2.7,2.7-2.7h0c1.5,0,2.7,1.2,2.7,2.7v16.5
				C942.5,1350.8,941.3,1352,939.8,1352z"/>
		</g>
		<g>
			<path class="st15" d="M964.6,1380.5l-14.3-8.3c-1.3-0.8-1.8-2.4-1-3.8l0,0c0.8-1.3,2.4-1.8,3.8-1l14.3,8.3c1.3,0.8,1.8,2.4,1,3.8
				l0,0C967.6,1380.8,965.9,1381.3,964.6,1380.5z"/>
		</g>
		<g>
			<path class="st15" d="M926.5,1358.5l-14.3-8.3c-1.3-0.8-1.8-2.4-1-3.8l0,0c0.8-1.3,2.4-1.8,3.8-1l14.3,8.3c1.3,0.8,1.8,2.4,1,3.8
				l0,0C929.5,1358.8,927.8,1359.3,926.5,1358.5z"/>
		</g>
		<g>
			<path class="st15" d="M911.2,1379.5L911.2,1379.5c-0.8-1.3-0.3-3,1-3.8l14.3-8.3c1.3-0.8,3-0.3,3.8,1l0,0c0.8,1.3,0.3,3-1,3.8
				l-14.3,8.3C913.7,1381.3,912,1380.8,911.2,1379.5z"/>
		</g>
		<g>
			<path class="st15" d="M949.3,1357.5L949.3,1357.5c-0.8-1.3-0.3-3,1-3.8l14.3-8.3c1.3-0.8,3-0.3,3.8,1h0c0.8,1.3,0.3,3-1,3.8
				l-14.3,8.3C951.8,1359.3,950.1,1358.8,949.3,1357.5z"/>
		</g>
	</g>
	<g>
		<g>
			<path class="st15" d="M579,670L579,670c-1.5,0-2.8-1.2-2.8-2.7v-16.5c0-1.5,1.2-2.7,2.7-2.7h0c1.5,0,2.7,1.2,2.7,2.7v16.5
				C581.7,668.8,580.5,670,579,670z"/>
		</g>
		<g>
			<path class="st15" d="M579,626L579,626c-1.5,0-2.8-1.2-2.8-2.7v-16.5c0-1.5,1.2-2.7,2.7-2.7h0c1.5,0,2.7,1.2,2.7,2.7v16.5
				C581.7,624.8,580.5,626,579,626z"/>
		</g>
		<g>
			<path class="st15" d="M565.2,639.8h-16.5c-1.5,0-2.7-1.2-2.7-2.7v0c0-1.5,1.2-2.7,2.7-2.7h16.5c1.5,0,2.7,1.2,2.7,2.7v0
				C568,638.5,566.8,639.8,565.2,639.8z"/>
		</g>
		<g>
			<path class="st15" d="M609.2,639.8h-16.5c-1.5,0-2.7-1.2-2.7-2.7v0c0-1.5,1.2-2.7,2.7-2.7h16.5c1.5,0,2.7,1.2,2.7,2.7v0
				C612,638.5,610.8,639.8,609.2,639.8z"/>
		</g>
	</g>
	<g>
		<g>
			<path class="st15" d="M381,969.8c-15.3,0-28.8-9.7-33.8-24c-0.5-1.5,0.4-3.2,1.9-3.6l0,0c1.4-0.4,2.8,0.4,3.3,1.7
				c4.2,12.1,15.6,20.3,28.6,20.3c13,0,24.4-8.2,28.6-20.3c0.5-1.3,1.9-2.1,3.3-1.7l0,0c1.6,0.4,2.5,2.1,1.9,3.6
				C409.8,960,396.3,969.8,381,969.8z"/>
		</g>
		<g>
			<path class="st15" d="M412.8,925.8c-1.4,0.4-2.8-0.4-3.3-1.7c-4.2-12.1-15.6-20.3-28.6-20.3c-13,0-24.4,8.2-28.6,20.3
				c-0.5,1.3-1.9,2.1-3.3,1.7l0,0c-1.6-0.4-2.5-2.1-1.9-3.6c5-14.2,18.4-24,33.8-24c15.3,0,28.8,9.7,33.8,24
				C415.3,923.7,414.4,925.4,412.8,925.8L412.8,925.8z"/>
		</g>
	</g>
	<g>
		<g>
			<path class="st15" d="M1250,648L1250,648c-1.5,0-2.8-1.2-2.8-2.7v-16.5c0-1.5,1.2-2.7,2.7-2.7h0c1.5,0,2.7,1.2,2.7,2.7v16.5
				C1252.7,646.8,1251.5,648,1250,648z"/>
		</g>
		<g>
			<path class="st15" d="M1250,604L1250,604c-1.5,0-2.8-1.2-2.8-2.7v-16.5c0-1.5,1.2-2.7,2.7-2.7h0c1.5,0,2.7,1.2,2.7,2.7v16.5
				C1252.7,602.8,1251.5,604,1250,604z"/>
		</g>
		<g>
			<path class="st15" d="M1274.8,632.5l-14.3-8.3c-1.3-0.8-1.8-2.4-1-3.8l0,0c0.8-1.3,2.4-1.8,3.8-1l14.3,8.3c1.3,0.8,1.8,2.4,1,3.8
				l0,0C1277.8,632.8,1276.1,633.3,1274.8,632.5z"/>
		</g>
		<g>
			<path class="st15" d="M1236.7,610.5l-14.3-8.3c-1.3-0.8-1.8-2.4-1-3.8l0,0c0.8-1.3,2.4-1.8,3.8-1l14.3,8.3c1.3,0.8,1.8,2.4,1,3.8
				l0,0C1239.7,610.8,1238,611.3,1236.7,610.5z"/>
		</g>
		<g>
			<path class="st15" d="M1221.4,631.5L1221.4,631.5c-0.8-1.3-0.3-3,1-3.8l14.3-8.3c1.3-0.8,3-0.3,3.8,1l0,0c0.8,1.3,0.3,3-1,3.8
				l-14.3,8.3C1223.9,633.3,1222.2,632.8,1221.4,631.5z"/>
		</g>
		<g>
			<path class="st15" d="M1259.5,609.5L1259.5,609.5c-0.8-1.3-0.3-3,1-3.8l14.3-8.3c1.3-0.8,3-0.3,3.8,1l0,0c0.8,1.3,0.3,3-1,3.8
				l-14.3,8.3C1262,611.3,1260.3,610.8,1259.5,609.5z"/>
		</g>
	</g>
	<g>
		<g>
			<path class="st15" d="M1250,1033L1250,1033c-1.5,0-2.8-1.2-2.8-2.7v-16.5c0-1.5,1.2-2.7,2.7-2.7h0c1.5,0,2.7,1.2,2.7,2.7v16.5
				C1252.7,1031.8,1251.5,1033,1250,1033z"/>
		</g>
		<g>
			<path class="st15" d="M1250,989L1250,989c-1.5,0-2.8-1.2-2.8-2.7v-16.5c0-1.5,1.2-2.7,2.7-2.7h0c1.5,0,2.7,1.2,2.7,2.7v16.5
				C1252.7,987.8,1251.5,989,1250,989z"/>
		</g>
		<g>
			<path class="st15" d="M1236.2,1002.8h-16.5c-1.5,0-2.7-1.2-2.7-2.7v0c0-1.5,1.2-2.7,2.7-2.7h16.5c1.5,0,2.7,1.2,2.7,2.7v0
				C1239,1001.5,1237.8,1002.8,1236.2,1002.8z"/>
		</g>
		<g>
			<path class="st15" d="M1280.2,1002.8h-16.5c-1.5,0-2.7-1.2-2.7-2.7v0c0-1.5,1.2-2.7,2.7-2.7h16.5c1.5,0,2.7,1.2,2.7,2.7v0
				C1283,1001.5,1281.8,1002.8,1280.2,1002.8z"/>
		</g>
	</g>
	<g>
		<g>
			<path class="st15" d="M1096,815.8c-15.3,0-28.8-9.7-33.8-24c-0.5-1.5,0.4-3.2,1.9-3.6l0,0c1.4-0.4,2.8,0.4,3.3,1.7
				c4.2,12.1,15.6,20.3,28.6,20.3c13,0,24.4-8.2,28.6-20.3c0.5-1.3,1.9-2.1,3.3-1.7l0,0c1.6,0.4,2.5,2.1,1.9,3.6
				C1124.8,806,1111.3,815.8,1096,815.8z"/>
		</g>
		<g>
			<path class="st15" d="M1127.8,771.8c-1.4,0.4-2.8-0.4-3.3-1.7c-4.2-12.1-15.6-20.3-28.6-20.3c-13,0-24.4,8.2-28.6,20.3
				c-0.5,1.3-1.9,2.1-3.3,1.7l0,0c-1.6-0.4-2.5-2.1-1.9-3.6c5-14.2,18.4-24,33.8-24c15.3,0,28.8,9.7,33.8,24
				C1130.3,769.7,1129.4,771.4,1127.8,771.8L1127.8,771.8z"/>
		</g>
	</g>
</g>
</svg>
