<?xml version="1.0" encoding="utf-8"?>
<!-- Generator: Adobe Illustrator 22.1.0, SVG Export Plug-In . SVG Version: 6.00 Build 0)  -->
<svg version="1.1" xmlns="http://www.w3.org/2000/svg" xmlns:xlink="http://www.w3.org/1999/xlink" x="0px" y="0px"
	 viewBox="0 0 500 500" style="enable-background:new 0 0 500 500;" xml:space="preserve">
<style type="text/css">
	.st0{display:none;}
	.st1{display:inline;fill:#FFFFFF;}
	.st2{display:inline;opacity:0.49;fill:url(#SVGID_1_);}
	.st3{display:inline;opacity:0.49;fill:url(#SVGID_2_);}
	.st4{fill:#D3145A;}
	.st5{fill:url(#SVGID_3_);}
	.st6{fill:url(#SVGID_4_);}
	.st7{fill:url(#SVGID_5_);}
	.st8{fill:url(#SVGID_6_);}
	.st9{fill:url(#SVGID_7_);}
	.st10{fill:url(#SVGID_8_);}
	.st11{fill:url(#SVGID_9_);}
	.st12{fill:url(#SVGID_10_);}
	.st13{fill:url(#SVGID_11_);}
	.st14{fill:#F4695E;}
	.st15{fill:url(#SVGID_12_);}
	.st16{fill:url(#SVGID_13_);}
	.st17{fill:url(#SVGID_14_);}
	.st18{fill:url(#SVGID_15_);}
</style>
<g id="BACKGROUND" class="st0">
	<rect class="st1" width="500" height="500"/>
	
		<radialGradient id="SVGID_1_" cx="-69.9221" cy="312.8683" r="30.7463" gradientTransform="matrix(4.6697 0 0 0.3364 573.9562 335.9233)" gradientUnits="userSpaceOnUse">
		<stop  offset="0" style="stop-color:#000000"/>
		<stop  offset="1" style="stop-color:#1A1A1A;stop-opacity:0"/>
	</radialGradient>
	<rect x="103.8" y="430.8" class="st2" width="287.2" height="20.7"/>
	
		<radialGradient id="SVGID_2_" cx="-69.9221" cy="-299.0703" r="30.7463" gradientTransform="matrix(4.6697 0 0 0.3364 573.9562 335.9233)" gradientUnits="userSpaceOnUse">
		<stop  offset="0" style="stop-color:#000000"/>
		<stop  offset="1" style="stop-color:#1A1A1A;stop-opacity:0"/>
	</radialGradient>
	<rect x="103.8" y="225" class="st3" width="287.2" height="20.7"/>
</g>
<g id="OBJECTS">
	<g>
		<g>
			<path class="st4" d="M310.6,145.2c-0.1,0-0.3,0-0.4-0.1c-0.2-0.2-0.2-0.5,0-0.7l12.8-12.8c0.2-0.2,0.5-0.2,0.7,0
				c0.2,0.2,0.2,0.5,0,0.7L311,145.1C310.9,145.2,310.8,145.2,310.6,145.2z"/>
			<path class="st4" d="M306,155.9c-0.1,0-0.3,0-0.4-0.1c-0.2-0.2-0.2-0.5,0-0.7l28.1-28.1c0.2-0.2,0.5-0.2,0.7,0
				c0.2,0.2,0.2,0.5,0,0.7l-28.1,28.1C306.3,155.8,306.2,155.9,306,155.9z"/>
			<path class="st4" d="M304.9,163.1c-0.1,0-0.3,0-0.4-0.1c-0.2-0.2-0.2-0.5,0-0.7l36.5-36.5c0.2-0.2,0.5-0.2,0.7,0
				c0.2,0.2,0.2,0.5,0,0.7l-36.5,36.5C305.1,163,305,163.1,304.9,163.1z"/>
			<path class="st4" d="M304.8,169.2c-0.1,0-0.3,0-0.4-0.1c-0.2-0.2-0.2-0.5,0-0.7l42.6-42.6c0.2-0.2,0.5-0.2,0.7,0
				c0.2,0.2,0.2,0.5,0,0.7l-42.6,42.6C305.1,169.2,305,169.2,304.8,169.2z"/>
			<path class="st4" d="M305.6,174.5c-0.1,0-0.3,0-0.4-0.1c-0.2-0.2-0.2-0.5,0-0.7l47.1-47.1c0.2-0.2,0.5-0.2,0.7,0
				c0.2,0.2,0.2,0.5,0,0.7L306,174.3C305.9,174.4,305.7,174.5,305.6,174.5z"/>
			<path class="st4" d="M307,179.2c-0.1,0-0.3,0-0.4-0.1c-0.2-0.2-0.2-0.5,0-0.7l50.5-50.5c0.2-0.2,0.5-0.2,0.7,0
				c0.2,0.2,0.2,0.5,0,0.7l-50.5,50.5C307.2,179.2,307.1,179.2,307,179.2z"/>
			<path class="st4" d="M308.8,183.5c-0.1,0-0.3,0-0.4-0.1c-0.2-0.2-0.2-0.5,0-0.7l53-53c0.2-0.2,0.5-0.2,0.7,0
				c0.2,0.2,0.2,0.5,0,0.7l-53,53C309,183.4,308.9,183.5,308.8,183.5z"/>
			<path class="st4" d="M310.9,187.4c-0.1,0-0.3,0-0.4-0.1c-0.2-0.2-0.2-0.5,0-0.7l54.7-54.7c0.2-0.2,0.5-0.2,0.7,0
				c0.2,0.2,0.2,0.5,0,0.7l-54.7,54.7C311.2,187.3,311.1,187.4,310.9,187.4z"/>
			<path class="st4" d="M313.5,190.9c-0.1,0-0.3,0-0.4-0.1c-0.2-0.2-0.2-0.5,0-0.7l55.7-55.7c0.2-0.2,0.5-0.2,0.7,0
				c0.2,0.2,0.2,0.5,0,0.7l-55.7,55.7C313.7,190.9,313.6,190.9,313.5,190.9z"/>
			<path class="st4" d="M316.4,194.1c-0.1,0-0.3,0-0.4-0.1c-0.2-0.2-0.2-0.5,0-0.7l56-56c0.2-0.2,0.5-0.2,0.7,0
				c0.2,0.2,0.2,0.5,0,0.7l-56,56C316.6,194,316.5,194.1,316.4,194.1z"/>
			<path class="st4" d="M319.6,197c-0.1,0-0.3,0-0.4-0.1c-0.2-0.2-0.2-0.5,0-0.7l55.7-55.7c0.2-0.2,0.5-0.2,0.7,0
				c0.2,0.2,0.2,0.5,0,0.7l-55.7,55.7C319.8,196.9,319.7,197,319.6,197z"/>
			<path class="st4" d="M323.1,199.5c-0.1,0-0.3,0-0.4-0.1c-0.2-0.2-0.2-0.5,0-0.7l54.7-54.6c0.2-0.2,0.5-0.2,0.7,0
				c0.2,0.2,0.2,0.5,0,0.7l-54.7,54.6C323.4,199.4,323.2,199.5,323.1,199.5z"/>
			<path class="st4" d="M327,201.7c-0.1,0-0.3,0-0.4-0.1c-0.2-0.2-0.2-0.5,0-0.7l52.9-52.9c0.2-0.2,0.5-0.2,0.7,0
				c0.2,0.2,0.2,0.5,0,0.7l-52.9,52.9C327.2,201.6,327.1,201.7,327,201.7z"/>
			<path class="st4" d="M331.3,203.4c-0.1,0-0.3,0-0.4-0.1c-0.2-0.2-0.2-0.5,0-0.7l50.4-50.4c0.2-0.2,0.5-0.2,0.7,0
				c0.2,0.2,0.2,0.5,0,0.7l-50.4,50.4C331.5,203.4,331.4,203.4,331.3,203.4z"/>
			<path class="st4" d="M336,204.8c-0.1,0-0.3,0-0.4-0.1c-0.2-0.2-0.2-0.5,0-0.7l47-47c0.2-0.2,0.5-0.2,0.7,0c0.2,0.2,0.2,0.5,0,0.7
				l-47,47C336.3,204.7,336.1,204.8,336,204.8z"/>
			<path class="st4" d="M341.3,205.5c-0.1,0-0.3,0-0.4-0.1c-0.2-0.2-0.2-0.5,0-0.7l42.4-42.4c0.2-0.2,0.5-0.2,0.7,0
				c0.2,0.2,0.2,0.5,0,0.7l-42.4,42.4C341.6,205.5,341.5,205.5,341.3,205.5z"/>
			<path class="st4" d="M347.4,205.5c-0.1,0-0.3,0-0.4-0.1c-0.2-0.2-0.2-0.5,0-0.7l36.3-36.3c0.2-0.2,0.5-0.2,0.7,0
				c0.2,0.2,0.2,0.5,0,0.7l-36.3,36.3C347.7,205.4,347.6,205.5,347.4,205.5z"/>
			<path class="st4" d="M354.8,204.2c-0.1,0-0.3,0-0.4-0.1c-0.2-0.2-0.2-0.5,0-0.7l27.8-27.8c0.2-0.2,0.5-0.2,0.7,0
				c0.2,0.2,0.2,0.5,0,0.7l-27.8,27.8C355,204.2,354.9,204.2,354.8,204.2z"/>
			<path class="st4" d="M365.7,199.4c-0.1,0-0.3,0-0.4-0.1c-0.2-0.2-0.2-0.5,0-0.7l12.1-12.1c0.2-0.2,0.5-0.2,0.7,0
				c0.2,0.2,0.2,0.5,0,0.7l-12.1,12.1C366,199.3,365.8,199.4,365.7,199.4z"/>
		</g>
		<g>
			<path class="st4" d="M114.3,74.7c-0.1,0-0.3,0-0.4-0.1c-0.2-0.2-0.2-0.5,0-0.7l15.5-15.5c0.2-0.2,0.5-0.2,0.7,0s0.2,0.5,0,0.7
				l-15.5,15.5C114.6,74.6,114.4,74.7,114.3,74.7z"/>
			<path class="st4" d="M108.7,87.6c-0.1,0-0.3,0-0.4-0.1c-0.2-0.2-0.2-0.5,0-0.7l34.1-34.1c0.2-0.2,0.5-0.2,0.7,0
				c0.2,0.2,0.2,0.5,0,0.7l-34.1,34.1C109,87.6,108.9,87.6,108.7,87.6z"/>
			<path class="st4" d="M107.4,96.4c-0.1,0-0.3,0-0.4-0.1c-0.2-0.2-0.2-0.5,0-0.7l44.3-44.3c0.2-0.2,0.5-0.2,0.7,0
				c0.2,0.2,0.2,0.5,0,0.7l-44.3,44.3C107.6,96.3,107.5,96.4,107.4,96.4z"/>
			<path class="st4" d="M107.3,103.8c-0.1,0-0.3,0-0.4-0.1c-0.2-0.2-0.2-0.5,0-0.7l51.7-51.7c0.2-0.2,0.5-0.2,0.7,0
				c0.2,0.2,0.2,0.5,0,0.7l-51.7,51.7C107.5,103.7,107.4,103.8,107.3,103.8z"/>
			<path class="st4" d="M108.2,110.2c-0.1,0-0.3,0-0.4-0.1c-0.2-0.2-0.2-0.5,0-0.7L165,52.2c0.2-0.2,0.5-0.2,0.7,0
				c0.2,0.2,0.2,0.5,0,0.7l-57.1,57.1C108.5,110.2,108.4,110.2,108.2,110.2z"/>
			<path class="st4" d="M109.9,115.9c-0.1,0-0.3,0-0.4-0.1c-0.2-0.2-0.2-0.5,0-0.7l61.3-61.2c0.2-0.2,0.5-0.2,0.7,0
				c0.2,0.2,0.2,0.5,0,0.7l-61.3,61.3C110.1,115.9,110,115.9,109.9,115.9z"/>
			<path class="st4" d="M112,121.1c-0.1,0-0.3,0-0.4-0.1c-0.2-0.2-0.2-0.5,0-0.7L175.9,56c0.2-0.2,0.5-0.2,0.7,0
				c0.2,0.2,0.2,0.5,0,0.7L112.4,121C112.3,121.1,112.2,121.1,112,121.1z"/>
			<path class="st4" d="M114.7,125.8c-0.1,0-0.3,0-0.4-0.1c-0.2-0.2-0.2-0.5,0-0.7l66.3-66.3c0.2-0.2,0.5-0.2,0.7,0
				c0.2,0.2,0.2,0.5,0,0.7L115,125.7C114.9,125.8,114.8,125.8,114.7,125.8z"/>
			<path class="st4" d="M117.8,130.1c-0.1,0-0.3,0-0.4-0.1c-0.2-0.2-0.2-0.5,0-0.7l67.5-67.5c0.2-0.2,0.5-0.2,0.7,0s0.2,0.5,0,0.7
				l-67.5,67.5C118,130,117.9,130.1,117.8,130.1z"/>
			<path class="st4" d="M121.3,134c-0.1,0-0.3,0-0.4-0.1c-0.2-0.2-0.2-0.5,0-0.7l67.9-67.9c0.2-0.2,0.5-0.2,0.7,0
				c0.2,0.2,0.2,0.5,0,0.7l-67.9,67.9C121.5,133.9,121.4,134,121.3,134z"/>
			<path class="st4" d="M125.1,137.4c-0.1,0-0.3,0-0.4-0.1c-0.2-0.2-0.2-0.5,0-0.7l67.5-67.5c0.2-0.2,0.5-0.2,0.7,0
				c0.2,0.2,0.2,0.5,0,0.7l-67.5,67.5C125.4,137.4,125.3,137.4,125.1,137.4z"/>
			<path class="st4" d="M129.4,140.5c-0.1,0-0.3,0-0.4-0.1c-0.2-0.2-0.2-0.5,0-0.7l66.3-66.3c0.2-0.2,0.5-0.2,0.7,0
				c0.2,0.2,0.2,0.5,0,0.7l-66.3,66.3C129.7,140.5,129.6,140.5,129.4,140.5z"/>
			<path class="st4" d="M134.1,143.1c-0.1,0-0.3,0-0.4-0.1c-0.2-0.2-0.2-0.5,0-0.7L198,78.1c0.2-0.2,0.5-0.2,0.7,0
				c0.2,0.2,0.2,0.5,0,0.7L134.5,143C134.4,143.1,134.3,143.1,134.1,143.1z"/>
			<path class="st4" d="M139.3,145.3c-0.1,0-0.3,0-0.4-0.1c-0.2-0.2-0.2-0.5,0-0.7l61.1-61.1c0.2-0.2,0.5-0.2,0.7,0
				c0.2,0.2,0.2,0.5,0,0.7l-61.1,61.1C139.6,145.3,139.5,145.3,139.3,145.3z"/>
			<path class="st4" d="M145.1,146.9c-0.1,0-0.3,0-0.4-0.1c-0.2-0.2-0.2-0.5,0-0.7l57-57c0.2-0.2,0.5-0.2,0.7,0
				c0.2,0.2,0.2,0.5,0,0.7l-57,57C145.4,146.9,145.2,146.9,145.1,146.9z"/>
			<path class="st4" d="M151.5,147.8c-0.1,0-0.3,0-0.4-0.1c-0.2-0.2-0.2-0.5,0-0.7l51.5-51.5c0.2-0.2,0.5-0.2,0.7,0
				c0.2,0.2,0.2,0.5,0,0.7l-51.5,51.5C151.8,147.8,151.7,147.8,151.5,147.8z"/>
			<path class="st4" d="M158.9,147.8c-0.1,0-0.3,0-0.4-0.1c-0.2-0.2-0.2-0.5,0-0.7l44.1-44.1c0.2-0.2,0.5-0.2,0.7,0
				c0.2,0.2,0.2,0.5,0,0.7l-44.1,44.1C159.2,147.7,159.1,147.8,158.9,147.8z"/>
			<path class="st4" d="M167.8,146.3c-0.1,0-0.3,0-0.4-0.1c-0.2-0.2-0.2-0.5,0-0.7l33.6-33.6c0.2-0.2,0.5-0.2,0.7,0
				c0.2,0.2,0.2,0.5,0,0.7l-33.6,33.6C168.1,146.2,167.9,146.3,167.8,146.3z"/>
			<path class="st4" d="M181.1,140.3c-0.1,0-0.3,0-0.4-0.1c-0.2-0.2-0.2-0.5,0-0.7l14.6-14.6c0.2-0.2,0.5-0.2,0.7,0
				c0.2,0.2,0.2,0.5,0,0.7l-14.6,14.6C181.3,140.3,181.2,140.3,181.1,140.3z"/>
		</g>
		<linearGradient id="SVGID_3_" gradientUnits="userSpaceOnUse" x1="260.215" y1="35.7846" x2="257.3892" y2="130.9179">
			<stop  offset="0" style="stop-color:#D3145A"/>
			<stop  offset="0.2201" style="stop-color:#C01863"/>
			<stop  offset="0.6636" style="stop-color:#8F247C"/>
			<stop  offset="1" style="stop-color:#662D90"/>
		</linearGradient>
		<path class="st5" d="M237.3,208.3c-18.6-2.5-26.7-3.7-63.7-43.3S161,72.5,195,79.7c28.3,6,51,5.7,76-9.3s54.3-23,75.3-2.7
			c21,20.3,20.7,81-14,89.7c-34.7,8.7-45.9,13.6-46.3,25.6C285.3,200.3,261,211.5,237.3,208.3z"/>
		<linearGradient id="SVGID_4_" gradientUnits="userSpaceOnUse" x1="245.6164" y1="55.2388" x2="253.3664" y2="91.2389">
			<stop  offset="0" style="stop-color:#FF7BAB"/>
			<stop  offset="3.420657e-02" style="stop-color:#F978AA;stop-opacity:0.9658"/>
			<stop  offset="0.5027" style="stop-color:#AA509C;stop-opacity:0.4973"/>
			<stop  offset="0.8358" style="stop-color:#793793;stop-opacity:0.1642"/>
			<stop  offset="1" style="stop-color:#662D90;stop-opacity:0"/>
		</linearGradient>
		<path class="st6" d="M195,84.4c28.3,6,51,5.7,76-9.3s54.3-23,75.3-2.7c8.7,8.4,13.7,23.7,14.2,39.4c0.5-17.3-4.6-34.9-14.2-44.2
			c-21-20.3-50.3-12.3-75.3,2.7s-47.7,15.3-76,9.3c-22.6-4.8-40.9,17-39.8,43.7C156.3,98.9,173.8,80,195,84.4z"/>
		<linearGradient id="SVGID_5_" gradientUnits="userSpaceOnUse" x1="310.2559" y1="319.3915" x2="194.7563" y2="34.8918">
			<stop  offset="0" style="stop-color:#D3145A;stop-opacity:0"/>
			<stop  offset="0.2201" style="stop-color:#C01863;stop-opacity:0.2201"/>
			<stop  offset="0.6636" style="stop-color:#8F247C;stop-opacity:0.6636"/>
			<stop  offset="1" style="stop-color:#662D90"/>
		</linearGradient>
		<path class="st7" d="M163.5,158c39.5-31.5,39.5-92.3,64.2-92c24.7,0.3,53.7,45.6,92.7,63.8c39,18.2,22.5,51.1,5.8,56.6
			c-26.6,8.7-47.8-15-70.5-9c-22.7,6-43.9,17.4-67.7,24C160.7,208.9,140.5,176.3,163.5,158z"/>
		<linearGradient id="SVGID_6_" gradientUnits="userSpaceOnUse" x1="191.7057" y1="55.8021" x2="210.4622" y2="74.4176">
			<stop  offset="0" style="stop-color:#D3145A"/>
			<stop  offset="0.2201" style="stop-color:#C01863"/>
			<stop  offset="0.6636" style="stop-color:#8F247C"/>
			<stop  offset="1" style="stop-color:#662D90"/>
		</linearGradient>
		<path class="st8" d="M189.5,65.2c0.2,5.4,6.7,13.3,13.5,10.5c6.8-2.8,11.5-13.8,6-18.3S189,50.8,189.5,65.2z"/>
		<linearGradient id="SVGID_7_" gradientUnits="userSpaceOnUse" x1="296.7155" y1="174.6861" x2="345.6303" y2="197.4626">
			<stop  offset="0" style="stop-color:#D3145A"/>
			<stop  offset="0.2201" style="stop-color:#C01863"/>
			<stop  offset="0.6636" style="stop-color:#8F247C"/>
			<stop  offset="1" style="stop-color:#662D90"/>
		</linearGradient>
		<path class="st9" d="M340.2,178.5c-2.9-1.7-4.5,0.2-5.8,1.7c-1.8,2-2.5,3.3-5.7,1.8c-2.3-1.1-3.7-2.6-4.4-4.6
			c-0.1-0.7-0.3-1.3-0.6-1.9c0,0,0,0,0,0l0,0c-1-2.5-2.7-4.5-5.2-5.5c-8.6-3-26.8,0.8-20,17.9c2.5,6.4,13.8,13.1,20.8,6.8
			c0.6-0.5,1.2-1.2,1.7-1.8c1.9-2.1,5-5.3,6.6-6.1c2.4-1.3,5.8-0.6,7.2,0.5c1.2,1,2.2,2.4,4.2,2.1
			C343.7,188.6,345.5,181.5,340.2,178.5z"/>
		
			<linearGradient id="SVGID_8_" gradientUnits="userSpaceOnUse" x1="120.2901" y1="130.5615" x2="194.6424" y2="165.1825" gradientTransform="matrix(0.9825 0.1861 -0.1861 0.9825 30.3969 -25.3828)">
			<stop  offset="0" style="stop-color:#D3145A"/>
			<stop  offset="0.2201" style="stop-color:#C01863"/>
			<stop  offset="0.6636" style="stop-color:#8F247C"/>
			<stop  offset="1" style="stop-color:#662D90"/>
		</linearGradient>
		<path class="st10" d="M173,179.2c1.9-2.4,4.2-7.8-3.7-12.5c-7.9-4.7-20.9-16.2-18.5-31.3c2.4-15.2-0.9-19.7-10.7-19.7
			c-9.8,0-21.7,20.3-11,31c10.7,10.7,25.9,14.4,29.8,18.9C162.9,170.1,166,188.3,173,179.2z"/>
		<linearGradient id="SVGID_9_" gradientUnits="userSpaceOnUse" x1="240.8668" y1="62.3102" x2="253.1164" y2="68.014">
			<stop  offset="0" style="stop-color:#D3145A"/>
			<stop  offset="0.2201" style="stop-color:#C01863"/>
			<stop  offset="0.6636" style="stop-color:#8F247C"/>
			<stop  offset="1" style="stop-color:#662D90"/>
		</linearGradient>
		<circle class="st11" cx="246.4" cy="64.9" r="5.6"/>
		<path class="st4" d="M104.2,184.8c-3.4,0-6.1-2.7-6.1-6.1c0-3.4,2.7-6.1,6.1-6.1c3.4,0,6.1,2.7,6.1,6.1
			C110.4,182.1,107.6,184.8,104.2,184.8z M104.2,173.6c-2.8,0-5.1,2.3-5.1,5.1s2.3,5.1,5.1,5.1s5.1-2.3,5.1-5.1
			S107.1,173.6,104.2,173.6z"/>
		<path class="st4" d="M134.1,175.1c-1.9,0-3.5-1.6-3.5-3.5c0-1.9,1.6-3.5,3.5-3.5c1.9,0,3.5,1.6,3.5,3.5
			C137.6,173.6,136.1,175.1,134.1,175.1z M134.1,169.2c-1.4,0-2.5,1.1-2.5,2.5c0,1.4,1.1,2.5,2.5,2.5c1.4,0,2.5-1.1,2.5-2.5
			C136.6,170.3,135.5,169.2,134.1,169.2z"/>
		<path class="st4" d="M369.2,119.2c-1.9,0-3.5-1.6-3.5-3.5c0-1.9,1.6-3.5,3.5-3.5c1.9,0,3.5,1.6,3.5,3.5
			C372.6,117.6,371.1,119.2,369.2,119.2z M369.2,113.3c-1.4,0-2.5,1.1-2.5,2.5s1.1,2.5,2.5,2.5c1.4,0,2.5-1.1,2.5-2.5
			S370.5,113.3,369.2,113.3z"/>
		<path class="st4" d="M381.7,95.5c-3.4,0-6.1-2.7-6.1-6.1c0-3.4,2.7-6.1,6.1-6.1c3.4,0,6.1,2.7,6.1,6.1
			C387.8,92.8,385.1,95.5,381.7,95.5z M381.7,84.3c-2.8,0-5.1,2.3-5.1,5.1c0,2.8,2.3,5.1,5.1,5.1c2.8,0,5.1-2.3,5.1-5.1
			C386.8,86.6,384.5,84.3,381.7,84.3z"/>
		<path class="st4" d="M265.9,61.9c-1.8,0-3.3-1.5-3.3-3.3s1.5-3.3,3.3-3.3c1.8,0,3.3,1.5,3.3,3.3S267.7,61.9,265.9,61.9z
			 M265.9,56.4c-1.2,0-2.3,1-2.3,2.3c0,1.2,1,2.3,2.3,2.3c1.2,0,2.3-1,2.3-2.3C268.1,57.4,267.1,56.4,265.9,56.4z"/>
		<linearGradient id="SVGID_10_" gradientUnits="userSpaceOnUse" x1="284.434" y1="200.2228" x2="296.6836" y2="205.9266">
			<stop  offset="0" style="stop-color:#D3145A"/>
			<stop  offset="0.2201" style="stop-color:#C01863"/>
			<stop  offset="0.6636" style="stop-color:#8F247C"/>
			<stop  offset="1" style="stop-color:#662D90"/>
		</linearGradient>
		<circle class="st12" cx="289.9" cy="202.8" r="5.6"/>
		<linearGradient id="SVGID_11_" gradientUnits="userSpaceOnUse" x1="142.3561" y1="99.1435" x2="154.6057" y2="104.8473">
			<stop  offset="0" style="stop-color:#D3145A"/>
			<stop  offset="0.2201" style="stop-color:#C01863"/>
			<stop  offset="0.6636" style="stop-color:#8F247C"/>
			<stop  offset="1" style="stop-color:#662D90"/>
		</linearGradient>
		<circle class="st13" cx="147.9" cy="101.7" r="5.6"/>
	</g>
	<g>
		<path class="st14" d="M163.5,409.6c-0.1,0-0.3,0-0.4-0.1c-0.2-0.2-0.2-0.5,0-0.7l145-145c0.2-0.2,0.5-0.2,0.7,0
			c0.2,0.2,0.2,0.5,0,0.7l-145,145C163.8,409.6,163.6,409.6,163.5,409.6z"/>
		<path class="st14" d="M140.5,415.4c-0.1,0-0.3,0-0.4-0.1c-0.2-0.2-0.2-0.5,0-0.7l76.1-76.1c0.2-0.2,0.5-0.2,0.7,0
			c0.2,0.2,0.2,0.5,0,0.7l-76.1,76.1C140.8,415.3,140.6,415.4,140.5,415.4z"/>
		<path class="st14" d="M140.5,395.3c-0.1,0-0.3,0-0.4-0.1c-0.2-0.2-0.2-0.5,0-0.7l76.1-76.1c0.2-0.2,0.5-0.2,0.7,0
			c0.2,0.2,0.2,0.5,0,0.7l-76.1,76.1C140.8,395.2,140.6,395.3,140.5,395.3z"/>
		<path class="st14" d="M250,340.7c-0.1,0-0.3,0-0.4-0.1c-0.2-0.2-0.2-0.5,0-0.7l76.1-76.1c0.2-0.2,0.5-0.2,0.7,0
			c0.2,0.2,0.2,0.5,0,0.7l-76.1,76.1C250.3,340.7,250.1,340.7,250,340.7z"/>
		<path class="st14" d="M208.2,348.3c-0.1,0-0.3,0-0.4-0.1c-0.2-0.2-0.2-0.5,0-0.7l76.1-76.1c0.2-0.2,0.5-0.2,0.7,0
			c0.2,0.2,0.2,0.5,0,0.7l-76.1,76.1C208.5,348.2,208.3,348.3,208.2,348.3z"/>
		<linearGradient id="SVGID_12_" gradientUnits="userSpaceOnUse" x1="301.5433" y1="379.713" x2="204.2175" y2="294.7197">
			<stop  offset="0" style="stop-color:#F96727"/>
			<stop  offset="0.1596" style="stop-color:#F25830"/>
			<stop  offset="0.7215" style="stop-color:#DC274E"/>
			<stop  offset="1" style="stop-color:#D3145A"/>
		</linearGradient>
		<path class="st15" d="M157.8,282.7c7.1-9.7,24.5-14.3,54.6,2.7c30.2,17,58.8-6.7,81.9-6.7c40.1,0,86,48.7,21,99.7
			c-64.9,51-90.8,42-119.9,21.3C155.1,371,140,306.8,157.8,282.7z"/>
		<linearGradient id="SVGID_13_" gradientUnits="userSpaceOnUse" x1="170.2424" y1="307.5761" x2="285.9091" y2="386.9095">
			<stop  offset="0" style="stop-color:#F96727;stop-opacity:0.6"/>
			<stop  offset="0.1596" style="stop-color:#F25830;stop-opacity:0.6638"/>
			<stop  offset="0.7215" style="stop-color:#DC274E;stop-opacity:0.8886"/>
			<stop  offset="1" style="stop-color:#D3145A"/>
		</linearGradient>
		<path class="st16" d="M147,369.3c-10.3-38,59-112.7,98.8-96.3s38.5,52,70.5,71.2c35,21,17.2,53.8,1.6,59.8
			c-48.4,18.5-91.5-19.7-116-11.7C177.3,400.3,153.7,394.2,147,369.3z"/>
		<g>
			<path class="st14" d="M132.2,325c-1.6,0-2.8-1.3-2.8-2.8c0-1.6,1.3-2.8,2.8-2.8c1.6,0,2.8,1.3,2.8,2.8
				C135,323.7,133.8,325,132.2,325z M132.2,320.3c-1,0-1.8,0.8-1.8,1.8s0.8,1.8,1.8,1.8c1,0,1.8-0.8,1.8-1.8
				S133.2,320.3,132.2,320.3z"/>
			<g>
				<path class="st14" d="M132.2,331.6c-0.3,0-0.5-0.2-0.5-0.5v-3.5c0-0.3,0.2-0.5,0.5-0.5c0.3,0,0.5,0.2,0.5,0.5v3.5
					C132.7,331.4,132.5,331.6,132.2,331.6z"/>
				<path class="st14" d="M132.2,317.2c-0.3,0-0.5-0.2-0.5-0.5v-3.5c0-0.3,0.2-0.5,0.5-0.5c0.3,0,0.5,0.2,0.5,0.5v3.5
					C132.7,317,132.5,317.2,132.2,317.2z"/>
				<path class="st14" d="M126.8,322.6h-3.5c-0.3,0-0.5-0.2-0.5-0.5c0-0.3,0.2-0.5,0.5-0.5h3.5c0.3,0,0.5,0.2,0.5,0.5
					C127.3,322.4,127,322.6,126.8,322.6z"/>
				<path class="st14" d="M141.2,322.6h-3.5c-0.3,0-0.5-0.2-0.5-0.5c0-0.3,0.2-0.5,0.5-0.5h3.5c0.3,0,0.5,0.2,0.5,0.5
					C141.7,322.4,141.4,322.6,141.2,322.6z"/>
			</g>
		</g>
		<g>
			<path class="st14" d="M356.6,357.8c-1.6,0-2.8-1.3-2.8-2.8c0-1.6,1.3-2.8,2.8-2.8s2.8,1.3,2.8,2.8
				C359.4,356.5,358.1,357.8,356.6,357.8z M356.6,353.1c-1,0-1.8,0.8-1.8,1.8s0.8,1.8,1.8,1.8c1,0,1.8-0.8,1.8-1.8
				S357.6,353.1,356.6,353.1z"/>
			<g>
				<path class="st14" d="M356.6,364.4c-0.3,0-0.5-0.2-0.5-0.5v-3.5c0-0.3,0.2-0.5,0.5-0.5s0.5,0.2,0.5,0.5v3.5
					C357.1,364.2,356.8,364.4,356.6,364.4z"/>
				<path class="st14" d="M356.6,350c-0.3,0-0.5-0.2-0.5-0.5V346c0-0.3,0.2-0.5,0.5-0.5s0.5,0.2,0.5,0.5v3.5
					C357.1,349.8,356.8,350,356.6,350z"/>
				<path class="st14" d="M351.1,355.5h-3.5c-0.3,0-0.5-0.2-0.5-0.5c0-0.3,0.2-0.5,0.5-0.5h3.5c0.3,0,0.5,0.2,0.5,0.5
					C351.6,355.2,351.4,355.5,351.1,355.5z"/>
				<path class="st14" d="M365.5,355.5H362c-0.3,0-0.5-0.2-0.5-0.5c0-0.3,0.2-0.5,0.5-0.5h3.5c0.3,0,0.5,0.2,0.5,0.5
					C366,355.2,365.8,355.5,365.5,355.5z"/>
			</g>
		</g>
		<path class="st14" d="M113.2,365.7c-1.9,0-3.5-1.6-3.5-3.5c0-1.9,1.6-3.5,3.5-3.5c1.9,0,3.5,1.6,3.5,3.5
			C116.7,364.1,115.1,365.7,113.2,365.7z M113.2,359.7c-1.4,0-2.5,1.1-2.5,2.5c0,1.4,1.1,2.5,2.5,2.5c1.4,0,2.5-1.1,2.5-2.5
			C115.7,360.8,114.5,359.7,113.2,359.7z"/>
		<path class="st14" d="M339.6,285c-1.9,0-3.5-1.6-3.5-3.5c0-1.9,1.6-3.5,3.5-3.5c1.9,0,3.5,1.6,3.5,3.5
			C343,283.4,341.5,285,339.6,285z M339.6,279c-1.4,0-2.5,1.1-2.5,2.5c0,1.4,1.1,2.5,2.5,2.5c1.4,0,2.5-1.1,2.5-2.5
			C342,280.1,340.9,279,339.6,279z"/>
		<path class="st14" d="M139.4,291.5c-1.9,0-3.5-1.6-3.5-3.5c0-1.9,1.6-3.5,3.5-3.5c1.9,0,3.5,1.6,3.5,3.5
			C142.9,289.9,141.3,291.5,139.4,291.5z M139.4,285.5c-1.4,0-2.5,1.1-2.5,2.5c0,1.4,1.1,2.5,2.5,2.5c1.4,0,2.5-1.1,2.5-2.5
			C141.9,286.6,140.8,285.5,139.4,285.5z"/>
		<g>
			<path class="st14" d="M108.8,335.9c-0.3,0-0.5-0.2-0.5-0.5v-6.1c0-0.3,0.2-0.5,0.5-0.5c0.3,0,0.5,0.2,0.5,0.5v6.1
				C109.3,335.7,109.1,335.9,108.8,335.9z"/>
			<path class="st14" d="M111.9,332.9h-6.1c-0.3,0-0.5-0.2-0.5-0.5c0-0.3,0.2-0.5,0.5-0.5h6.1c0.3,0,0.5,0.2,0.5,0.5
				C112.4,332.7,112.1,332.9,111.9,332.9z"/>
		</g>
		<g>
			<path class="st14" d="M274.5,419.6c-0.3,0-0.5-0.2-0.5-0.5V413c0-0.3,0.2-0.5,0.5-0.5s0.5,0.2,0.5,0.5v6.1
				C275,419.4,274.8,419.6,274.5,419.6z"/>
			<path class="st14" d="M277.6,416.6h-6.1c-0.3,0-0.5-0.2-0.5-0.5c0-0.3,0.2-0.5,0.5-0.5h6.1c0.3,0,0.5,0.2,0.5,0.5
				C278.1,416.3,277.9,416.6,277.6,416.6z"/>
		</g>
		<g>
			<path class="st14" d="M363.8,313.7c-0.3,0-0.5-0.2-0.5-0.5v-6.1c0-0.3,0.2-0.5,0.5-0.5s0.5,0.2,0.5,0.5v6.1
				C364.3,313.5,364,313.7,363.8,313.7z"/>
			<path class="st14" d="M366.8,310.6h-6.1c-0.3,0-0.5-0.2-0.5-0.5c0-0.3,0.2-0.5,0.5-0.5h6.1c0.3,0,0.5,0.2,0.5,0.5
				C367.3,310.4,367.1,310.6,366.8,310.6z"/>
		</g>
		<g>
			<path class="st14" d="M387.5,338.9c-0.3,0-0.5-0.2-0.5-0.5v-6.1c0-0.3,0.2-0.5,0.5-0.5c0.3,0,0.5,0.2,0.5,0.5v6.1
				C388,338.7,387.8,338.9,387.5,338.9z"/>
			<path class="st14" d="M390.5,335.9h-6.1c-0.3,0-0.5-0.2-0.5-0.5c0-0.3,0.2-0.5,0.5-0.5h6.1c0.3,0,0.5,0.2,0.5,0.5
				C391,335.7,390.8,335.9,390.5,335.9z"/>
		</g>
		<linearGradient id="SVGID_14_" gradientUnits="userSpaceOnUse" x1="250.4881" y1="269.767" x2="249.488" y2="303.4337">
			<stop  offset="0" style="stop-color:#F6DA69"/>
			<stop  offset="0.3567" style="stop-color:#F5AD65;stop-opacity:0.6433"/>
			<stop  offset="0.7867" style="stop-color:#F47C60;stop-opacity:0.2133"/>
			<stop  offset="1" style="stop-color:#F4695E;stop-opacity:0"/>
		</linearGradient>
		<path class="st17" d="M159,290.3c7.1-9.7,24.5-14.3,54.6,2.7s58.8-6.7,81.9-6.7c22.4,0,46.7,15.3,52.3,37.6
			c-1.4-26.5-28.6-45.2-53.4-45.2c-23.1,0-51.7,23.7-81.9,6.7c-30.2-17-47.5-12.3-54.6-2.7c-7.4,10.1-9.2,27.1-5.7,45.6
			C150.4,312.8,152.6,298.9,159,290.3z"/>
		<linearGradient id="SVGID_15_" gradientUnits="userSpaceOnUse" x1="343.0498" y1="390.6108" x2="364.2715" y2="390.6108">
			<stop  offset="0" style="stop-color:#F96727"/>
			<stop  offset="0.6026" style="stop-color:#F6684B"/>
			<stop  offset="1" style="stop-color:#F4695E"/>
		</linearGradient>
		<circle class="st18" cx="353.7" cy="390.6" r="10.6"/>
	</g>
</g>
<g id="DESIGNED_BY_FREEPIK">
</g>
</svg>
